<?xml version="1.0" encoding="UTF-8"?>
<svg width="167px" height="167px" viewBox="0 0 167 167" version="1.1" xmlns="http://www.w3.org/2000/svg" xmlns:xlink="http://www.w3.org/1999/xlink">
    <title>1432459F-7A22-42AC-A56E-C85AB7275BB2</title>
    <g id="City-Page" stroke="none" stroke-width="1" fill="none" fill-rule="evenodd">
        <g id="City6_3_hover-Copy" transform="translate(-1237.000000, -912.000000)">
            <rect fill="#FFFFFF" x="0" y="0" width="1763" height="10319"></rect>
            <g id="Section_How-do-we-help-with-your-auto..." transform="translate(251.000000, 746.000000)" fill-rule="nonzero">
                <g id="Look-for-other-types" transform="translate(944.000000, 166.000000)">
                    <g id="icon_auto-payment-plans-copy" transform="translate(42.000000, 0.000000)">
                        <circle id="Oval-Copy-2" fill="#F2F5F5" cx="83.5" cy="83.5" r="83.5"></circle>
                        <g id="decision-making" transform="translate(39.828452, 42.623431)">
                            <path d="M28.8775847,47.5146444 L41.9246862,47.5146444 L41.9246862,46.5478478 L39.3152659,42.1908747 C39.3152659,33.3837625 32.2922721,26.2195657 23.6587441,26.2195657 L15.8304832,26.2195657 L15.8304832,19.5648536 L0,31.5433353 L15.8304832,43.5218171 L15.8304832,36.867105 L23.6587441,36.867105 C26.5357169,36.867105 28.8775847,39.2560579 28.8775847,42.1908747 L28.8775847,47.5146444 Z" id="Path" fill="#305B85"></path>
                            <path d="M60.5617459,47.5146444 L47.5146444,47.5146444 L47.5146444,46.001629 L50.1240647,42.1908747 C50.1240647,33.3837625 57.1470585,26.2195657 65.7805865,26.2195657 L73.6088474,26.2195657 L73.6088474,19.5648536 L89.4393305,31.5433353 L73.6088474,43.5218171 L73.6088474,36.867105 L65.7805865,36.867105 C62.9036136,36.867105 60.5617459,39.2560579 60.5617459,42.1908747 L60.5617459,47.5146444 Z" id="Path" fill="#197BBD"></path>
                            <polygon id="Path" fill="#F16322" points="44.7196653 0 32.8410042 15.7797712 39.4390869 15.7797712 39.4417272 47.5146444 44.7196653 47.5146444 50.0002437 47.5146444 50.0002437 15.7797712 56.5983264 15.7797712"></polygon>
                            <polygon id="Path" fill="#CA521B" points="50.0002437 15.7797712 56.5983264 15.7797712 44.7196653 0 44.7196653 47.5146444 50.0002437 47.5146444"></polygon>
                            <path d="M59.6840681,69.7361197 L64.9832636,66.6655279 L59.7830456,57.6242344 L54.4455419,60.7177892 C52.9830672,59.4690946 51.3427452,58.5161343 49.5705109,57.8841327 L49.5705109,51.707113 L44.3702929,51.707113 L39.1700749,51.707113 L39.1700749,57.8841327 C37.3952405,58.5161343 35.7549184,59.4690946 34.2974707,60.7177892 L28.9575402,57.6242344 L23.7573222,66.6655279 L29.0565176,69.7361197 C28.8864705,70.6636817 28.7696389,71.6065522 28.7696389,72.5824754 C28.7696389,73.5583986 28.8864705,74.5038785 29.0565176,75.4288311 L23.7573222,78.4994229 L28.9575402,87.5407163 L34.2946972,84.4471616 C35.7573452,85.6958562 37.3976673,86.6488165 39.1700749,87.2808181 L39.1700749,93.6317992 L44.3702929,93.6317992 L49.5705109,93.6317992 L49.5705109,87.2808181 C51.3453453,86.6488165 52.9856674,85.6958562 54.4431151,84.4471616 L59.7830456,87.5407163 L64.9832636,78.4994229 L59.6840681,75.4288311 C59.8541153,74.5012691 59.9709468,73.5583986 59.9709468,72.5824754 C59.9709468,71.6065522 59.8541153,70.6610722 59.6840681,69.7361197 Z M44.3702929,77.801316 C41.4982125,77.801316 39.1700749,75.4644931 39.1700749,72.5824754 C39.1700749,69.7001097 41.4982125,67.3636348 44.3702929,67.3636348 C47.2423733,67.3636348 49.5705109,69.7001097 49.5705109,72.5824754 C49.5705109,75.4644931 47.2423733,77.801316 44.3702929,77.801316 Z" id="Shape" fill="#93A29C"></path>
                            <path d="M50.0080225,87.2808181 C51.8129389,86.6488165 53.481063,85.6958562 54.9632133,84.4471616 L60.3936511,87.5407163 L65.6820084,78.4994229 L60.292996,75.4288311 C60.4659253,74.5012691 60.5847371,73.5583986 60.5847371,72.5824754 C60.5847371,71.6065522 60.4659253,70.6610722 60.292996,69.7361197 L65.6820084,66.6655279 L60.3936511,57.6242344 L54.9656812,60.7177892 C53.4784189,59.4690946 51.8102947,58.5161343 50.0080225,57.8841327 L50.0080225,51.707113 L44.7196653,51.707113 L44.7196653,67.3636348 C47.640425,67.3636348 50.0080225,69.7001097 50.0080225,72.5824754 C50.0080225,75.4644931 47.640425,77.801316 44.7196653,77.801316 L44.7196653,93.6317992 L50.0080225,93.6317992 L50.0080225,87.2808181 Z" id="Path" fill="#383D3B"></path>
                            <path d="M44.7196653,64.9832636 C40.4813279,64.9832636 37.0334728,68.4311187 37.0334728,72.6694561 C37.0334728,76.9077934 40.4813279,80.3556485 44.7196653,80.3556485 C48.9580026,80.3556485 52.4058577,76.9077934 52.4058577,72.6694561 C52.4058577,68.4311187 48.9580026,64.9832636 44.7196653,64.9832636 Z M44.7196653,75.2315202 C43.3060891,75.2315202 42.1576011,74.0830323 42.1576011,72.6694561 C42.1576011,71.2558799 43.3060891,70.1073919 44.7196653,70.1073919 C46.1332415,70.1073919 47.2817294,71.2558799 47.2817294,72.6694561 C47.2817294,74.0830323 46.1332415,75.2315202 44.7196653,75.2315202 Z" id="Shape" fill="#E5E5E5"></path>
                            <path d="M52.4058577,72.6694561 C52.4058577,68.4311187 48.9580026,64.9832636 44.7196653,64.9832636 L44.7196653,70.1073919 C46.1332415,70.1073919 47.2817294,71.2558799 47.2817294,72.6694561 C47.2817294,74.0830323 46.1332415,75.2315202 44.7196653,75.2315202 L44.7196653,80.3556485 C48.9580026,80.3556485 52.4058577,76.9077934 52.4058577,72.6694561 Z" id="Path" fill="#A9B1B1"></path>
                        </g>
                    </g>
                </g>
            </g>
        </g>
    </g>
</svg>