<?xml version="1.0" encoding="UTF-8"?>
<svg width="52px" height="61px" viewBox="0 0 52 61" version="1.1" xmlns="http://www.w3.org/2000/svg" xmlns:xlink="http://www.w3.org/1999/xlink">
    <title>2A48CD3D-2E22-4BE9-91AE-2259D61A6233</title>
    <g id="City-Page" stroke="none" stroke-width="1" fill="none" fill-rule="evenodd">
        <g id="City6_3_hover-Copy" transform="translate(-153.000000, -1723.000000)">
            <rect fill="#FFFFFF" x="0" y="0" width="1763" height="10319"></rect>
            <g id="Section_What-are-the-legal-requirements-for-car-insurance-in-Illinois" transform="translate(70.000000, 1328.000000)">
                <polygon id="grey-bg" fill="#F2F5F5" points="10 0 1611 0 1611 739 694.863176 739 10 739"></polygon>
                <g id="Uninsured/Insured-or-mo" transform="translate(83.000000, 393.000000)" fill-rule="nonzero">
                    <g id="icon/uninsured/underinsured-motorist-2" transform="translate(-0.000000, 2.000000)">
                        <g id="Hand-heart-icon" transform="translate(0.000000, 3.000000)">
                            <path d="M31.6095971,9.71428571 L29.0099044,9.71428571 L29.0099044,6.92857143 C29.0099044,6.41573559 28.6219303,6 28.1433401,6 L24.6770832,6 C24.198493,6 23.8105189,6.41573559 23.8105189,6.92857143 L23.8105189,9.71428571 L21.2108262,9.71428571 C20.732236,9.71428571 20.344262,10.1300213 20.344262,10.6428571 L20.344262,14.3571429 C20.344262,14.8699787 20.732236,15.2857143 21.2108262,15.2857143 L23.8105189,15.2857143 L23.8105189,18.0714286 C23.8105189,18.5842644 24.198493,19 24.6770832,19 L28.1433401,19 C28.6219303,19 29.0099044,18.5842644 29.0099044,18.0714286 L29.0099044,15.2857143 L31.6095971,15.2857143 C32.0881873,15.2857143 32.4761613,14.8699787 32.4761613,14.3571429 L32.4761613,10.6428571 C32.4761613,10.1300213 32.0881873,9.71428571 31.6095971,9.71428571 Z M30.7430329,13.4285714 L28.1433401,13.4285714 C27.6647499,13.4285714 27.2767759,13.844307 27.2767759,14.3571429 L27.2767759,17.1428571 L25.5436474,17.1428571 L25.5436474,14.3571429 C25.5436474,13.844307 25.1556734,13.4285714 24.6770832,13.4285714 L22.0773905,13.4285714 L22.0773905,11.5714286 L24.6770832,11.5714286 C25.1556734,11.5714286 25.5436474,11.155693 25.5436474,10.6428571 L25.5436474,7.85714286 L27.2767759,7.85714286 L27.2767759,10.6428571 C27.2767759,11.155693 27.6647499,11.5714286 28.1433401,11.5714286 L30.7430329,11.5714286 L30.7430329,13.4285714 Z" id="Shape" fill="#F16322"></path>
                            <path d="M49.614627,15.1232819 C49.6317053,14.9625162 49.6401562,14.8008125 49.6399369,14.6389863 C49.6315063,12.913352 48.5151892,11.4267251 46.957083,11.0661639 C45.1819975,10.7002025 43.4486773,11.8865233 42.9918586,13.7800469 L39.2797336,25.3483157 C39.2247251,25.3719687 39.1711819,25.3994387 39.1194373,25.4305546 L31.6614408,30.1638589 C29.3394396,31.6411388 27.9115795,34.3379598 27.9071325,37.2546777 L27.9071325,45.8623469 C27.4411894,45.8623469 27.0634678,46.2714536 27.0634678,46.7761122 L27.0634678,54.0862347 C27.0634678,54.5908933 27.4411894,55 27.9071325,55 L39.7184393,55 C40.1843825,55 40.562104,54.5908933 40.562104,54.0862347 L40.562104,46.7761122 C40.562104,46.2714536 40.1843825,45.8623469 39.7184393,45.8623469 L39.7184393,43.8520632 C39.7216325,43.0717003 40.0278387,42.3288065 40.562104,41.8052289 L46.2652779,36.3134994 C46.8891177,35.7222995 47.3356673,34.9427262 47.5476483,34.0747744 L51.2091534,19.2443634 C51.2873225,18.9346799 51.3272665,18.6150956 51.3272665,18.2940475 C51.3205286,16.9815949 50.6676188,15.7728034 49.614627,15.1232819 Z M44.6032583,14.3191684 C44.8180272,13.3391819 45.6922405,12.7026426 46.6111804,12.8571439 C47.3904644,13.0339192 47.949611,13.776644 47.9526074,14.6389863 L47.9526074,14.6572616 C46.4040523,14.6883937 45.0633566,15.8306585 44.6707515,17.4533834 L42.3169268,25.3209028 C41.9605594,25.1378174 41.5784695,25.0204604 41.186416,24.9736719 L44.6032583,14.3191684 Z M38.8747745,53.1724694 L28.7507973,53.1724694 L28.7507973,47.6898775 L38.8747745,47.6898775 L38.8747745,53.1724694 Z M49.5808804,18.7692055 L45.9109387,33.6087541 C45.7839685,34.1244138 45.5199392,34.5883169 45.1516404,34.9428515 L39.4400299,40.434581 C38.5463188,41.3074778 38.0346249,42.5486445 38.0311097,43.8520632 L38.0311097,45.8623469 L29.5944621,45.8623469 L29.5944621,37.2546777 C29.6029726,34.9867811 30.7115922,32.8906997 32.5135422,31.7355352 L39.9631021,27.0113686 C40.3510459,26.7665575 40.8130776,26.6993058 41.2469316,26.824499 C41.6807856,26.9496921 42.0506802,27.257005 42.2747435,27.6784173 C42.4938789,28.1006365 42.5543127,28.5980964 42.4434765,29.0673405 C42.3251228,29.5353019 42.039812,29.9330796 41.6504316,30.1729965 L36.8162325,33.1975597 C36.4346829,33.4602636 36.3121595,34.0020358 36.5384194,34.4259895 C36.7646793,34.8499432 37.2592827,35.0053546 37.6598972,34.7783737 L42.4940964,31.7538105 C43.2747118,31.2741072 43.8435524,30.473499 44.0717495,29.5333608 C44.3014055,28.5984136 44.1800815,27.6030212 43.7342836,26.7646519 L43.6836637,26.6824131 L46.2905878,17.9742297 C46.5053567,16.9942432 47.3795701,16.3577039 48.29851,16.5122052 C49.0777939,16.6889805 49.6369405,17.4317053 49.6399369,18.2940475 C49.6427766,18.454771 49.6228599,18.6150167 49.5808804,18.7692055 Z" id="Shape" fill="#383D3B"></path>
                            <path d="M23.4201339,45.8616935 L23.4201339,37.2534087 C23.415687,34.3364822 21.9878269,31.6394684 19.6658257,30.1620828 L12.2078292,25.4193017 C12.1572093,25.3918868 12.0981528,25.3736102 12.0475329,25.3461953 L8.36071784,13.8410673 C7.91597419,11.9193423 6.16880052,10.7030321 4.37018349,11.0630222 C2.8120773,11.4236091 1.69576015,12.9103423 1.68732953,14.6361 C1.6871103,14.7979378 1.69556115,14.959653 1.71263948,15.1204303 C0.659647717,15.7699983 0.00673791672,16.9788761 0,18.2914226 C0.00163861737,18.6118071 0.0384560834,18.9308431 0.10967642,19.2418065 L3.77961816,34.0641397 C3.98933839,34.9357905 4.43612881,35.7190239 5.0619886,36.3121631 L10.7567258,41.8042854 C11.2964776,42.3243941 11.6063375,43.0687624 11.6088272,43.851266 L11.6088272,45.8616935 C11.142884,45.8616935 10.7651624,46.2708294 10.7651624,46.7755241 L10.7651624,54.0861693 C10.7651624,54.5908641 11.142884,55 11.6088272,55 L23.4201339,55 C23.8860771,55 24.2637987,54.5908641 24.2637987,54.0861693 L24.2637987,46.7755241 C24.2637987,46.2708294 23.8860771,45.8616935 23.4201339,45.8616935 Z M3.37465907,14.6361 C3.37680358,13.7764708 3.93171769,13.0346499 4.7076494,12.8541302 C5.6520604,12.7056484 6.54238701,13.3711456 6.74931813,14.3802274 L10.1408505,24.9715247 C9.74879692,25.0183165 9.36670709,25.1356819 9.01033971,25.3187804 L6.67338831,17.49639 C6.28263734,15.8577706 4.93659044,14.6980867 3.37465907,14.6543766 L3.37465907,14.6361 Z M11.8787999,40.4335394 L6.17562609,34.9414171 C5.80530107,34.5849627 5.54103313,34.1174267 5.4163278,33.5980861 L1.73794942,18.7666146 C1.70302664,18.6110888 1.68602389,18.4514763 1.68725968,18.2914226 C1.68947405,17.4317935 2.24438816,16.6899725 3.02031987,16.5094529 C3.95819474,16.3569904 4.84553917,17.0150344 5.05355195,18.0172734 L7.64360279,26.680388 L7.5929829,26.7626328 C7.147185,27.601062 7.02586093,28.5965256 7.25551699,29.5315397 C7.48371407,30.4717451 8.05255471,31.2724105 8.83317011,31.7521482 L13.6673692,34.7769276 C14.0679838,35.0039247 14.5625872,34.8485022 14.7888471,34.4245182 C15.015107,34.0005342 14.8925836,33.4587232 14.511034,33.1960006 L9.67683488,30.1712211 C9.28745443,29.931287 9.00214364,29.5334809 8.88378999,29.065486 C8.77295378,28.5962083 8.83338755,28.0987129 9.05252295,27.6764634 C9.27514799,27.2559521 9.64288158,26.9484619 10.0748204,26.821642 C10.5067592,26.6948222 10.9675181,26.7590622 11.3557278,27.0002288 L18.8137243,31.7338715 C20.6156743,32.8891186 21.7242939,34.9853499 21.7328044,37.2534087 L21.7328044,45.8616935 L13.2961567,45.8616935 L13.2961567,43.851266 C13.2932494,42.5456934 12.7779179,41.3030547 11.8787999,40.4335394 L11.8787999,40.4335394 Z M22.5764692,53.1723387 L12.452492,53.1723387 L12.452492,47.6893548 L22.5764692,47.6893548 L22.5764692,53.1723387 Z" id="Shape" fill="#383D3B"></path>
                            <path d="M38.5845032,2.76182364 C36.9956832,0.993461053 34.8390657,0 32.5901679,0 C30.3412702,0 28.1847791,0.994153032 26.5961841,2.76276517 L26.5961841,2.76276517 L26.5961841,2.76276517 C25.0077322,0.994103459 22.8512767,0 20.6024484,0 C18.35362,0 16.1971645,0.994103459 14.6087126,2.76276517 C11.3062949,6.439838 11.3062949,12.3931857 14.6087126,16.0702586 L25.9979122,28.7243347 C26.328826,29.0918884 26.8652372,29.0918884 27.1961509,28.7243347 L38.5853506,16.0702586 C41.8876315,12.3926034 41.8872524,6.43895963 38.5845032,2.76182364 L38.5845032,2.76182364 Z M26.5961841,26.7273633 L15.8061039,14.7389443 C13.8689064,12.5836694 13.2907153,9.34422278 14.3410593,6.5307007 C15.3914033,3.71717862 17.8635121,1.88345013 20.6049906,1.88432372 C22.4038773,1.87746034 24.1298682,2.6736377 25.3954032,4.09407942 L25.9970648,4.76256112 C26.3279785,5.1301149 26.8643898,5.1301149 27.1953035,4.76256112 L27.7986599,4.09219637 C29.0692596,2.67793592 30.79394,1.88319804 32.5924622,1.88319804 C34.3909844,1.88319804 36.1156648,2.67793592 37.3862644,4.09219637 C40.0293882,7.03286673 40.0293882,11.7963909 37.3862644,14.7370613 L26.5961841,26.7273633 Z" id="Shape" fill="#383D3B"></path>
                        </g>
                    </g>
                </g>
            </g>
        </g>
    </g>
</svg>