<?xml version="1.0" encoding="UTF-8"?>
<svg width="167px" height="167px" viewBox="0 0 167 167" version="1.1" xmlns="http://www.w3.org/2000/svg" xmlns:xlink="http://www.w3.org/1999/xlink">
    <title>7463CE27-885B-48BC-8E1B-E3E67B4B3CFA</title>
    <defs>
        <linearGradient x1="50.0002464%" y1="4.76962531%" x2="50.0002464%" y2="101.106873%" id="linearGradient-1">
            <stop stop-color="#5F5F60" offset="0%"></stop>
            <stop stop-color="#282828" offset="100%"></stop>
        </linearGradient>
        <linearGradient x1="49.9997536%" y1="4.76962531%" x2="49.9997536%" y2="101.106873%" id="linearGradient-2">
            <stop stop-color="#5F5F60" offset="0%"></stop>
            <stop stop-color="#282828" offset="100%"></stop>
        </linearGradient>
        <linearGradient x1="72.6595745%" y1="23.1742427%" x2="37.4468085%" y2="64.8372551%" id="linearGradient-3">
            <stop stop-color="#FFFFFF" offset="0%"></stop>
            <stop stop-color="#FFFFFF" stop-opacity="0" offset="99.74%"></stop>
        </linearGradient>
        <linearGradient x1="27.287234%" y1="23.1742427%" x2="62.5%" y2="64.8372551%" id="linearGradient-4">
            <stop stop-color="#FFFFFF" offset="0%"></stop>
            <stop stop-color="#FFFFFF" stop-opacity="0" offset="99.74%"></stop>
        </linearGradient>
        <linearGradient x1="50%" y1="4.77325944%" x2="50%" y2="101.097721%" id="linearGradient-5">
            <stop stop-color="#5F5F60" offset="0%"></stop>
            <stop stop-color="#282828" offset="100%"></stop>
        </linearGradient>
        <linearGradient x1="49.994337%" y1="4.7731569%" x2="49.994337%" y2="101.095549%" id="linearGradient-6">
            <stop stop-color="#5F5F60" offset="0%"></stop>
            <stop stop-color="#282828" offset="100%"></stop>
        </linearGradient>
        <linearGradient x1="49.9936135%" y1="4.77325944%" x2="49.9936135%" y2="101.097721%" id="linearGradient-7">
            <stop stop-color="#5F5F60" offset="0%"></stop>
            <stop stop-color="#282828" offset="100%"></stop>
        </linearGradient>
        <linearGradient x1="50.004045%" y1="4.7731569%" x2="50.004045%" y2="101.095549%" id="linearGradient-8">
            <stop stop-color="#5F5F60" offset="0%"></stop>
            <stop stop-color="#282828" offset="100%"></stop>
        </linearGradient>
        <linearGradient x1="-0.00147036579%" y1="49.9965249%" x2="99.9999553%" y2="49.9965249%" id="linearGradient-9">
            <stop stop-color="#EEF4FF" offset="0%"></stop>
            <stop stop-color="#5BDBFD" offset="100%"></stop>
        </linearGradient>
        <linearGradient x1="100.006365%" y1="50.0068111%" x2="-0.00477380138%" y2="50.0068111%" id="linearGradient-10">
            <stop stop-color="#D0E4FF" offset="0%"></stop>
            <stop stop-color="#C2CFFD" offset="100%"></stop>
        </linearGradient>
        <linearGradient x1="0.00954760276%" y1="50.0068111%" x2="100.004774%" y2="50.0068111%" id="linearGradient-11">
            <stop stop-color="#D0E4FF" offset="0%"></stop>
            <stop stop-color="#C2CFFD" offset="100%"></stop>
        </linearGradient>
        <linearGradient x1="50.0002087%" y1="4.08918598%" x2="50.0002087%" y2="67.07566%" id="linearGradient-12">
            <stop stop-color="#5F5F60" offset="0%"></stop>
            <stop stop-color="#282828" offset="100%"></stop>
        </linearGradient>
        <linearGradient x1="50.0012923%" y1="4.08918598%" x2="50.0012923%" y2="67.07566%" id="linearGradient-13">
            <stop stop-color="#5F5F60" offset="0%"></stop>
            <stop stop-color="#282828" offset="100%"></stop>
        </linearGradient>
        <linearGradient x1="49.9998027%" y1="10.115%" x2="49.9998027%" y2="64.815%" id="linearGradient-14">
            <stop stop-color="#5F5F60" offset="0%"></stop>
            <stop stop-color="#282828" offset="100%"></stop>
        </linearGradient>
        <linearGradient x1="-0.000253684049%" y1="49.9994641%" x2="100.000089%" y2="49.9994641%" id="linearGradient-15">
            <stop stop-color="#FFB82C" offset="0%"></stop>
            <stop stop-color="#FFBB00" offset="26.8%"></stop>
            <stop stop-color="#FFA801" offset="65.9%"></stop>
            <stop stop-color="#CF9D38" offset="100%"></stop>
        </linearGradient>
        <linearGradient x1="0.00255190056%" y1="50.0002547%" x2="100.000305%" y2="50.0002547%" id="linearGradient-16">
            <stop stop-color="#EEF4FF" offset="0%"></stop>
            <stop stop-color="#DEF6FC" offset="100%"></stop>
        </linearGradient>
        <linearGradient x1="19.2720489%" y1="65.0856878%" x2="89.8819699%" y2="18.2792987%" id="linearGradient-17">
            <stop stop-color="#00CE2C" offset="0.13%"></stop>
            <stop stop-color="#0CA529" offset="100%"></stop>
        </linearGradient>
        <linearGradient x1="-0.00194782149%" y1="50.0025686%" x2="99.9992077%" y2="50.0025686%" id="linearGradient-18">
            <stop stop-color="#FFC200" offset="0%"></stop>
            <stop stop-color="#FFBB00" offset="26.8%"></stop>
            <stop stop-color="#FFA801" offset="65.9%"></stop>
            <stop stop-color="#FF9102" offset="100%"></stop>
        </linearGradient>
    </defs>
    <g id="City-Page" stroke="none" stroke-width="1" fill="none" fill-rule="evenodd">
        <g id="City6_3_hover-Copy" transform="translate(-617.000000, -911.000000)">
            <rect fill="#FFFFFF" x="0" y="0" width="1763" height="10319"></rect>
            <g id="Section_How-do-we-help-with-your-auto..." transform="translate(251.000000, 746.000000)" fill-rule="nonzero">
                <g id="Get-no-obligation-auto-quotes-in-minutes" transform="translate(324.000000, 165.000000)">
                    <g id="Group-3" transform="translate(42.000000, 0.000000)">
                        <circle id="Oval-Copy" fill="#F2F5F5" cx="83.5" cy="83.5" r="83.5"></circle>
                        <g id="car-insurance-2" transform="translate(44.020921, 37.033473)">
                            <g id="Group" transform="translate(0.000000, 30.754971)">
                                <path d="M73.4298199,16.1996327 C71.9960272,17.1909907 72.3269024,20.1098728 72.3269024,20.1098728 L73.6504034,20.4403255 L68.5161244,20.4403255 L68.5161244,22.2849453 C69.4991899,22.3089317 70.5599027,22.3154522 71.6271444,22.2833152 L71.6397359,22.2833152 L71.6402022,22.2828494 C75.4167035,22.168041 79.1927385,21.5863139 79.2750493,19.7242283 C79.4406035,15.9793309 74.8636126,15.2082747 73.4298199,16.1996327 L73.4298199,16.1996327 Z" id="Path" fill="url(#linearGradient-1)"></path>
                                <path d="M5.84965972,16.1996327 C7.28345242,17.1909907 6.95257718,20.1098728 6.95257718,20.1098728 L5.62907623,20.4403255 L10.7633552,20.4403255 L10.7633552,22.2849453 C9.78028968,22.3089317 8.71957688,22.3154522 7.65233518,22.2833152 L7.63974373,22.2833152 L7.63927738,22.2828494 C3.86277606,22.168041 0.0867410777,21.5863139 0.00443032386,19.7242283 C-0.161123884,15.9793309 4.41586701,15.2082747 5.84965972,16.1996327 L5.84965972,16.1996327 Z" id="Path" fill="url(#linearGradient-2)"></path>
                                <ellipse id="Oval" fill="url(#linearGradient-3)" cx="75.5276948" cy="17.7312657" rx="2.19184444" ry="1.63246877"></ellipse>
                                <ellipse id="Oval" fill="url(#linearGradient-4)" cx="3.84272301" cy="17.7312657" rx="2.19184444" ry="1.63246877"></ellipse>
                                <path d="M60.5028344,52.0359319 L60.5028344,59.3748222 C60.5028344,61.3088668 62.0114762,62.8765958 63.8724454,62.8765958 L71.7374362,62.8765958 C73.5984053,62.8765958 75.1070472,61.308634 75.1070472,59.3748222 L75.1070472,52.0359319 L60.5028344,52.0359319 Z" id="Path" fill="url(#linearGradient-5)"></path>
                                <path d="M73.0205978,52.0359319 C73.0205978,56.8215572 69.2874671,60.7010575 64.6827283,60.7010575 L61.7862292,60.7010575 C61.4024233,60.7010575 61.0396031,60.6200162 60.69567,60.4970571 C61.1475631,61.8773199 62.3913182,62.8768286 63.8724454,62.8768286 L71.7374362,62.8768286 C73.5984053,62.8768286 75.1070472,61.3090997 75.1070472,59.375055 L75.1070472,52.0361647 L73.0205978,52.0361647 L73.0205978,52.0359319 Z" id="Path" fill="url(#linearGradient-6)" opacity="0.5"></path>
                                <path d="M4.17103333,52.0359319 L4.17103333,59.3748222 C4.17103333,61.3088668 5.67967519,62.8765958 7.54064438,62.8765958 L15.4056351,62.8765958 C17.2666043,62.8765958 18.7752462,61.308634 18.7752462,59.3748222 L18.7752462,52.0359319 L4.17103333,52.0359319 Z" id="Path" fill="url(#linearGradient-7)"></path>
                                <path d="M16.6887968,52.0359319 C16.6887968,56.8215572 12.955666,60.7010575 8.3509273,60.7010575 L5.4544282,60.7010575 C5.07062224,60.7010575 4.70780204,60.6200162 4.363869,60.4970571 C4.81576203,61.8773199 6.05951716,62.8768286 7.54064438,62.8768286 L15.4056351,62.8768286 C17.2666043,62.8768286 18.7752462,61.3090997 18.7752462,59.375055 L18.7752462,52.0361647 L16.6887968,52.0361647 L16.6887968,52.0359319 Z" id="Path" fill="url(#linearGradient-8)" opacity="0.5"></path>
                                <path d="M7.8512334,21.6815607 L71.3223848,21.6815607 L77.8699371,30.5693168 C78.7849155,31.8373329 79.2794796,33.3792124 79.2794796,34.9637085 L79.2794796,50.0269008 C79.2794796,53.5314689 76.5457366,56.3723372 73.1735606,56.3723372 L6.10591898,56.3723372 C2.733743,56.3723372 0,53.5314689 0,50.0269008 L0,34.9637085 C0,33.3789796 0.494564048,31.8371 1.40954251,30.5695497 L7.8512334,21.6815607 Z" id="Path" fill="#F16322"></path>
                                <path d="M7.8512334,21.6815607 L15.3984067,2.95381368 C16.1851389,1.15507063 17.911333,0 19.8126415,0 L59.4666049,0 C61.3681466,0 63.0941075,1.15507063 63.8810729,2.95404656 L71.3226179,21.6817935 L7.8512334,21.6817935 L7.8512334,21.6815607 Z" id="Path" fill="#F16322"></path>
                                <path d="M67.3357928,17.1814427 L62.3267287,3.77400698 C62.0970514,3.15897845 61.5696097,2.7600599 60.9864392,2.7600599 L18.2426746,2.7600599 C17.6592709,2.7600599 17.1320624,3.15874557 16.9021519,3.77400698 L11.893321,17.1814427 C11.4808345,18.2855133 12.1866551,19.5134745 13.2338437,19.5134745 L65.9952701,19.5134745 C67.0422256,19.5134745 67.7480461,18.2855133 67.3357928,17.1814427 L67.3357928,17.1814427 Z" id="Path" fill="#FFFFFF"></path>
                                <path d="M67.3357928,17.1814427 L62.3267287,3.77400698 C62.0968183,3.15897845 61.5696097,2.7600599 60.9864392,2.7600599 L57.2577387,2.7600599 C59.4901556,8.73545451 55.669351,15.3826997 50.0022673,15.3826997 L12.5653312,15.3826997 L11.893321,17.1814427 C11.4808345,18.2855133 12.1868882,19.5134745 13.2338437,19.5134745 L65.9952701,19.5134745 C67.0422256,19.5134745 67.7480461,18.2852804 67.3357928,17.1814427 L67.3357928,17.1814427 Z" id="Path" fill="url(#linearGradient-9)" opacity="0.6"></path>
                                <g transform="translate(3.601919, 36.297628)" id="Path">
                                    <g transform="translate(56.753549, 0.000000)">
                                        <path d="M0.736599635,4.93373579 C2.52365238,3.57280176 7.24404586,0.27409703 11.3406964,0.00745270115 C13.2606588,-0.117602325 15.0173988,1.34533189 15.2703936,3.32734925 C15.4172939,4.47729659 15.2888145,5.77372364 14.3894587,6.79023237 C12.7775204,8.61226314 5.14850267,8.46578342 1.69984531,8.29997489 C0.743361709,8.25409809 0,7.43437055 0,6.43928652 C0.00023317494,5.8424224 0.27328103,5.28677754 0.736599635,4.93373579 L0.736599635,4.93373579 Z" fill="#FFFFFF"></path>
                                        <path d="M0.736599635,4.93373579 C1.36267435,4.45703627 2.36159579,3.74000755 3.55451878,3.00155413 C3.2138502,3.24467787 2.9095569,3.46823992 2.66775449,3.65244574 C2.20443588,4.00525462 1.93138803,4.56113236 1.93138803,5.15799647 C1.93138803,6.15308051 2.67474974,6.97280805 3.63123334,7.01868485 C6.37407016,7.15049331 11.7524833,7.26669901 14.6536459,6.39340972 C14.5655058,6.52591681 14.4999836,6.66541022 14.3896919,6.79023237 C12.7777535,8.61226314 5.14873585,8.46578342 1.70007849,8.29997489 C0.743594884,8.25409809 0.00023317494,7.43437055 0.00023317494,6.43928652 C0.00023317494,5.8424224 0.27328103,5.28654466 0.736599635,4.93373579 L0.736599635,4.93373579 Z" fill="url(#linearGradient-10)"></path>
                                    </g>
                                    <g>
                                        <path d="M14.585493,4.93373579 C12.7984402,3.57280176 8.07804673,0.27409703 3.98139621,0.00745270115 C2.06143376,-0.117602325 0.304693759,1.34533189 0.0516989495,3.32734925 C-0.0952012627,4.47729659 0.0332781293,5.77372364 0.932633873,6.79023237 C2.54457223,8.61226314 10.1735899,8.46578342 13.6222473,8.29997489 C14.5787309,8.25409809 15.3220926,7.43437055 15.3220926,6.43928652 C15.3218594,5.8424224 15.0488116,5.28677754 14.585493,4.93373579 Z" fill="#FFFFFF"></path>
                                        <path d="M14.585493,4.93373579 C13.9594182,4.45703627 12.9602636,3.74000755 11.7675738,3.00155413 C12.1082424,3.24467787 12.4125357,3.46823992 12.6543381,3.65244574 C13.1176567,4.00525462 13.3907046,4.56113236 13.3907046,5.15799647 C13.3907046,6.15308051 12.6473429,6.97280805 11.6908593,7.01868485 C8.94802243,7.15049331 3.56960927,7.26669901 0.668446666,6.39340972 C0.756586793,6.52591681 0.822108951,6.66541022 0.932400698,6.79023237 C2.54433906,8.61226314 10.1733567,8.46578342 13.6220141,8.29997489 C14.5784977,8.25409809 15.3218594,7.43437055 15.3218594,6.43928652 C15.3218594,5.8424224 15.0488116,5.28654466 14.585493,4.93373579 L14.585493,4.93373579 Z" fill="url(#linearGradient-11)"></path>
                                    </g>
                                </g>
                                <path d="M55.8295422,36.1860806 L41.2206659,36.1860806 L38.0588137,36.1860806 L23.4497042,36.1860806 C22.7692997,36.1860806 22.3141422,36.9135888 22.5899882,37.5598229 L26.1867116,45.9869481 C26.3375758,46.3402227 26.6745136,46.5679766 27.0464276,46.5679766 L38.0588137,46.5679766 L41.2204327,46.5679766 L52.2328188,46.5679766 C52.6047328,46.5679766 52.9416706,46.3402227 53.0925348,45.9869481 L56.6892582,37.5598229 C56.9653374,36.9135888 56.5099467,36.1860806 55.8295422,36.1860806 Z" id="Path" fill="url(#linearGradient-12)"></path>
                                <path d="M55.8297754,36.1860806 L53.1282105,36.1860806 C51.1065838,40.9228017 46.5888194,43.9765197 41.6026064,43.9765197 L38.179132,43.9765197 L35.017513,43.9765197 L25.328861,43.9765197 L26.1867116,45.9867152 C26.3375758,46.3399898 26.6745136,46.5679766 27.0464276,46.5679766 L38.0588137,46.5679766 L41.2204327,46.5679766 L52.2328188,46.5679766 C52.6047328,46.5679766 52.9416706,46.3402227 53.0925348,45.9869481 L56.6892582,37.5598229 C56.9653374,36.913356 56.5101799,36.1860806 55.8297754,36.1860806 L55.8297754,36.1860806 Z" id="Path" fill="url(#linearGradient-13)" opacity="0.5"></path>
                                <path d="M68.4440733,51.0240807 L10.8354063,51.0240807 L10.2699571,51.7473971 C9.86236726,52.2685761 10.2193581,53.0480159 10.865719,53.0480159 L39.6397398,53.0480159 L68.4139937,53.0480159 C69.0603547,53.0480159 69.4173455,52.2685761 69.0097557,51.7473971 L68.4440733,51.0240807 Z" id="Path" fill="url(#linearGradient-14)"></path>
                            </g>
                            <path d="M60.1426273,9.3559119 C60.1363737,8.00472768 59.2548573,6.81276762 57.9335091,6.33836845 L41.2328727,0.342561536 C39.957847,-0.115237168 38.5526551,-0.114068121 37.2783243,0.345367248 L20.6624579,6.33836845 C19.3369407,6.81650857 18.4588985,8.01548291 18.4529823,9.37157712 C18.4250831,16.1310054 20.027377,36.1619198 39.2551352,44.4027641 C39.2551352,44.4027641 39.2833919,44.4291846 39.2982151,44.4228717 C39.3130383,44.4291846 39.341295,44.4027641 39.341295,44.4027641 C58.5834133,36.1553732 60.1734317,16.0999087 60.1426273,9.3559119 Z" id="Path" fill="url(#linearGradient-15)"></path>
                            <path d="M38.1363534,39.2735924 C25.5208894,32.581609 23.4647461,19.4543922 23.2388633,13.1739982 C23.1934055,11.9078908 24.0252356,10.767837 25.2877427,10.3228191 L38.5321171,5.65628249 C39.2465536,5.40463959 40.0338632,5.40463959 40.7482998,5.65628249 L53.9919712,10.3230512 C55.254244,10.767837 56.0860741,11.9076587 56.0406163,13.1737661 C55.8156707,19.453928 53.7595275,32.5813769 41.1438291,39.2735924 C40.223661,39.7617889 39.0565215,39.7617889 38.1363534,39.2735924 Z" id="Path" fill="url(#linearGradient-16)"></path>
                            <path d="M37.9749383,27.3377516 C37.2760317,27.3377516 36.5771251,27.0771602 36.0436567,26.5562057 L32.9220606,23.5078346 C31.8551239,22.4666101 31.8551239,20.7771019 32.9220606,19.7358775 C33.9889974,18.6939685 35.7174535,18.6939685 36.7846239,19.7358775 L37.975172,20.8975855 L43.1782994,15.8171951 C44.2452362,14.7752861 45.9736923,14.7752861 47.0408627,15.8171951 C48.1077994,16.8584196 48.1077994,18.5479278 47.0408627,19.5891522 L39.9064537,26.5562057 C39.3727516,27.0771602 38.673845,27.3377516 37.9749383,27.3377516 Z" id="Path" fill="url(#linearGradient-17)"></path>
                            <path d="M57.9203813,6.34130252 L41.1222331,0.342636956 C39.8397628,-0.115146093 38.4263663,-0.11421041 37.1443619,0.345444006 C37.1443619,0.345444006 36.2229868,0.675974128 36.2225208,0.676208049 C36.715474,0.499363907 38.4471002,1.67902661 38.8445378,1.89727474 C40.8929959,3.02196605 42.7935214,4.43484782 44.4410473,6.09708919 C52.421251,14.1491117 52.5983041,29.8816906 45.2179844,38.4593332 C44.542154,39.2448393 39.5760468,44.5976495 38.4056325,44.067351 C38.6563024,44.1810365 38.876221,44.3143714 39.2193779,44.4238463 C58.574313,36.1727572 60.1733823,16.1077308 60.142631,9.36051858 C60.1363409,8.00869015 59.2494446,6.81592787 57.9203813,6.34130252 Z" id="Path" fill="url(#linearGradient-18)" opacity="0.3"></path>
                        </g>
                    </g>
                </g>
            </g>
        </g>
    </g>
</svg>