<?xml version="1.0" encoding="UTF-8"?>
<svg width="31px" height="31px" viewBox="0 0 31 31" version="1.1" xmlns="http://www.w3.org/2000/svg" xmlns:xlink="http://www.w3.org/1999/xlink">
    <title>Facebook_icon</title>
    <g id="Facebook_icon" stroke="none" stroke-width="1" fill="none" fill-rule="evenodd">
        <g id="iconfinder_Vector-2_4747497" fill="#3B5998" fill-rule="nonzero">
            <path d="M26.6367437,0 L4.36325046,0 C3.20605755,0 2.09623658,0.459695355 1.27797102,1.27796014 C0.459697723,2.0962443 0,3.20604485 0,4.36325606 L0,26.6367478 C0,27.7940171 0.459697723,28.9038177 1.27797102,29.7220244 C2.09623658,30.540231 3.20605755,31 4.36325046,31 L14.500265,31 L14.500265,19.6849943 L10.6678845,19.6849943 L10.6678845,15.2713865 L14.500265,15.2713865 L14.500265,12.0202599 C14.500265,10.1776965 15.0098283,8.74588325 16.0289547,7.72869524 C17.0480812,6.70956973 18.4295207,6.19806947 20.1751719,6.19806947 C21.9227995,6.19806947 23.0543011,6.26588201 23.5716143,6.39375707 L23.5716143,10.323009 L21.242736,10.323009 C20.4018598,10.323009 19.8283589,10.5012591 19.520296,10.8577593 C19.2141706,11.212322 19.0611078,11.7470722 19.0611078,12.4581351 L19.0611078,15.2713865 L23.4263016,15.2713865 L22.8450508,19.6849943 L19.0611078,19.6849943 L19.0611078,31 L26.6367437,31 C27.7940141,31 28.9038157,30.540231 29.7220232,29.7220244 C30.5404243,28.9038177 31,27.7940171 31,26.6367478 L31,4.36325606 C31,3.20604485 30.5404243,2.0962443 29.7220232,1.27796014 C28.9038157,0.459695355 27.7940141,0 26.6367437,0 Z" id="Path"></path>
        </g>
    </g>
</svg>