<?xml version="1.0" encoding="UTF-8"?>
<svg width="404px" height="290px" viewBox="0 0 404 290" version="1.1" xmlns="http://www.w3.org/2000/svg" xmlns:xlink="http://www.w3.org/1999/xlink">
    <title>graphic_non-owner</title>
    <defs>
        <path d="M34.5189952,2.90572337 C34.4979777,1.23640427 30.0572803,0.917009279 28.7992329,0.654949293 C26.4692929,0.171053879 24.217418,-0.304436404 21.851448,0.247900794 C19.7196731,0.746505188 17.6689657,1.76502699 15.6482832,2.59563407 C13.7567083,3.37370907 11.3757258,4.07553753 9.68231587,5.24325041 C8.19607841,6.2674757 7.76972342,8.18744782 7.13319344,9.78862533 C6.18950771,12.153469 5.09119324,14.4468691 3.95684877,16.7252601 C2.37633282,19.8990977 -1.80314707,24.5504373 0.874482356,28.0526754 C2.03434807,29.5692012 3.53679903,30.8882065 5.15064274,31.8331834 C8.90466839,34.0311252 13.3693858,34.0686481 16.1527032,36.2731939 C17.7710507,37.5561772 19.6356031,41.2721458 21.2509481,42.3236877 C24.986058,44.7539714 24.271463,42.0679316 24.4426055,39.6595613 C24.6287605,36.9954349 22.716168,31.3675991 22.0346005,28.8547651 C21.5001556,26.8846623 20.7195056,25.0361338 20.9326831,22.9576649 C21.3770531,18.5860961 24.805908,15.2543621 26.7935629,11.5425961 C27.7063229,9.83485355 28.0456054,7.41477611 29.3516928,5.9805005 C30.4866378,4.73023722 34.5700377,6.67692566 34.5189952,2.90572337" id="path-1"></path>
        <linearGradient x1="-0.000335595241%" y1="50.0001337%" x2="99.9995828%" y2="50.0001337%" id="linearGradient-3">
            <stop stop-color="#D35844" offset="0%"></stop>
            <stop stop-color="#EB816E" offset="100%"></stop>
        </linearGradient>
        <path d="M9.75512224,3.48171749 C9.02251226,3.08097284 7.79148729,2.13089282 5.78881985,2.2029368 C2.57314243,2.31550552 1.06888997,3.48652042 0,4.34654546 C0.252209993,4.05806934 0.447372488,3.69334668 0.567472485,3.22536098 C0.636529983,2.96840411 0.666554982,2.72075292 0.675562482,2.47340192 C1.50425246,1.38823944 2.69324243,0.375120935 5.26638486,0.0281090866 C7.00783481,-0.206033856 8.68923477,1.06824408 9.65303724,2.15340656 C9.63502224,2.66671994 9.68005974,3.09928401 9.75512224,3.48171749" id="path-4"></path>
        <linearGradient x1="0%" y1="49.998756%" x2="100.000308%" y2="49.998756%" id="linearGradient-6">
            <stop stop-color="#D35844" offset="0%"></stop>
            <stop stop-color="#EB816E" offset="100%"></stop>
        </linearGradient>
        <path d="M34.736208,59.3114098 C34.5770755,56.5671344 33.4121055,53.7748298 30.9050181,52.2210812 C28.5000157,50.7306713 25.2723283,50.8549472 23.9452233,48.056939 C22.6361333,45.3060596 22.1317133,41.5516676 21.8044408,38.564544 C21.3900959,34.8029476 21.6062759,30.9963237 22.3208708,27.2839573 C23.0204533,23.6442353 24.1463908,20.0960692 24.8399683,16.454546 C25.1222033,14.9725413 25.2573158,13.4854334 25.3594008,11.9821157 C25.4224532,11.111284 26.2541457,7.40942406 25.6116107,6.80815699 C24.5066908,5.77312511 20.2251259,10.3776361 19.1772534,11.2820883 C16.8893485,13.2611965 16.4750035,15.5173739 11.5959411,15.2736251 C9.44014618,15.1661595 5.77109127,14.7125826 8.04098121,11.8293224 C9.04081369,10.5622488 10.8393111,9.5479296 12.2294686,8.78066119 C14.1390586,7.72671776 15.1358885,7.37700427 15.745396,5.19377142 C16.069666,4.03296276 16.261826,2.0418472 16.1687485,1.57356131 C16.099691,1.23525478 16.1387235,0.381533588 14.814621,0.0531331024 C13.8267986,-0.192416804 12.4096186,0.462282885 11.2686686,1.01011733 C9.06483369,2.07006442 9.07684369,3.40047663 8.80061369,5.39099182 C8.6594962,6.4152171 8.5754262,7.46765961 8.14306621,8.21451556 C4.9363963,13.7586002 -2.41972851,17.1356618 0.795948907,24.5651975 C2.17409637,27.7441382 4.56408631,29.208132 4.8613338,32.6701455 C5.14657129,36.0102847 4.14673882,40.7099538 4.59711381,44.0957207 C4.8493238,45.9805714 5.30870629,47.9527754 5.07751379,49.8649428 C4.8883563,51.4228939 4.45599631,52.6791609 4.45599631,54.3394745 C4.45599631,58.374838 7.58760373,58.1809196 11.1005286,58.9238732 C12.3675836,59.1925372 18.8860109,61.1104081 24.7528958,61.4877384 C30.0493056,61.8281462 34.8172755,60.728575 34.736208,59.3114098" id="path-7"></path>
        <linearGradient x1="65.0191605%" y1="17.6481182%" x2="40.0869067%" y2="94.1476777%" id="linearGradient-9">
            <stop stop-color="#ECECEC" offset="0%"></stop>
            <stop stop-color="#FFFFFF" offset="100%"></stop>
        </linearGradient>
        <path d="M12.3103381,3.84781313 C12.316298,3.36902083 11.7218031,3.50290256 10.8180506,2.62336561 C10.3046231,2.12386067 10.0584181,1.20229806 9.91730061,0.484559886 C9.81221312,-0.0563703474 9.34082063,-0.232878104 9.19970313,0.419420119 C8.50312315,3.6151711 7.06492569,6.64131854 5.65975573,9.59842383 C4.52781326,11.9806782 2.9965383,14.1561063 1.94866583,16.5806864 C1.00588085,18.7639193 0.909800855,20.9987837 0.411385868,23.2855797 C0.219225873,24.1609141 -0.147079117,29.4570474 0.0630958771,31.220624 C0.132153375,31.7951748 0.819725857,30.4257387 0.801710857,29.8448841 C0.792703358,29.4813622 2.13782332,23.2507585 2.68728081,22.075541 C3.41688829,20.5229932 4.45575326,19.2763321 5.43757073,17.8900858 C7.36217318,15.1755286 9.04657564,12.221125 10.4907781,9.22829787 C10.6889431,8.8224501 10.2625881,8.66845609 9.94132061,8.56909543 C9.55099562,8.44902213 8.75533314,8.20107075 8.15483316,8.05067894 C9.16967813,7.65773905 10.2685931,7.50494578 11.3164656,7.15943484 C12.0580831,6.91508567 12.2952806,4.93117451 12.3103381,3.84781313" id="path-10"></path>
        <linearGradient x1="0.000352377145%" y1="49.9998691%" x2="99.9915851%" y2="49.9998691%" id="linearGradient-12">
            <stop stop-color="#D35844" offset="0%"></stop>
            <stop stop-color="#EB816E" offset="100%"></stop>
        </linearGradient>
        <path d="M38.6428385,45.6007502 C38.6534576,41.1352241 38.2123904,35.506788 34.834578,26.2011069 C33.0285743,21.2264699 28.3041406,13.8560704 27.4784532,10.5165316 C26.7242252,7.46727005 26.8188039,3.9374151 25.3947182,1.0235362 C24.644994,-0.510700434 17.9956577,0.600878175 15.993891,0.535438225 C12.7674046,0.430674267 5.249445,-0.7838672 3.98389129,0.835621484 C2.29588583,2.99574022 1.80167435,5.78774472 2.44691158,8.34920847 C3.12487606,11.0394508 5.63946974,12.1342192 8.05077743,12.9252021 C10.6683569,13.7837262 14.4965443,14.2358022 16.5832817,16.1002404 C17.6770924,17.0773369 18.1977259,18.6277835 18.7988264,19.9200724 C19.7208941,21.9018823 20.6357558,23.8872943 21.5545208,25.8709053 C23.3620258,29.7741882 25.169831,33.6774712 26.9764352,37.5813545 C28.3939154,40.6450248 30.3827713,44.1199462 26.3450094,45.9939903 C22.8885315,47.5981696 18.9699689,48.2465655 15.6005635,49.9843264 C12.7935263,51.43181 10.6248206,53.8680974 8.07719943,55.6929114 C6.98789246,56.4730877 5.83763474,57.1824208 4.56907852,57.6320953 C3.51400005,58.0064238 1.14112436,57.8203102 0.508497631,58.490019 C-0.19949185,59.2389763 0.00978239404,61.7821288 0.100157642,62.7499197 C0.234369388,64.1859964 0.666729376,66.1413901 1.78786285,67.1524073 C3.16811206,68.3975675 4.27333228,66.7840825 5.68901099,66.0096097 C7.48660769,65.0262093 9.34935864,64.2748506 11.0616843,63.1347546 C14.5764108,60.7936254 18.4958741,59.630115 22.6053958,58.7505781 C26.7053094,57.8731424 30.6875251,56.3599186 34.4217342,54.3432875 C36.4168954,53.2662299 37.1188799,52.7090898 37.7758269,50.6105087 C38.3318899,48.8343243 38.6378446,47.5966687 38.6428385,45.6007502" id="path-13"></path>
        <linearGradient x1="50.0004462%" y1="0.000312788973%" x2="50.0004462%" y2="100.0001%" id="linearGradient-15">
            <stop stop-color="#D35844" offset="0%"></stop>
            <stop stop-color="#EB816E" offset="100%"></stop>
        </linearGradient>
        <path d="M34.3999097,40.1009232 C33.0205612,37.8216317 32.0585603,33.2852623 31.9937063,31.1134364 C31.9543735,29.7995343 32.0360415,28.6672431 31.5871678,27.3923648 C31.1968428,26.283788 30.1862013,25.0527364 30.1333573,23.8721157 C30.0417811,21.8344717 31.6316048,19.8835807 31.426534,17.7258634 C31.2100538,15.4462718 29.6928906,13.5854357 28.5633501,11.690679 C27.1686889,9.35105068 26.3291899,6.73675467 24.8717765,4.42804522 C24.2007177,3.3650963 23.4588,2.21299295 22.5994845,1.28482631 C21.6566996,0.266304515 21.4381176,0.440710989 20.3121801,1.09330939 C17.9038749,2.48886137 17.9323986,4.37041004 17.7396382,7.04414233 C16.7004729,5.23944057 16.5200227,3.00247493 14.722426,1.78373089 C13.1277983,0.702770974 11.8301178,0.757704511 10.1159906,0.920103654 C8.5531894,1.06779382 7.39722693,0.295722474 5.92269922,0.0573769665 C4.44937251,-0.180968542 4.14581977,0.338348497 3.20903979,1.33465674 C2.8589483,1.70718416 2.61454481,2.090218 2.11162607,2.27362997 C1.62071734,2.45253919 0.859883856,2.10972991 0.469859116,2.39310291 C-0.500849108,3.09883375 0.266890122,5.03561614 0.68724011,5.77886989 C1.44717284,7.12068906 2.65327706,8.15812241 3.50688779,9.43840401 C4.70668675,11.2383028 5.65337498,13.304164 6.34394996,15.348412 C7.81307317,19.6995684 7.10118044,22.8202735 5.73444248,27.0492553 C5.13394249,28.90799 5.07629449,30.7144929 4.86942225,32.6419696 C4.672158,34.4790911 3.90892252,35.8593338 3.29491129,37.5739806 C2.62835631,39.4354169 2.8073053,41.1116403 3.0853368,43.0319126 C3.35255929,44.87864 3.40119979,46.7064559 3.55913128,48.5666915 C3.64139978,49.5368838 3.42281779,53.0346191 4.887137,52.660891 C6.48416671,52.2532421 7.29964568,48.3181398 7.99172192,47.0903902 C9.06151264,48.4493199 9.02217989,50.3293676 10.0805611,51.7015053 C11.1980916,53.1501897 13.206764,53.9666882 14.87135,54.5451413 C18.0621066,55.6540183 22.0166993,56.1832414 25.2996327,55.1701229 C28.4381459,54.2011313 31.4715715,51.8777129 33.8120202,49.6320419 C34.8355724,48.6504426 36.2632612,47.2924136 36.6679981,45.8821526 C37.2129519,43.9843941 35.3841292,41.7276163 34.3999097,40.1009232" id="path-16"></path>
        <linearGradient x1="63.2596232%" y1="9.15536578%" x2="31.4173579%" y2="92.7039245%" id="linearGradient-18">
            <stop stop-color="#ECECEC" offset="0%"></stop>
            <stop stop-color="#FFFFFF" offset="100%"></stop>
        </linearGradient>
        <path d="M17.8465209,49.6289942 C17.4390817,47.8591137 16.3930107,46.3173725 15.8657717,44.5862156 C15.2673735,42.6206157 14.9367982,40.5748667 14.36242,38.594858 C13.241887,34.7311992 12.4032888,30.7714819 11.6373511,26.9147273 C10.9134483,23.2684013 12.9614535,20.3088945 11.1650578,16.9300318 C9.45753614,13.7192716 6.57573671,10.324199 4.84659701,7.10143148 C4.51632202,6.48575561 1.24029436,-1.25296882 0.0368923895,0.175603315 C-0.310797101,0.588355297 1.90504784,2.63590531 2.24042708,3.27229382 C3.07902531,4.86176418 3.50628105,6.6079302 4.41393677,8.18419249 C6.19501972,11.2760801 9.23745289,14.4985474 10.6396204,17.7930586 C11.3007708,19.3471074 11.1077101,20.8291121 11.0149328,22.4834221 C10.8966343,24.5895078 10.7813384,25.7217991 11.1743656,27.759443 C11.9625218,31.8455376 12.8788848,36.4254335 14.0234378,40.5925776 C14.5996175,42.6905584 14.870443,44.7684269 15.7612847,46.7778536 C16.117081,47.5805436 16.389708,48.7533596 16.8620012,49.4641936 C16.9571804,49.6070808 18.1200487,50.8156186 17.8465209,49.6289942" id="path-19"></path>
        <linearGradient x1="50.0005731%" y1="100.000215%" x2="50.0005731%" y2="0.000590860748%" id="linearGradient-21">
            <stop stop-color="#DADADA" offset="0%"></stop>
            <stop stop-color="#C5C5C5" offset="100%"></stop>
        </linearGradient>
        <path d="M42.0956596,12.6643018 C42.0055846,9.53939403 42.2541916,4.74516719 40.8652352,1.8580046 C39.6705404,-0.625111321 35.2847888,0.00347242395 33.1518129,0.276038824 C28.9729335,0.810665209 25.6359551,2.00419385 21.5360414,2.90264234 C17.2520745,3.84191576 12.8341962,3.35051577 8.53131353,3.52162022 C5.38289211,3.64709683 2.80374468,6.61921128 1.74596396,9.52618596 C1.04548073,11.4515614 1.68411246,12.9206583 2.46956644,14.697443 C3.30125892,16.5789916 3.70179241,18.3407672 3.51473666,20.4063282 C3.13011642,24.6560226 1.67300321,28.7151006 1.86246096,33.0287341 C1.94743171,34.9673176 2.3035282,36.8830871 2.40771494,38.8201697 C2.52301094,40.956574 2.0182907,43.0710648 2.14289445,45.2011653 C2.2344707,46.7681219 3.01331918,48.118046 2.82536268,49.6967097 C2.72628019,50.5306188 2.38549644,51.2789757 2.35697269,52.1338976 C2.32724795,53.0257421 2.58996669,53.888769 2.50259394,54.7842156 C2.3389577,56.4628404 1.34362897,57.9622558 0.956606732,59.5922509 C0.446481996,61.7427638 0.483112495,64.0766886 0.524546994,66.2701277 C0.609217492,70.7236465 1.10853323,75.1606553 1.00614798,79.6186769 C0.908566734,83.8617672 0.214088502,88.0442206 0.00511450778,92.2729022 C-0.120389989,94.814854 2.0747377,95.9063203 5.39670361,96.3908161 C9.25311451,96.9536597 12.9332787,96.9029288 12.9020527,94.0577918 C12.8756307,91.6365137 12.7002847,90.2538696 12.5261397,88.0640327 C12.2252892,84.2808231 12.9017524,80.5393389 13.0782994,76.7678364 C13.3097922,71.8172141 13.1881909,66.9368347 13.8067059,61.9979195 C14.1084571,59.5883485 14.5378146,57.2316097 15.1440194,54.8808746 C15.7132933,52.6724264 15.2704246,50.5777476 15.6556453,48.3674983 C16.0171463,46.2938323 16.3546273,44.1937502 16.7485553,42.1284894 C17.180615,39.8636067 18.2678203,37.7845375 19.0694877,35.6400283 C19.8774605,33.4775081 20.6220805,31.2558517 21.1637314,29.0098806 C21.6141064,27.1406394 21.7918544,25.0666733 23.0123706,23.4964147 C24.8721191,24.7379726 24.5718691,27.3090423 24.6304178,29.2356184 C24.7195921,32.1699098 25.5209593,35.1189101 25.1507511,38.0592051 C24.8240791,40.6542894 23.4459316,43.1001826 23.6927371,45.76581 C23.9464484,48.5049822 25.6833946,50.8464116 26.0049623,53.5837828 C26.3175226,56.2440068 27.0405245,58.5851361 26.9339358,61.2957909 C26.8102328,64.4435125 26.6150703,67.5804276 26.7910168,70.7302506 C27.1342025,76.8777035 28.401858,82.9447074 28.0986055,89.122779 C27.9968208,91.1985463 27.7650278,93.4114973 29.8193382,94.6386464 C31.6514637,95.7325142 34.0675753,95.342276 36.032111,94.9007064 C38.5406997,94.3360617 39.400916,93.6768593 39.1802322,90.9968231 C38.9367295,88.0430199 39.3441687,85.3854975 39.7341934,82.4503056 C40.1386302,79.4055467 40.1095059,76.4784598 39.8323752,73.4267968 C39.541433,70.2202392 40.1095059,67.2949533 40.1266202,64.1367253 C40.1347269,62.675133 39.5543437,61.4203669 39.3363622,60.0029016 C39.1436017,58.7493363 39.2444857,57.4729571 39.2685057,56.2118872 C39.2925257,54.9313054 39.32165,53.6228066 39.0448195,52.3635378 C38.706738,50.8238979 37.5720933,49.8284902 37.1760635,48.3855093 C36.848791,47.1940819 37.3967473,46.1356357 37.898465,45.0891969 C38.5917422,43.6435143 39.0217002,42.4262712 39.1300905,40.7908728 C39.325253,37.8484765 38.6559957,34.9141851 39.0580305,31.9768919 C39.4858867,28.8552862 40.8201977,25.9480114 41.3855684,22.8552232 C41.9965771,19.5114819 42.1929406,16.0578735 42.0956596,12.6643018" id="path-22"></path>
        <linearGradient x1="34.3768322%" y1="72.2019651%" x2="66.0535431%" y2="30.2349839%" id="linearGradient-24">
            <stop stop-color="#2F5B85" offset="0%"></stop>
            <stop stop-color="#244666" offset="100%"></stop>
        </linearGradient>
        <path d="M8.06850524,41.2572104 C7.63644551,38.7314684 6.89272628,36.0364231 6.86570378,33.4728581 C6.84198403,31.2217838 6.82366878,29.8427419 5.9649538,27.7129417 C4.98523808,25.2823578 3.26210337,23.1396497 3.84608961,20.4229912 C4.54777384,17.1599992 2.72735814,15.3141723 1.43688367,12.4951514 C-0.536059026,8.18512011 4.12682335,4.65886736 2.76338814,0.320318716 C2.58654089,-0.242524896 1.71641641,-0.00207810496 1.89476491,0.565568439 C3.15641538,4.58051953 -1.08791851,7.89424254 0.272213953,12.0118563 C0.770929189,13.5208776 1.75664991,14.7837485 2.45983539,16.1889064 C3.05853388,17.3851366 3.33506412,18.5129252 3.06604013,19.8553447 C2.89279588,20.7219738 2.60785864,21.4009883 2.69102789,22.306341 C2.84295438,23.9657541 3.9848051,25.4378528 4.64475459,26.9162553 C5.19030882,28.1386016 5.79050856,29.4380949 6.00308555,30.7763119 C6.21175929,32.090214 5.89739755,33.4266299 6.06073355,34.7672483 C6.64141703,39.5380608 7.67757975,44.2926635 8.48765423,49.0283546 C8.58733723,49.612211 9.45566021,49.3645598 9.35627746,48.7831049 C8.92691997,46.2744734 8.49786273,43.7658419 8.06850524,41.2572104" id="path-25"></path>
        <linearGradient x1="49.9988562%" y1="100.00035%" x2="49.9988562%" y2="0.000107768095%" id="linearGradient-27">
            <stop stop-color="#DADADA" offset="0%"></stop>
            <stop stop-color="#C5C5C5" offset="100%"></stop>
        </linearGradient>
    </defs>
    <g id="graphic_non-owner" stroke="none" stroke-width="1" fill="none" fill-rule="evenodd">
        <g id="People_19-01" transform="translate(42.000000, 13.000000)">
            <g id="Group-13" transform="translate(0.000000, 1.595475)" fill-rule="nonzero">
                <path d="M227.63793,159.202994 C227.626101,159.431309 227.612301,159.659625 227.597514,159.886262 C227.567942,160.365836 227.535084,160.844851 227.49894,161.323307 C227.489082,161.465445 227.478239,161.607302 227.46641,161.74888 C227.389522,162.727616 227.298176,163.704392 227.192372,164.67921 L227.180543,164.801762 L227.180543,164.801762 C227.053711,165.97076 226.906506,167.1378 226.738929,168.302881 C226.718228,168.45649 226.696542,168.608421 226.673869,168.76203 C226.63444,169.030637 226.592381,169.298684 226.547694,169.566171 C225.860548,173.741708 224.671408,177.846078 222.999005,181.81463 C220.291967,188.242323 216.398682,194.261359 211.465766,199.64507 C206.966214,204.578724 201.620855,208.908061 195.609042,212.487821 C194.335457,213.243277 193.049386,213.948649 191.750828,214.603937 C191.553679,214.704105 191.358172,214.802315 191.164309,214.898565 C190.51963,215.217536 189.871666,215.525314 189.220416,215.8219 C188.772887,216.025594 188.324701,216.223691 187.875857,216.416192 C174.931029,221.982224 160.941309,223.324418 146.686423,223.504048 C141.683757,223.565324 136.650534,223.485581 131.616324,223.393248 C120.345294,223.187596 109.001319,222.77881 97.9688397,220.715576 C96.9732353,220.52923 95.9796024,220.328895 94.987941,220.114569 C94.7139034,220.055811 94.43888,219.995375 94.1658281,219.93326 C94.1027403,219.91899 94.0396525,219.90556 93.9775505,219.89045 C90.6468064,219.128869 87.378559,218.18138 84.1940125,217.054133 C82.5096996,216.459281 80.8556163,215.815745 79.2317626,215.123523 C77.7255413,214.486142 76.2469209,213.80959 74.7959015,213.093865 C69.7275487,210.592472 64.9797533,207.647295 60.6297328,204.306233 C58.8199015,202.920111 57.0784153,201.470755 55.4052742,199.958164 C54.6232484,199.254191 53.8586373,198.536228 53.1114412,197.804276 C53.1114412,197.804276 53.1114412,197.804276 53.1114412,197.804276 C51.9765179,196.698512 50.880696,195.566167 49.8239753,194.407242 C48.5234465,192.982508 47.281734,191.520001 46.0988377,190.019722 C44.6320463,188.159621 43.2579152,186.247478 41.9764442,184.283293 C40.6949732,182.319107 39.5120769,180.311833 38.4277554,178.261469 C38.3538243,178.123808 38.2818648,177.986987 38.210891,177.849326 C38.1556892,177.744401 38.1024589,177.639477 38.0492285,177.535392 C37.6845022,176.827502 37.3332477,176.115415 36.9954651,175.39913 L36.9954651,175.39913 C36.6162811,174.600026 36.2518834,173.795325 35.9022718,172.985029 C35.7708389,172.688442 35.645649,172.391017 35.5267022,172.092751 C33.106236,166.276059 31.5056723,160.235145 30.7586445,154.096951 C30.3548213,150.774419 30.2151842,147.432444 30.3406878,144.093874 C30.3406878,144.062817 30.3406878,144.03092 30.3406878,143.999862 C30.4271813,141.657954 30.7267602,139.325279 31.2367317,137.022807 C31.8559191,134.215586 32.8220684,131.472008 34.1190557,128.837861 L34.1190557,128.837861 C37.2162724,122.563379 42.1450069,117.170263 48.6864234,112.843179 C58.7863861,106.166627 72.0407389,103.674462 80.0282461,94.3764778 C90.3164865,82.400822 78.7142454,70.3764811 83.295997,57.6948936 C89.8709289,39.5001564 115.474719,38.4651817 132.747962,40.0424059 C133.213234,40.0843756 133.67555,40.1263454 134.140822,40.1767091 C155.736565,42.3448678 178.075562,50.0186216 193.307323,65.1067561 C204.814932,76.5082654 213.229268,90.4019401 218.873654,105.183695 C220.500137,109.435233 221.895954,113.761478 223.068007,118.122977 C224.514351,123.505484 225.636935,128.947378 226.431376,134.427396 C226.480663,134.763154 226.528308,135.098912 226.574309,135.43467 C226.756344,136.7542 226.918992,138.076248 227.062254,139.400814 C227.11647,139.8927 227.167729,140.387104 227.214059,140.880668 C227.302119,141.769308 227.379007,142.658788 227.444724,143.549107 C227.85392,148.759852 227.918424,153.986077 227.63793,159.202994 L227.63793,159.202994 Z" id="Path-Copy-2" fill="#F4F4F5" transform="translate(129.052554, 131.525581) scale(-1, 1) rotate(-120.000000) translate(-129.052554, -131.525581) "></path>
                <path d="M210.464985,230.71808 C216.899837,225.001374 222.952106,213.010649 217.322035,204.839727 C213.086466,198.691188 205.550276,199.359287 200.190729,203.457182 C194.202979,208.040043 190.45639,216.156702 190.45639,223.641438 C190.45639,236.178173 202.126278,238.130467 210.464985,230.71808 Z" id="Path-Copy-3" fill="#ECEDEF"></path>
            </g>
            <path d="M233.949696,258.934407 C215.541369,258.934407 200.329203,260.482152 196.622317,260.200881 C193.694579,259.979045 180.995806,258.596701 165.3747,258.596701 C151.040165,258.596701 139.072801,260.234201 134.983095,260.515473 C129.181365,260.914416 114.961225,259.159545 98.2811369,259.159545 C76.5049057,259.159545 58.8517074,260.11743 58.8517074,261.298351 C58.8517074,262.479872 76.5049057,263.438657 98.2811369,263.438657 C114.961225,263.438657 129.181365,262.250232 134.983095,262.649175 C139.072801,262.931348 151.040165,264 165.3747,264 C180.995806,264 193.694579,261.997778 196.622317,261.775642 C200.329203,261.494671 215.541369,263.663795 233.949696,263.663795 C254.994218,263.663795 272.057425,262.604148 272.057425,261.298351 C272.057425,259.993154 254.994218,258.934407 233.949696,258.934407" id="Fill-3" fill="#D9CAC4"></path>
            <path d="M285.325472,75.4461894 C285.055247,74.126884 284.64991,71.3937154 280.73465,67.6741446 C279.788863,66.7747956 278.1525,65.7211524 276.597205,65.0040146 C274.62156,64.0950596 273.26443,63.8753255 272.08745,61.4258301 C268.739663,54.4594772 264.23291,56.0390415 259.897301,58.8337477 C257.597386,60.316653 254.723993,60.5703078 252.042761,59.7652163 C249.589718,59.0282664 247.403898,57.9611149 244.671623,58.9958466 C241.891309,60.0488895 242.137514,61.5879291 239.831594,63.0864439 C237.982054,64.2883777 235.907326,64.6780155 234.841439,67.0959917 C233.499321,70.1368481 234.796401,75.0025186 238.996899,75.6827338 C240.993561,76.0060312 242.828089,75.6193952 244.515493,76.9203894 C245.917661,78.0019497 246.629253,79.6628637 247.478961,81.1211539 C250.082128,85.5773744 251.604396,86.4761231 256.603558,85.0784698 C258.342006,84.5924732 260.197551,83.8765361 262.302303,84.5624548 C265.007555,85.4431925 265.27778,87.2436917 266.679948,89.1693673 C269.126985,92.5311196 274.51347,91.6692935 276.251918,87.833852 C276.972518,86.2494847 278.203543,83.8417148 280.83073,82.8685207 C281.800537,82.5098017 282.758335,82.1288691 283.599035,81.483175 C285.475597,80.0425955 285.736815,77.4724264 285.325472,75.4461894" id="Fill-4" fill="#634E42"></path>
            <path d="M282.647242,72.8676152 C282.72831,68.316837 279.55767,66.3668466 276.597205,65.0040146 C274.62156,64.0950596 273.26443,63.8753255 272.08745,61.4255299 C268.739663,54.4594772 264.23291,56.0390415 259.897301,58.8337477 C257.597386,60.316653 254.723993,60.5703078 252.042761,59.7652163 C249.589718,59.0282664 247.403898,57.9611149 244.671623,58.9958466 C241.891309,60.0488895 242.137514,61.5879291 239.831594,63.0864439 C237.982054,64.2883777 235.907326,64.6780155 234.841439,67.0959917 C233.499321,70.1368481 235.595066,69.5361814 236.309661,69.0108607 C237.937016,67.8119288 239.873629,60.3322625 246.611238,62.2567374 C249.172371,62.9885842 250.361361,65.0157217 251.481293,66.2809941 C254.267613,69.4329184 257.216068,68.6632485 261.341503,65.5152266 C266.652925,61.4627526 268.661598,63.9143493 270.349003,66.5661682 C272.240578,69.5328794 273.717808,72.7274296 276.477105,69.5454871 C279.236403,66.3656458 282.578185,76.8762625 282.647242,72.8676152" id="Fill-5" fill="#8A6C5B"></path>
            <path d="M220.789739,36.4195776 C219.312509,36.4088574 219.825937,37.4102688 221.882649,39.9753347 C222.840447,41.1670623 223.182732,42.6418626 223.320847,44.026608 C222.486152,43.3644037 222.245952,40.6876696 221.306169,40.6006165 C220.612592,40.5369776 221.264134,42.8129671 221.498329,46.9981221 C221.630439,49.2987266 223.290822,50.072599 223.735192,51.6191432 C224.368719,53.8161845 225.863964,56.7339658 227.797574,54.8085903 C228.662294,53.9476647 227.539359,51.1610635 227.596406,49.3254429 C227.653454,47.4898223 227.869634,46.7546735 227.785564,45.6782163 C227.650451,43.9683725 227.533354,41.8340695 226.485481,40.0837009 C225.731854,38.8262332 224.810086,37.2568752 223.332857,36.8579316 C222.576227,36.653807 221.771557,36.4268684 220.789739,36.4195776" id="Fill-6" fill="#FFD2A8"></path>
            <path d="M248.115491,226.989806 C247.833256,225.311481 246.656276,224.681396 245.905651,223.299353 C243.233426,218.389555 242.236596,213.447038 242.008406,209.975118 C241.798231,206.820192 242.020416,203.752019 241.714161,200.397471 C241.407906,197.032417 239.564371,194.308854 239.116999,190.880161 C238.693646,187.599458 238.576549,184.302846 238.009076,181.036551 C237.591729,178.634485 237.387559,174.464639 235.574049,172.595698 C233.472299,170.429276 227.695489,169.194622 224.786066,169.553641 C223.182732,169.751462 222.035777,169.997912 222.309004,171.654924 C222.579229,173.28642 224.065467,176.003079 224.587901,177.551124 C225.152371,179.229448 225.107334,180.953401 225.071304,182.700167 C225.011254,185.591832 225.206416,188.200425 226.686649,190.768193 C227.551369,192.263405 228.280976,193.479448 228.788399,195.143063 C229.241776,196.615762 229.779224,199.196738 230.304661,200.622609 C232.655619,207.004805 236.189561,212.223191 237.660786,218.821219 C238.351361,221.926915 237.912996,225.018202 237.828926,228.195342 C237.780886,229.918093 237.729844,231.640845 237.654781,233.362396 C237.603739,234.5148 237.946024,238.117899 237.297484,238.990832 C236.588894,239.943914 233.508329,240.100309 233.901656,241.929026 C234.192899,243.286455 236.114499,243.005483 237.027259,242.592731 C238.195231,242.065009 238.864789,241.011366 239.336181,239.856561 C240.354029,237.36564 241.179716,235.041021 243.794893,233.548209 C246.001731,232.290742 248.688968,230.418199 248.115491,226.989806" id="Fill-7" fill="#F2A57E"></path>
            <path d="M252.276956,236.968798 C249.989051,234.036608 251.883628,229.875467 250.148183,226.697127 C249.649768,225.783969 247.938343,223.296051 246.803398,223.330572 C245.713491,223.363292 245.851606,224.927547 245.602398,225.831098 C244.722666,229.021746 243.665786,233.323672 241.624086,235.992302 C239.774546,238.41358 236.048444,238.346939 233.961706,240.540978 C231.382559,243.256736 233.868629,244.111658 237.348526,243.717218 C240.495146,243.3606 243.161366,242.314461 244.467453,239.330339 C245.076961,237.93959 245.386218,236.440475 245.929671,235.026012 C246.425083,233.731021 246.857443,231.816452 248.454773,232.659067 C249.478626,233.199697 249.823913,234.844401 250.292303,235.800184 C250.466448,236.155601 251.021911,237.638206 251.466281,237.794602 C251.931668,237.960003 252.820408,237.668525 252.276956,236.968798" id="Fill-8" fill="#1D71B8"></path>
            <path d="M236.609911,84.6762243 C237.069294,84.1515039 237.255449,82.7067219 236.814081,81.3090687 C236.342689,79.8156569 235.201739,79.0669999 235.483974,76.3842621 C235.661121,74.700234 234.018754,72.6619897 233.682474,71.0560092 C233.352199,69.4884523 232.721674,67.24068 232.367379,65.6902335 C231.983059,63.9965995 230.508831,59.8903927 229.890316,58.2606978 C229.403911,56.9789153 228.356039,51.9706578 227.821594,50.4793474 C227.344196,49.1429315 221.047954,52.0907311 221.020932,53.8176854 C221.008922,54.7614616 222.462132,56.1387024 222.759379,57.2475793 C223.191739,58.8568618 223.497994,62.3179748 223.720179,63.9656807 C223.960379,65.7655795 225.281479,71.4543524 225.485649,73.2104245 C225.680811,74.8806442 226.812754,76.2936068 226.359376,78.0436752 C225.969051,79.5523962 224.834106,79.9441354 223.525017,80.4409387 C221.636444,81.1586768 219.925019,82.1660919 218.219599,83.2404478 C217.162719,83.9086557 209.734534,88.0751993 211.229779,88.9355245 C212.160554,89.471952 216.370059,86.4878303 217.366889,86.0969916 C219.489657,85.2630826 221.738529,84.5882706 223.966384,84.0941689 C226.095156,83.6222809 228.016756,83.6213803 230.142526,84.0914673 C231.088314,84.3012954 235.730179,85.6788364 236.609911,84.6762243" id="Fill-9" fill="#FC8E74"></path>
            <g id="Group-12" transform="translate(201.958806, 82.540171)">
                <mask id="mask-2" fill="white">
                    <use xlink:href="#path-1"></use>
                </mask>
                <g id="Clip-11"></g>
                <path d="M34.5189952,2.90572337 C34.4979777,1.23640427 30.0572803,0.917009279 28.7992329,0.654949293 C26.4692929,0.171053879 24.217418,-0.304436404 21.851448,0.247900794 C19.7196731,0.746505188 17.6689657,1.76502699 15.6482832,2.59563407 C13.7567083,3.37370907 11.3757258,4.07553753 9.68231587,5.24325041 C8.19607841,6.2674757 7.76972342,8.18744782 7.13319344,9.78862533 C6.18950771,12.153469 5.09119324,14.4468691 3.95684877,16.7252601 C2.37633282,19.8990977 -1.80314707,24.5504373 0.874482356,28.0526754 C2.03434807,29.5692012 3.53679903,30.8882065 5.15064274,31.8331834 C8.90466839,34.0311252 13.3693858,34.0686481 16.1527032,36.2731939 C17.7710507,37.5561772 19.6356031,41.2721458 21.2509481,42.3236877 C24.986058,44.7539714 24.271463,42.0679316 24.4426055,39.6595613 C24.6287605,36.9954349 22.716168,31.3675991 22.0346005,28.8547651 C21.5001556,26.8846623 20.7195056,25.0361338 20.9326831,22.9576649 C21.3770531,18.5860961 24.805908,15.2543621 26.7935629,11.5425961 C27.7063229,9.83485355 28.0456054,7.41477611 29.3516928,5.9805005 C30.4866378,4.73023722 34.5700377,6.67692566 34.5189952,2.90572337" id="Fill-10" fill="url(#linearGradient-3)" mask="url(#mask-2)"></path>
            </g>
            <path d="M248.046433,83.2788712 C248.379711,81.9277464 246.154858,84.9022623 243.317496,85.3333254 C241.810241,85.5623653 240.378049,84.9346821 239.192061,84.0056149 C237.318501,82.53982 237.873964,79.0853111 236.802071,80.3334731 C236.114499,81.13106 236.324674,84.928078 235.979386,87.8941888 C235.736184,89.9954716 234.769379,91.6936083 234.018754,92.2375404 C233.235101,92.8054871 231.166379,93.8288119 230.283644,94.374545 C228.752369,95.3216232 225.218426,97.2259858 227.395239,99.2408158 C228.638274,100.392919 232.616586,100.95066 234.168879,100.586537 C237.255449,99.8621952 238.390394,97.2433964 240.729341,95.4362932 C242.632926,93.9638943 244.488471,92.8201961 245.779546,90.74623 C246.440096,89.6811798 247.614073,85.0256376 248.046433,83.2788712" id="Fill-13" fill="#F2A57E"></path>
            <path d="M319.178659,109.77965 C318.283914,109.456352 310.216197,108.139448 308.087424,109.298756 C306.084757,110.388722 303.826877,111.448368 301.920289,112.654505 C300.298939,113.680831 299.983677,116.838459 302.043392,117.704788 C303.754817,118.425228 306.403022,116.42991 308.198517,116.244396 C309.084254,116.15254 314.164484,114.951807 314.530789,114.266189 C314.936127,113.506425 310.615529,113.922179 310.318282,113.584773 C310.135129,113.375845 311.483252,113.002117 313.005519,112.444977 C314.602849,111.858719 321.715771,110.695509 319.178659,109.77965" id="Fill-14" fill="#FFD2A8"></path>
            <path d="M294.73831,174.256913 C294.11379,172.786615 293.420212,171.325323 292.489437,170.019225 C293.468252,171.034445 294.852405,172.740387 294.73831,174.256913 Z M294.194857,170.783192 C291.33948,166.485168 286.310292,166.814169 281.998702,165.322258 C280.239238,164.713787 278.209548,163.009646 276.43507,164.463734 C274.951835,165.681878 274.46543,167.669391 272.799043,168.866822 C265.019565,174.455634 253.853268,172.464819 247.623081,180.357537 C247.974373,178.487395 248.649936,176.642469 248.926166,174.769325 C249.265448,172.478027 248.782046,172.165236 246.596226,172.420091 C244.494476,172.665341 242.389724,172.841248 240.272961,172.855957 C238.687641,172.867064 236.420754,172.527257 235.009579,173.430208 C233.658454,174.296237 233.937686,175.684884 234.063791,177.03751 C234.264959,179.197329 234.433099,181.346641 234.586226,183.513964 C234.841439,187.197513 235.562039,190.290001 238.345356,192.861671 C240.657281,194.999876 244.980881,193.307743 247.680128,192.273612 C251.111986,190.959109 253.462943,189.997322 256.417403,187.805384 C259.467943,185.545004 262.833745,183.49085 265.809223,181.073174 C268.865768,178.589157 272.561845,174.799644 276.504128,173.868776 C278.725978,173.343755 282.052747,173.418201 284.274597,173.446418 C286.016047,173.468631 288.38502,173.055579 290.105452,173.390283 C291.573675,173.676058 293.471255,176.353993 294.99052,175.57982 C296.789017,174.663661 294.837392,171.751583 294.194857,170.783192 L294.194857,170.783192 Z" id="Fill-15" fill="#FFD2A8"></path>
            <path d="M296.933137,176.286752 C296.6479,173.131225 295.672087,167.773254 292.165167,166.596536 C290.41471,166.008477 282.674265,165.744616 283.779185,162.875764 C284.49378,161.008925 287.454245,160.863936 288.766337,159.925263 C290.048405,159.009704 288.88944,158.390426 287.337147,159.149289 C285.57468,160.009315 283.812212,160.473698 281.860587,160.775682 C280.476435,160.990313 278.870098,160.810504 277.585028,161.437286 C276.486113,161.974314 274.819725,163.816239 274.831671,165.143949 C274.846748,166.562615 277.981358,167.064221 279.194368,167.447856 C281.962672,168.32349 284.893112,168.513206 287.637397,169.431467 C288.658247,169.773676 289.928305,170.237759 290.57084,171.167126 C291.29144,172.210563 290.603867,172.771005 290.781015,173.833654 C290.910122,174.603624 292.855742,176.445549 293.546317,176.897625 C294.236892,177.350901 297.18835,179.13459 296.933137,176.286752" id="Fill-16" fill="#1D71B8"></path>
            <path d="M254.324661,144.788522 C254.054436,144.223878 250.598558,145.338758 250.163196,145.404198 C248.148518,145.707083 246.094808,145.768621 244.065118,145.642244 C239.969709,145.387088 236.123506,144.118213 232.145194,143.215562 C230.628931,142.872152 227.524346,141.849728 225.875974,142.357038 C224.599911,142.749978 225.899994,144.760905 225.725849,146.17687 C225.467634,148.253538 224.629936,150.506713 223.960379,152.480718 C223.173724,154.807139 222.765384,156.863994 222.384067,159.255855 C222.041782,161.382053 221.693492,163.50735 221.420264,165.643754 C221.204084,167.349095 221.435277,170.614489 221.858629,172.255291 C222.519179,174.816454 227.731519,175.421924 229.788231,175.845182 C234.156869,176.743631 238.654614,176.924941 243.071291,176.30086 C245.179046,176.003379 247.301813,175.553404 249.322496,174.881294 C249.502646,174.821257 250.670618,174.557396 250.817741,174.349069 C251.280126,173.687465 250.781711,171.775898 250.685631,170.997823 C250.133171,166.458452 251.145013,162.125607 252.718323,157.857301 C254.186546,153.87507 256.234251,148.804974 254.324661,144.788522" id="Fill-17" fill="#305B85"></path>
            <g id="Group-20" transform="translate(225.791904, 74.820415)">
                <mask id="mask-5" fill="white">
                    <use xlink:href="#path-4"></use>
                </mask>
                <g id="Clip-19"></g>
                <path d="M9.75512224,3.48171749 C9.02251226,3.08097284 7.79148729,2.13089282 5.78881985,2.2029368 C2.57314243,2.31550552 1.06888997,3.48652042 0,4.34654546 C0.252209993,4.05806934 0.447372488,3.69334668 0.567472485,3.22536098 C0.636529983,2.96840411 0.666554982,2.72075292 0.675562482,2.47340192 C1.50425246,1.38823944 2.69324243,0.375120935 5.26638486,0.0281090866 C7.00783481,-0.206033856 8.68923477,1.06824408 9.65303724,2.15340656 C9.63502224,2.66671994 9.68005974,3.09928401 9.75512224,3.48171749" id="Fill-18" fill="url(#linearGradient-6)" mask="url(#mask-5)"></path>
            </g>
            <path d="M250.430418,78.7998368 C251.385213,78.318643 251.814571,75.8142141 251.922661,74.8317143 C252.078791,73.3893337 251.793553,72.0562199 251.157023,70.7666326 C249.932003,68.2787137 247.746183,66.9903272 245.022916,66.6325087 C242.689974,66.3263218 239.957699,67.0827836 238.393396,68.8973914 C237.510661,69.9231176 237.006241,71.2346183 236.579886,72.5028926 C236.384724,73.0942536 236.273631,74.0545398 235.970379,74.5966708 C234.733349,76.8219293 236.369711,73.6147714 235.096651,75.5047252 C234.478136,76.4220852 234.306994,77.3124287 234.337019,78.4468213 C234.379054,79.8477766 235.156701,80.593732 235.360871,81.7503381 C235.670129,83.5250215 235.622089,84.1455003 237.057284,85.4621041 C238.267291,86.570981 239.603404,87.4087925 241.281801,87.4721312 C242.401734,87.514457 244.284301,87.3175368 245.263116,86.8351423 C246.407068,86.2701974 247.821246,83.6730118 247.821246,83.6730118 C247.821246,83.6730118 249.583713,82.9744854 250.130168,81.9016304 C250.946848,80.2959502 251.199058,79.4515347 250.430418,78.7998368" id="Fill-21" fill="#FFD2A8"></path>
            <path d="M243.800898,82.5272123 C242.551859,81.6152556 240.711326,80.7783447 238.915831,80.7780443 C238.561536,80.7777443 238.504489,81.1613785 238.708659,81.3231773 C240.122836,82.4437614 241.693144,82.9483694 243.656778,83.0258167 C243.899981,83.0354226 244.110156,82.7523498 243.800898,82.5272123" id="Fill-22" fill="#FFFFFF"></path>
            <path d="M252.523161,72.4068339 C252.222911,69.3257529 250.922828,66.854044 247.304816,65.3900502 C244.152191,64.1142714 240.438099,65.0094179 238.612579,66.7417754 C236.793064,68.4669286 236.063456,70.5207825 235.465959,72.7838641 C235.399904,73.0303145 234.571214,75.1388018 235.303824,75.303002 C235.907326,75.4392852 236.736016,72.4668706 237.045274,71.8118707 C238.345356,69.0438809 239.594396,67.5516699 242.798064,67.5585741 C245.455276,67.5645778 249.190386,68.9673341 250.454438,71.4312383 C251.187048,72.8631125 251.114988,74.4120581 250.790718,75.9592026 C250.595556,76.9047799 249.935006,78.7860284 250.430418,78.7999395 C251.247098,78.8235513 252.748348,74.7332542 252.523161,72.4068339" id="Fill-23" fill="#634E42"></path>
            <g id="Group-26" transform="translate(219.888703, 84.914269)">
                <mask id="mask-8" fill="white">
                    <use xlink:href="#path-7"></use>
                </mask>
                <g id="Clip-25"></g>
                <path d="M34.736208,59.3114098 C34.5770755,56.5671344 33.4121055,53.7748298 30.9050181,52.2210812 C28.5000157,50.7306713 25.2723283,50.8549472 23.9452233,48.056939 C22.6361333,45.3060596 22.1317133,41.5516676 21.8044408,38.564544 C21.3900959,34.8029476 21.6062759,30.9963237 22.3208708,27.2839573 C23.0204533,23.6442353 24.1463908,20.0960692 24.8399683,16.454546 C25.1222033,14.9725413 25.2573158,13.4854334 25.3594008,11.9821157 C25.4224532,11.111284 26.2541457,7.40942406 25.6116107,6.80815699 C24.5066908,5.77312511 20.2251259,10.3776361 19.1772534,11.2820883 C16.8893485,13.2611965 16.4750035,15.5173739 11.5959411,15.2736251 C9.44014618,15.1661595 5.77109127,14.7125826 8.04098121,11.8293224 C9.04081369,10.5622488 10.8393111,9.5479296 12.2294686,8.78066119 C14.1390586,7.72671776 15.1358885,7.37700427 15.745396,5.19377142 C16.069666,4.03296276 16.261826,2.0418472 16.1687485,1.57356131 C16.099691,1.23525478 16.1387235,0.381533588 14.814621,0.0531331024 C13.8267986,-0.192416804 12.4096186,0.462282885 11.2686686,1.01011733 C9.06483369,2.07006442 9.07684369,3.40047663 8.80061369,5.39099182 C8.6594962,6.4152171 8.5754262,7.46765961 8.14306621,8.21451556 C4.9363963,13.7586002 -2.41972851,17.1356618 0.795948907,24.5651975 C2.17409637,27.7441382 4.56408631,29.208132 4.8613338,32.6701455 C5.14657129,36.0102847 4.14673882,40.7099538 4.59711381,44.0957207 C4.8493238,45.9805714 5.30870629,47.9527754 5.07751379,49.8649428 C4.8883563,51.4228939 4.45599631,52.6791609 4.45599631,54.3394745 C4.45599631,58.374838 7.58760373,58.1809196 11.1005286,58.9238732 C12.3675836,59.1925372 18.8860109,61.1104081 24.7528958,61.4877384 C30.0493056,61.8281462 34.8172755,60.728575 34.736208,59.3114098" id="Fill-24" fill="url(#linearGradient-9)" mask="url(#mask-8)"></path>
            </g>
            <path d="M242.314661,128.165874 C245.320163,126.940526 240.366039,115.101299 242.209574,112.198226 C244.116161,109.197895 236.465791,108.201586 231.691816,109.254329 C229.247781,109.792858 226.446449,109.696499 223.567052,108.016073 C221.765552,106.965432 219.762884,106.306529 220.684652,109.479466 C221.510339,112.321602 224.452789,114.122401 224.750036,117.584414 C225.035274,120.924554 224.449787,121.693023 225.761879,121.449274 C227.100994,121.200422 227.254121,120.511201 229.983394,120.145278 C234.835434,119.495381 239.780551,129.197304 242.314661,128.165874" id="Fill-27" fill="#E0E0E0"></path>
            <path d="M302.424709,118.406016 C302.727962,117.858482 301.151649,116.591708 300.974502,115.886878 C300.842392,115.36606 300.854402,114.862052 300.956487,114.33403 C301.037554,113.914374 301.797187,112.797092 301.752149,112.475295 C301.632049,111.578648 300.947479,111.889638 300.103777,111.946072 C298.515455,112.053238 296.969167,112.05624 295.404865,111.702023 C292.393357,111.020307 289.42989,110.308573 286.382352,109.768243 C282.998535,109.168777 279.239405,108.757226 276.011718,107.544185 C273.414555,106.567088 271.003548,104.438789 268.43641,103.169014 C266.53883,102.231842 263.84859,100.334684 262.52749,98.6788728 C261.587708,97.5021544 262.062103,97.0257636 262.140168,95.7809036 C262.209225,94.6753287 261.875948,93.550542 261.479618,92.5287182 C260.425741,89.8111591 258.290963,89.5235836 255.651766,88.9586387 C253.060608,88.4045004 249.736841,87.504551 247.590053,89.5752151 C245.536343,91.5561244 245.587386,94.6921389 244.638596,97.175555 C243.701816,99.6313543 241.879299,101.690611 240.636264,103.990916 C239.059951,106.904795 238.822754,110.060621 238.480469,113.305002 C238.159201,116.345858 238.681636,119.085331 238.648609,122.118382 C238.609576,125.434507 239.032929,128.523393 239.408241,131.804696 C239.690476,134.2692 239.543354,136.596521 241.296814,138.603847 C243.086304,140.652898 246.629253,141.075556 249.004231,140.348212 C251.658441,139.535315 256.237253,138.522197 255.336503,135.482841 C254.351683,132.157711 249.769868,129.643977 249.277458,126.187667 C248.767033,122.587569 251.151018,119.62536 252.334003,116.404394 C252.874453,114.924791 253.174703,112.263666 254.162526,111.284468 C255.225411,110.230525 256.786711,110.285759 257.339171,108.515578 C260.843088,111.083346 264.851425,112.837617 268.838745,114.500632 C270.508135,115.196457 272.357675,116.278617 274.102128,116.434112 C275.984695,116.601915 278.194535,116.124623 280.107128,116.599213 C284.382687,117.65916 288.111792,118.656369 292.450405,119.414932 C294.657242,119.800667 296.629885,119.864607 298.848732,119.587537 C299.410199,119.517595 302.061407,119.599845 302.394684,119.298461 C302.574834,119.135161 303.268412,118.499373 302.424709,118.406016" id="Fill-28" fill="#FC8E74"></path>
            <g id="Group-31" transform="translate(238.312285, 84.581302)">
                <mask id="mask-11" fill="white">
                    <use xlink:href="#path-10"></use>
                </mask>
                <g id="Clip-30"></g>
                <path d="M12.3103381,3.84781313 C12.316298,3.36902083 11.7218031,3.50290256 10.8180506,2.62336561 C10.3046231,2.12386067 10.0584181,1.20229806 9.91730061,0.484559886 C9.81221312,-0.0563703474 9.34082063,-0.232878104 9.19970313,0.419420119 C8.50312315,3.6151711 7.06492569,6.64131854 5.65975573,9.59842383 C4.52781326,11.9806782 2.9965383,14.1561063 1.94866583,16.5806864 C1.00588085,18.7639193 0.909800855,20.9987837 0.411385868,23.2855797 C0.219225873,24.1609141 -0.147079117,29.4570474 0.0630958771,31.220624 C0.132153375,31.7951748 0.819725857,30.4257387 0.801710857,29.8448841 C0.792703358,29.4813622 2.13782332,23.2507585 2.68728081,22.075541 C3.41688829,20.5229932 4.45575326,19.2763321 5.43757073,17.8900858 C7.36217318,15.1755286 9.04657564,12.221125 10.4907781,9.22829787 C10.6889431,8.8224501 10.2625881,8.66845609 9.94132061,8.56909543 C9.55099562,8.44902213 8.75533314,8.20107075 8.15483316,8.05067894 C9.16967813,7.65773905 10.2685931,7.50494578 11.3164656,7.15943484 C12.0580831,6.91508567 12.2952806,4.93117451 12.3103381,3.84781313" id="Fill-29" fill="url(#linearGradient-12)" mask="url(#mask-11)"></path>
            </g>
            <path d="M73.7378018,135.59601 C73.7378018,137.979766 72.2056261,139.911745 70.3155524,139.911745 C68.4251784,139.911745 66.8927025,137.979766 66.8927025,135.59601 C66.8927025,133.212555 68.4251784,131.280576 70.3155524,131.280576 C72.2056261,131.280576 73.7378018,133.212555 73.7378018,135.59601" id="Fill-32" fill="#F2A57E"></path>
            <path d="M80.2394151,236.036428 C79.8157624,232.712799 79.0207004,229.4369 78.9330274,226.075147 C78.8846871,224.21281 79.0321099,222.349573 78.8534611,220.490538 C78.6940284,218.827523 78.3739619,216.851416 77.0708769,215.663591 C75.1222545,213.887407 73.5900788,214.979774 72.0011558,216.515511 C69.8123334,218.630903 68.9365042,220.844754 69.4400234,223.902721 C69.6991391,225.476882 70.2119661,226.999411 70.4452604,228.578976 C70.6815571,230.180153 70.6578374,231.811349 71.1148178,233.378606 C71.9606221,236.279577 74.1566505,238.084579 77.0615692,238.74108 C79.5008001,239.292216 80.5717918,238.645922 80.2394151,236.036428" id="Fill-33" fill="#FFD2A8"></path>
            <path d="M71.4544006,199.51133 C70.6860609,195.766244 65.414872,194.868996 63.1566918,197.748054 C61.8247828,199.446491 61.1242996,201.589799 60.3085204,203.560802 C59.4792299,205.564225 58.1779464,207.794887 58.2695227,210.037256 C58.3472874,211.941319 59.7605642,213.172971 61.6977771,213.166393 C62.8906703,213.162164 62.6054328,213.033085 63.1410788,211.775918 C63.5545231,210.804224 64.057742,210.183145 64.8308858,209.466608 C67.3328689,207.148593 72.2638746,203.456339 71.4544006,199.51133" id="Fill-34" fill="#FFD2A8"></path>
            <path d="M68.0339527,195.303361 C66.5936535,194.495268 64.7678333,193.326054 63.0311873,193.5653 C61.3587949,193.795241 60.7123566,195.424635 59.5182624,196.405634 C58.7862529,197.006901 57.9572627,197.420254 57.0721257,197.743551 C56.763769,197.85612 55.1559303,198.121782 54.968274,198.337614 C53.5802183,199.933688 57.2835017,198.891752 57.911925,198.814605 C58.2052692,198.778583 59.7758769,198.523727 60.0328909,198.800796 C60.2995129,199.087772 59.9578284,201.260798 59.9085874,201.675051 C59.6797969,203.601027 58.7748434,204.897218 57.429123,206.225829 C55.9068555,207.728247 54.994696,208.680428 55.2186825,210.934504 C55.3676065,212.431218 55.8792325,213.68058 56.617247,214.984877 C58.0650524,217.543939 61.5581609,219.270293 62.8276178,215.562729 C63.0804283,214.823978 63.740678,212.647049 63.5238976,211.936215 C63.1035476,210.555673 61.7157921,212.073099 60.4853676,211.307632 C57.61768,209.523643 61.8632148,203.316453 62.8729556,201.513853 C63.62298,200.175035 64.4321538,198.867437 65.5592922,197.80809 C65.8739542,197.51211 68.9277969,195.804967 68.0339527,195.303361" id="Fill-35" fill="#1D71B8"></path>
            <path d="M81.7172456,236.780583 C81.3767621,235.976392 80.9507073,233.949554 80.2412166,233.447648 C79.6734439,233.046303 78.4820519,233.504983 77.8034869,233.589935 C75.3951817,233.890418 73.2450915,233.48337 72.2951006,231.015563 C71.5279618,229.022346 71.7273278,226.810596 71.4631078,224.731827 C71.2991713,223.444041 71.0328496,222.163459 70.9703976,220.864266 C70.8998389,219.393368 71.5147508,218.297399 71.6570693,216.954979 C71.8609391,215.030505 69.7252609,216.920759 68.9076802,217.835117 C67.0064972,219.961315 67.9715007,222.690281 67.8075642,225.240938 C67.7075809,226.792585 66.9896832,228.147913 66.7711012,229.643125 C66.6669145,230.35576 66.4336202,231.086407 67.3833109,230.625925 C68.3462127,230.15884 68.7146194,227.532537 69.2154364,226.642494 C70.4860944,229.06137 69.9483466,232.150256 70.2092639,234.779861 C70.4455606,237.160915 71.8399216,238.796614 74.0008208,239.907292 C77.0780829,241.488657 84.0300713,242.243318 81.7172456,236.780583" id="Fill-36" fill="#1D71B8"></path>
            <g id="Group-39" transform="translate(66.963087, 137.725299)">
                <mask id="mask-14" fill="white">
                    <use xlink:href="#path-13"></use>
                </mask>
                <g id="Clip-38"></g>
                <path d="M38.6428385,45.6007502 C38.6534576,41.1352241 38.2123904,35.506788 34.834578,26.2011069 C33.0285743,21.2264699 28.3041406,13.8560704 27.4784532,10.5165316 C26.7242252,7.46727005 26.8188039,3.9374151 25.3947182,1.0235362 C24.644994,-0.510700434 17.9956577,0.600878175 15.993891,0.535438225 C12.7674046,0.430674267 5.249445,-0.7838672 3.98389129,0.835621484 C2.29588583,2.99574022 1.80167435,5.78774472 2.44691158,8.34920847 C3.12487606,11.0394508 5.63946974,12.1342192 8.05077743,12.9252021 C10.6683569,13.7837262 14.4965443,14.2358022 16.5832817,16.1002404 C17.6770924,17.0773369 18.1977259,18.6277835 18.7988264,19.9200724 C19.7208941,21.9018823 20.6357558,23.8872943 21.5545208,25.8709053 C23.3620258,29.7741882 25.169831,33.6774712 26.9764352,37.5813545 C28.3939154,40.6450248 30.3827713,44.1199462 26.3450094,45.9939903 C22.8885315,47.5981696 18.9699689,48.2465655 15.6005635,49.9843264 C12.7935263,51.43181 10.6248206,53.8680974 8.07719943,55.6929114 C6.98789246,56.4730877 5.83763474,57.1824208 4.56907852,57.6320953 C3.51400005,58.0064238 1.14112436,57.8203102 0.508497631,58.490019 C-0.19949185,59.2389763 0.00978239404,61.7821288 0.100157642,62.7499197 C0.234369388,64.1859964 0.666729376,66.1413901 1.78786285,67.1524073 C3.16811206,68.3975675 4.27333228,66.7840825 5.68901099,66.0096097 C7.48660769,65.0262093 9.34935864,64.2748506 11.0616843,63.1347546 C14.5764108,60.7936254 18.4958741,59.630115 22.6053958,58.7505781 C26.7053094,57.8731424 30.6875251,56.3599186 34.4217342,54.3432875 C36.4168954,53.2662299 37.1188799,52.7090898 37.7758269,50.6105087 C38.3318899,48.8343243 38.6378446,47.5966687 38.6428385,45.6007502" id="Fill-37" fill="url(#linearGradient-15)" mask="url(#mask-14)"></path>
            </g>
            <path d="M97.4833726,180.622299 C96.5381857,175.807959 93.382258,171.803515 91.4696656,167.335887 C89.3129699,162.297612 86.9082677,157.424737 84.1768935,152.670734 C87.8171244,152.585182 88.5596426,147.563416 88.9712854,146.984963 C90.3953711,144.984242 92.704894,143.969923 92.3496983,140.999909 C91.8068463,136.461439 88.6007769,138.090533 85.7607122,138.05211 C82.314743,138.005581 78.8975979,137.918828 75.4801525,137.442738 C73.857001,137.2164 72.2356511,136.951038 70.5989884,136.838169 C69.5589224,136.766725 66.4426277,136.341365 65.6289502,136.812353 C64.720694,137.338574 64.7840468,138.360098 64.542946,139.316182 C64.0376253,141.320505 62.5180601,143.551467 62.5397437,147.041098 C62.5838148,154.10501 68.0946032,158.598153 70.2467951,163.356958 C73.1093785,169.686622 78.2616684,174.698482 82.0886548,180.505527 C83.8057845,183.110518 85.535825,185.656372 83.9715225,188.723044 C82.4366445,191.732681 79.8223679,193.948934 78.4955632,197.095755 C77.1819694,200.212258 76.514814,203.484856 75.6338805,206.732539 C74.8205032,209.73257 72.6481946,212.531179 72.3092123,215.56393 C71.9969523,218.358636 72.1017396,221.207375 75.0739142,222.528482 C76.1974497,223.027987 77.5978157,223.169673 78.7351626,222.614635 C80.2538271,221.873782 80.2099906,219.997037 80.6249361,218.498222 C81.6226668,214.895122 82.77953,211.32144 84.4167932,207.952183 C86.1549404,204.3758 88.5812606,201.340947 90.8670638,198.115478 C92.7706488,195.429438 94.0719322,192.312035 96.1580692,189.762278 C96.9630394,188.777978 97.8469754,188.054536 98.1481261,186.686901 C98.5789849,184.732408 97.8577844,182.530864 97.4833726,180.622299" id="Fill-40" fill="#FC8E74"></path>
            <path d="M86.4053489,137.949147 C86.1450322,137.431631 85.3673847,137.886709 85.6277015,138.403925 C86.4338727,140.007203 87.4667327,141.270074 86.7575422,143.078378 C86.5401612,143.632817 86.2480179,143.819831 86.1681514,144.468827 C86.0339397,145.564196 86.4302697,146.674574 86.3179762,147.792156 C86.1468337,149.498398 85.4580602,150.981903 84.356443,152.298207 C83.9868353,152.739777 84.6209632,153.380368 84.9935735,152.934896 C86.8821459,150.678718 87.0854152,148.629968 87.1944059,145.814849 C87.2823792,143.548165 87.8879834,143.989134 88.0897514,142.842434 C88.1338881,142.592982 88.2741049,142.362441 88.2816111,142.101882 C88.3197429,140.759463 86.9815287,139.095547 86.4053489,137.949147" id="Fill-41" fill="#E67460"></path>
            <path d="M101.87633,40.2686138 C102.953027,38.1072943 102.39216,37.7338664 100.538116,36.1816187 C100.189526,35.8898406 99.6343636,35.6244786 99.3461236,35.2855717 C98.9798186,34.8548087 98.9651064,34.3009706 98.6180174,33.8575999 C98.0976841,33.1929942 97.6322966,33.0531088 97.5401199,34.1854 C96.6564842,33.5667223 95.1678447,38.1892444 95.2705302,38.8442442 C95.5245417,40.4607311 97.6620214,42.0105772 98.4666914,43.4649651 C100.450443,47.0512545 97.1026557,49.4404131 96.8858752,52.9192369 C96.7723807,54.7368465 98.1832554,55.7991951 99.9298096,56.202041 C102.403269,56.7723892 101.823787,54.8968442 101.92377,52.9978849 C102.040867,50.768724 102.555796,48.9754292 103.057514,46.8888554 C103.598264,44.6401826 102.616447,42.3488838 101.87633,40.2686138" id="Fill-42" fill="#FFD2A8"></path>
            <path d="M85.3553747,80.9833698 C85.6853495,79.2321007 84.9275185,77.5330634 84.259162,75.9613039 C83.653858,74.5369343 82.9575783,73.1137655 83.1104055,71.5290981 C83.2269025,70.3244626 83.6892875,69.1615527 83.9850338,68.0010442 C84.4420142,66.2065487 84.008153,63.1509833 83.029338,61.6053397 C81.3071041,58.8862797 80.0805829,58.8835781 77.9989497,57.6462227 C74.9898442,55.3801393 70.1966534,55.0982672 67.090267,57.1227031 C65.7730702,57.9815274 65.2173075,58.9877417 64.3865158,60.2488115 C63.3683681,61.7938548 61.9619971,62.1681833 60.3805804,62.8961277 C57.874694,64.0500322 57.0682225,65.5983774 57.1147612,68.3081317 C57.1330765,69.3740824 57.2814,70.4403334 56.9370132,71.4816691 C56.6133437,72.4602665 55.8972475,73.2482476 55.3060553,74.066247 C54.3848883,75.3408251 53.5444886,76.7054582 53.0364656,78.2030725 C51.9348484,81.450455 52.9956316,83.7900833 54.9280405,86.453009 C56.9211,89.2002862 58.9237674,92.0934524 61.7707378,93.9888095 C68.7401407,98.6293425 75.6573,97.6648537 79.3704916,95.7538871 C81.9250186,94.4396848 84.572623,91.3931249 84.085017,88.4744431 C83.8072858,86.8111276 83.6685703,85.0676633 84.3147082,83.4430715 C84.6572935,82.5815455 85.18153,81.9070337 85.3553747,80.9833698" id="Fill-43" fill="#634E42"></path>
            <path d="M80.4628011,88.7749265 C79.8100576,86.7567945 79.2621014,84.7506697 79.1158796,82.6145657 C78.9801666,80.6354574 79.9935104,78.7830265 80.3919421,76.8963747 C80.9801318,74.1073721 80.3817336,70.7726363 78.6576981,68.4639268 C76.9276577,66.1474126 73.7378018,65.3195072 71.0340506,66.315215 C68.0183397,67.4255929 66.7846125,70.3124553 66.7014432,73.1876106 C66.6071647,76.4509028 70.0648436,86.6655387 70.5605564,88.4495279 C71.0631748,90.2584322 71.9474111,91.3096739 73.4249413,92.3666192 C75.1726965,93.6168825 78.3604507,95.5992927 80.4081556,94.3163095 C81.7235508,93.4923064 81.0071543,90.4574537 80.4628011,88.7749265" id="Fill-44" fill="#F2A57E"></path>
            <path d="M79.3341614,63.6150666 C77.3855389,61.6494666 74.1149158,61.2319117 71.8348173,61.9046224 C69.2673796,62.6619848 66.8470645,64.5615444 66.4831615,68.2375886 C66.4126027,68.9520248 66.494571,70.0344856 66.1372735,70.6762774 C65.967332,70.9815638 65.2938713,71.566621 65.11222,71.913933 C64.5546558,72.9798838 64.4762905,73.9293634 64.7173913,74.8620328 C65.0659815,76.2092553 65.741544,77.0734829 66.847665,77.7308842 C67.2698165,77.9818374 67.5475477,77.9638264 67.8517009,78.2000706 C68.3254954,78.5686957 68.7611582,79.2561153 69.1625924,79.704289 C72.7013388,83.6556012 77.5485747,84.588871 80.4042523,78.8724811 C82.7528078,74.1707107 83.0782788,67.3925728 79.3341614,63.6150666" id="Fill-45" fill="#FFD2A8"></path>
            <path d="M77.6674737,77.7251807 C76.2352812,78.0601852 74.8042897,77.9338081 73.41143,77.5882972 C73.1433068,77.5222568 73.013899,77.9314066 73.2874268,78.13343 C74.6019213,79.104823 76.7135794,79.5376872 77.9388997,78.1715532 C78.0953299,77.9971468 77.9268897,77.6645437 77.6674737,77.7251807" id="Fill-46" fill="#FFFFFF"></path>
            <path d="M80.3177804,63.5424223 C78.3508427,60.8395722 73.926659,59.5749001 70.0879629,60.7762335 C65.7688667,62.1273584 63.1708036,65.5443444 63.1708036,69.8027441 C63.1708036,73.7651632 64.972904,77.2004604 67.3052459,78.1586454 C67.7228937,78.33005 67.5901832,77.620717 67.1163887,77.4255978 C66.5167895,77.1791474 65.9619275,76.5946906 65.6775907,75.8127132 C65.298375,74.7704769 64.27152,71.2268135 66.7044457,71.3093639 C66.8449627,71.314467 66.9890827,71.3411833 67.1223937,71.1910917 C68.2645447,69.9045063 68.7416419,68.184156 69.7078464,66.7636888 C71.0541673,64.7839802 73.4955,63.1014531 75.8575667,62.8676103 C77.5182494,62.8676103 79.8893236,64.7707722 80.6540603,67.8284388 C81.0873211,69.561697 81.1050358,71.394616 82.0613321,72.9027367 C82.3546763,73.3647187 82.8578953,73.004799 82.8516487,72.4695722 C82.8053515,68.5812985 82.5294218,66.5814776 80.3177804,63.5424223" id="Fill-47" fill="#634E42"></path>
            <path d="M67.175538,61.7953557 C69.9120164,56.3158105 76.1695265,56.1729232 79.5533439,59.1009108 C82.1625163,61.3585891 81.1536763,65.5077221 82.85159,67.373361 C84.098228,68.7424969 84.008153,63.1509833 83.029338,61.6053397 C81.3071041,58.8862797 80.0805829,58.8835781 77.9989497,57.6462227 C74.9898442,55.3801393 70.1966534,55.0982672 67.090267,57.1227031 C65.7730702,57.9815274 65.2173075,58.9877417 64.3865158,60.2488115 C63.3683681,61.7938548 61.9619971,62.1681833 60.3805804,62.8961277 C57.874694,64.0500322 57.0682225,65.5983774 57.1147612,68.3081317 C57.1330765,69.3740824 57.2814,70.4403334 56.9370132,71.4816691 C56.6133437,72.4602665 55.8972475,73.2482476 55.3060553,74.066247 C54.3848883,75.3408251 53.5444886,76.7054582 53.0364656,78.2030725 C51.9348484,81.450455 52.9956316,83.7900833 54.9280405,86.453009 C56.9211,89.2002862 65.0275495,94.8533373 63.7283678,89.6796788 C62.7630641,85.8358322 56.6908082,84.9532934 60.6405969,76.9387006 C62.3171928,73.5370239 59.4209814,69.4752442 61.2050669,66.5271444 C62.3057833,64.7074335 65.7172237,64.7149381 67.175538,61.7953557" id="Fill-48" fill="#8A6C5B"></path>
            <path d="M37.0706723,75.7448718 C35.1836011,73.5583369 32.3498416,72.950766 31.0500594,70.063003 C30.0048892,67.7407853 30.7185834,65.1132813 29.065407,62.7949659 C28.3793357,61.8331788 27.355183,61.4399387 26.429212,60.7741322 C25.2168026,59.9020999 24.6643426,58.7764127 24.1428084,60.6969851 C24.0025916,61.2130002 24.1109819,61.5498058 23.8287469,62.0048836 C23.6597061,62.2777502 23.0207741,62.2978625 22.8003906,62.6106534 C22.4566044,63.0987514 22.7346359,63.4934924 22.5908161,63.9848924 C22.4136686,64.5909624 22.0990067,64.9274678 21.8918342,65.4930131 C21.2009589,67.3820663 22.7484474,69.3425632 23.8209404,71.0079799 C25.3068776,73.3148883 27.79595,74.7536666 29.758384,76.6039963 C31.2800509,78.038572 32.8281399,81.0677213 34.9959448,81.6041488 C38.5400957,82.4812843 38.7436652,77.6834553 37.0706723,75.7448718" id="Fill-49" fill="#FFD2A8"></path>
            <path d="M40.9589097,79.9441354 C40.6853819,78.1148186 39.4411459,77.0629765 38.0849167,75.897665 C36.6314065,74.6492029 36.4929913,75.1601148 36.3422658,77.1221126 C36.2347763,78.5218671 37.0028158,80.6777833 34.5686891,80.8467864 C33.1521096,80.9446462 32.4423186,79.4221167 32.0354799,79.8282646 C31.5100424,80.3535853 33.3421679,81.7992679 33.7763293,82.105755 C35.0046521,82.9741852 35.8978958,83.8732341 37.472707,83.720741 C39.6543234,83.5100123 41.2918869,82.1720955 40.9589097,79.9441354" id="Fill-50" fill="#EDEDED"></path>
            <path d="M102.360934,54.1526899 C102.03216,53.6093582 100.862686,53.843201 100.443537,53.7765603 C99.3169993,53.5976511 98.6588514,53.0101924 97.7022549,52.6358639 C97.0233897,52.3702017 97.1765172,52.0901307 96.6036402,52.6607791 C96.0911134,53.1710907 95.8157842,55.0178181 95.8863429,55.6812231 C96.0568849,57.2908057 97.4356329,58.3162317 98.9696101,58.5251593 C100.076031,58.6761514 101.340384,58.3645612 101.931877,57.3661517 C102.201501,56.9113741 102.707122,54.7254396 102.360934,54.1526899" id="Fill-51" fill="#EDEDED"></path>
            <g id="Group-54" transform="translate(61.817008, 85.213510)">
                <mask id="mask-17" fill="white">
                    <use xlink:href="#path-16"></use>
                </mask>
                <g id="Clip-53"></g>
                <path d="M34.3999097,40.1009232 C33.0205612,37.8216317 32.0585603,33.2852623 31.9937063,31.1134364 C31.9543735,29.7995343 32.0360415,28.6672431 31.5871678,27.3923648 C31.1968428,26.283788 30.1862013,25.0527364 30.1333573,23.8721157 C30.0417811,21.8344717 31.6316048,19.8835807 31.426534,17.7258634 C31.2100538,15.4462718 29.6928906,13.5854357 28.5633501,11.690679 C27.1686889,9.35105068 26.3291899,6.73675467 24.8717765,4.42804522 C24.2007177,3.3650963 23.4588,2.21299295 22.5994845,1.28482631 C21.6566996,0.266304515 21.4381176,0.440710989 20.3121801,1.09330939 C17.9038749,2.48886137 17.9323986,4.37041004 17.7396382,7.04414233 C16.7004729,5.23944057 16.5200227,3.00247493 14.722426,1.78373089 C13.1277983,0.702770974 11.8301178,0.757704511 10.1159906,0.920103654 C8.5531894,1.06779382 7.39722693,0.295722474 5.92269922,0.0573769665 C4.44937251,-0.180968542 4.14581977,0.338348497 3.20903979,1.33465674 C2.8589483,1.70718416 2.61454481,2.090218 2.11162607,2.27362997 C1.62071734,2.45253919 0.859883856,2.10972991 0.469859116,2.39310291 C-0.500849108,3.09883375 0.266890122,5.03561614 0.68724011,5.77886989 C1.44717284,7.12068906 2.65327706,8.15812241 3.50688779,9.43840401 C4.70668675,11.2383028 5.65337498,13.304164 6.34394996,15.348412 C7.81307317,19.6995684 7.10118044,22.8202735 5.73444248,27.0492553 C5.13394249,28.90799 5.07629449,30.7144929 4.86942225,32.6419696 C4.672158,34.4790911 3.90892252,35.8593338 3.29491129,37.5739806 C2.62835631,39.4354169 2.8073053,41.1116403 3.0853368,43.0319126 C3.35255929,44.87864 3.40119979,46.7064559 3.55913128,48.5666915 C3.64139978,49.5368838 3.42281779,53.0346191 4.887137,52.660891 C6.48416671,52.2532421 7.29964568,48.3181398 7.99172192,47.0903902 C9.06151264,48.4493199 9.02217989,50.3293676 10.0805611,51.7015053 C11.1980916,53.1501897 13.206764,53.9666882 14.87135,54.5451413 C18.0621066,55.6540183 22.0166993,56.1832414 25.2996327,55.1701229 C28.4381459,54.2011313 31.4715715,51.8777129 33.8120202,49.6320419 C34.8355724,48.6504426 36.2632612,47.2924136 36.6679981,45.8821526 C37.2129519,43.9843941 35.3841292,41.7276163 34.3999097,40.1009232" id="Fill-52" fill="url(#linearGradient-18)" mask="url(#mask-17)"></path>
            </g>
            <path d="M101.890742,57.1926458 C100.708358,58.4684246 96.6784024,53.9467642 96.0169517,54.1598943 C94.9648757,54.4982008 95.0999882,56.8831568 94.7399885,57.895675 C94.1187712,59.6427415 93.2996893,61.315963 92.5868958,63.0264072 C91.0255958,66.7738951 87.1742892,77.7248805 86.3567084,79.2305998 C85.5643487,80.690391 84.2840827,81.7548408 83.4103553,83.1503928 C82.6240005,84.4060593 82.7317903,85.126199 82.8446843,86.6106052 C82.977695,88.364576 83.9799295,89.4341289 84.8806795,89.8000523 C88.1840299,91.1418715 91.6897488,90.6453684 95.1291125,91.6698939 C96.7465592,92.151688 98.9609029,93.5484407 100.597566,93.6120795 C102.209308,93.6742175 101.250609,92.4953978 100.421619,91.6551849 C98.1138976,89.3149562 94.4949845,87.7861228 91.4756706,86.6508298 C94.9309475,81.7476364 97.1368842,76.1210014 98.9149646,70.4286262 C99.7673743,67.7005608 100.522503,64.9433775 101.293845,62.1918978 C101.629225,60.9962679 102.206005,59.2374941 102.444103,57.9085829 C102.613744,56.962105 102.701417,56.3179118 101.890742,57.1926458" id="Fill-55" fill="#567AA6"></path>
            <path d="M93.8125162,116.328148 C93.7722827,115.013345 93.8533502,113.878652 93.4029753,112.604374 C93.0156528,111.496698 92.002309,110.267448 91.9479638,109.087727 C91.858189,107.047982 93.4480128,105.098292 93.245344,102.941475 C93.1414575,101.847307 92.7454278,100.856702 92.2274965,99.9111251 C91.1598076,99.1141385 90.5665136,99.2795395 91.8050448,102.323398 C94.394701,108.703793 79.0447204,107.876488 76.8784167,107.718591 C74.0999033,107.511765 72.4109971,105.562075 70.3164531,106.075388 C69.8888971,106.178651 69.4205071,106.273509 68.9250947,106.390281 C68.7671632,108.268227 68.2402244,110.123059 67.5514509,112.261865 C66.952152,114.121801 66.8939035,115.927403 66.686731,117.854579 C66.4882657,119.691401 65.727132,121.074045 65.1104185,122.789592 C64.4435633,124.649227 64.6240135,126.32425 64.903246,128.246624 C65.168667,130.092751 65.2182083,131.920867 65.3758395,133.780802 C65.4073658,134.168039 65.3938545,134.969528 65.461711,135.762012 C69.1682972,132.132796 72.5461096,119.714215 75.396683,121.600566 C79.9953119,124.649227 78.9051041,117.809552 85.359278,115.373265 C87.1787929,114.684644 90.5292826,114.427987 91.0114841,116.116518 C92.2046775,120.326288 93.4525165,121.101061 94.4613565,120.54272 C94.0785377,118.930736 93.8443427,117.36348 93.8125162,116.328148" id="Fill-56" fill="#E0E0E0"></path>
            <path d="M69.6102651,90.9881777 C67.3833109,88.9175136 64.0268163,86.8588568 60.9237326,86.6085039 C59.6353599,86.5043403 58.4145434,86.9606189 57.142084,87.0059466 C55.146022,87.0776904 53.6276578,85.9426975 52.0186181,84.8977595 C49.3959344,83.1939193 46.5267455,81.9538623 43.9172728,80.2434181 C42.6637291,79.4221167 41.5942386,78.4735376 40.5187432,77.4391061 C40.2028802,77.1350204 38.5893367,75.1985382 38.2986947,75.7992049 C38.1053337,76.1987489 39.5699532,77.0422638 39.4606622,79.2732258 C39.4027139,80.4493438 39.068836,81.5801341 38.0218642,82.2015135 C36.945468,82.8409038 35.882583,82.7925743 34.4563956,82.4092403 C33.8117588,82.2357344 32.6455879,81.3009637 33.1226851,82.5206083 C33.3418676,83.0804501 34.9142768,83.6658074 35.4012823,83.9281676 C36.8989293,84.7344598 38.2212302,86.036955 39.5213127,87.1206166 C42.0875494,89.260623 43.7149043,91.9454621 46.723109,93.4929068 C49.5070269,94.9247809 52.3765161,96.4292994 54.873395,98.3291593 C56.1635692,99.3107585 57.6936432,100.385715 58.7250019,101.646184 C59.7257352,102.869431 60.0037666,104.40817 60.5499214,105.847549 C60.9954924,107.022166 61.6545411,107.680768 62.2949743,108.712798 C63.0053658,109.857097 62.7771758,110.668492 62.4865338,111.995603 C60.6625151,120.324787 58.9360777,123.851941 54.0570153,130.305881 C53.0112446,131.689425 52.3023544,134.686755 55.0457385,135.917807 C56.58482,136.608228 59.1885879,136.549092 60.8012306,136.254012 C65.4343882,135.405394 69.3184221,128.763839 71.8092961,120.981588 C72.7100461,118.16737 73.4864925,111.126572 73.5570513,108.880301 C73.7492113,102.763767 74.6289438,95.6542263 69.6102651,90.9881777" id="Fill-57" fill="#567AA6"></path>
            <path d="M73.6261088,98.3330617 C72.7400711,95.4975306 71.7306306,92.6553955 69.4361201,90.6405655 C68.7446444,90.0329945 64.270319,86.6946565 63.5746398,87.6675505 C63.3089186,88.0400779 68.4101659,92.1760028 68.9902489,92.9964037 C70.7190884,95.4428972 70.9271616,98.4762491 71.3180871,101.353806 C71.7486456,104.519238 72.0074611,107.644146 71.8954678,110.841398 C71.8732493,111.477186 71.3751346,117.218491 72.7280611,116.221282 C73.0886613,115.95562 73.2862258,113.985818 73.38741,113.544548 C73.7696283,111.87703 73.8515965,110.204109 73.9260585,108.500269 C74.073181,105.137015 74.6517628,101.614365 73.6261088,98.3330617" id="Fill-58" fill="#305B85"></path>
            <path d="M111.405364,118.662973 C110.876024,115.058973 108.535575,112.002807 107.657344,108.497567 C106.785718,105.016942 106.434125,101.602958 104.929873,98.3069457 C103.336746,94.8161146 101.869425,92.2102237 98.4135471,90.2755426 C95.0870775,88.4132057 90.2143203,88.8484714 86.5140394,88.891998 C84.518578,88.9154123 83.3145755,87.8188428 84.0570938,89.950144 C84.6765095,91.7281294 86.0735727,93.4463784 87.2733717,94.7320633 C90.4446121,98.1301378 93.5221745,101.169493 92.8331008,105.052964 C92.4427758,107.253007 90.1257466,108.542595 90.4259966,110.41874 C90.7544701,112.473194 91.8735018,113.060052 91.8987228,115.276606 C91.945862,119.372606 93.366645,121.699627 95.7443247,124.941906 C96.5342824,126.018964 97.0372012,127.549598 98.3120626,127.746218 C100.154697,128.029891 102.725137,126.758615 104.360599,126.001553 C107.283532,124.648327 111.984547,122.604679 111.405364,118.662973" id="Fill-59" fill="#305B85"></path>
            <g id="Group-62" transform="translate(74.944845, 86.997245)">
                <mask id="mask-20" fill="white">
                    <use xlink:href="#path-19"></use>
                </mask>
                <g id="Clip-61"></g>
                <path d="M17.8465209,49.6289942 C17.4390817,47.8591137 16.3930107,46.3173725 15.8657717,44.5862156 C15.2673735,42.6206157 14.9367982,40.5748667 14.36242,38.594858 C13.241887,34.7311992 12.4032888,30.7714819 11.6373511,26.9147273 C10.9134483,23.2684013 12.9614535,20.3088945 11.1650578,16.9300318 C9.45753614,13.7192716 6.57573671,10.324199 4.84659701,7.10143148 C4.51632202,6.48575561 1.24029436,-1.25296882 0.0368923895,0.175603315 C-0.310797101,0.588355297 1.90504784,2.63590531 2.24042708,3.27229382 C3.07902531,4.86176418 3.50628105,6.6079302 4.41393677,8.18419249 C6.19501972,11.2760801 9.23745289,14.4985474 10.6396204,17.7930586 C11.3007708,19.3471074 11.1077101,20.8291121 11.0149328,22.4834221 C10.8966343,24.5895078 10.7813384,25.7217991 11.1743656,27.759443 C11.9625218,31.8455376 12.8788848,36.4254335 14.0234378,40.5925776 C14.5996175,42.6905584 14.870443,44.7684269 15.7612847,46.7778536 C16.117081,47.5805436 16.389708,48.7533596 16.8620012,49.4641936 C16.9571804,49.6070808 18.1200487,50.8156186 17.8465209,49.6289942" id="Fill-60" fill="url(#linearGradient-21)" mask="url(#mask-20)"></path>
            </g>
            <path d="M93.5242762,83.4130531 C92.921074,84.4757019 92.1827593,85.6464166 91.4756706,86.6508298 C91.4486481,86.646327 91.1378893,86.561075 90.5478981,86.4040791 C87.7489677,85.6608254 86.8229967,84.2277505 82.8236668,84.5789649 C82.9002305,84.1334929 83.0710728,83.6922236 83.408854,83.1515935 C84.2420477,81.8235828 85.444549,80.7876503 86.2420129,79.4326231 C90.1329526,77.6357261 93.042375,80.6708791 93.5242762,83.4130531" id="Fill-63" fill="#305B85"></path>
            <path d="M151.325702,223.029188 C151.140448,222.011566 150.981916,220.132419 150.877429,219.164328 C150.75793,218.05335 149.087639,217.115277 146.835764,217.452983 C145.568109,217.6433 143.369978,218.460398 143.557034,219.699855 C143.683139,220.534665 144.100787,222.867089 144.302555,223.714506 C144.867926,226.093458 145.364839,227.07896 148.074896,227.000612 C151.148255,226.911158 151.847537,225.898039 151.325702,223.029188" id="Fill-64" fill="#525252"></path>
            <path d="M176.659896,217.377637 C175.538462,216.263958 172.162151,217.097566 170.8999,217.62739 C169.064472,218.39766 169.403754,221.138934 170.574429,222.555799 C171.66854,223.879907 175.089288,224.165081 176.404383,223.054103 C177.465467,222.157155 177.719178,218.42948 176.659896,217.377637" id="Fill-65" fill="#525252"></path>
            <path d="M180.026299,32.2900429 C179.57142,27.4763042 178.532555,22.8444765 178.276142,17.9818079 C178.037443,13.4565452 177.969586,8.89255896 177.856092,4.31506444 C177.822464,2.95313299 177.985199,0.751889151 176.402882,0.151222449 C175.549872,-0.172675288 173.65049,0.117001558 172.720316,0.166231612 C170.97166,0.258988239 170.296698,0.165030879 169.232612,1.64463416 C168.747408,2.31974632 168.394914,2.29333019 168.206358,3.16686347 C167.994081,4.14936328 168.926057,5.30897121 169.101403,5.66919112 C169.933395,7.3784346 171.17583,8.82351681 172.160049,10.4391031 C173.386571,12.4521321 173.821333,13.765734 173.874177,16.1347803 C173.923718,18.3441291 173.486554,20.3055265 173.156279,22.4602419 C172.834411,24.5609244 172.838314,26.6988295 172.529657,28.8007127 C171.964286,32.652064 171.505204,35.0472262 175.821598,36.2218433 C178.909069,37.061756 180.33946,35.6049667 180.026299,32.2900429" id="Fill-66" fill="#FFD2A8"></path>
            <path d="M158.904313,60.9827596 C158.375272,58.9940455 154.464516,62.8826195 152.659713,63.0552248 C151.037462,63.2107198 149.309824,62.8159788 147.723603,63.3262903 C146.053012,63.863018 145.448309,65.3237097 145.849743,67.0674743 C146.198033,68.5806981 146.960668,69.8603793 147.188258,71.4771664 C147.403837,73.0084012 147.460885,74.5618495 147.723003,76.0867805 C148.060184,78.0472774 148.830625,81.3585989 151.309789,81.32768 C153.795259,81.2970613 154.975241,78.333352 155.909619,76.4575068 C157.168267,73.9305641 158.236557,71.9268409 158.511886,69.0372768 C158.644897,67.6423252 159.195855,62.0781283 158.904313,60.9827596" id="Fill-67" fill="#F2A57E"></path>
            <g id="Group-70" transform="translate(139.299779, 124.382795)">
                <mask id="mask-23" fill="white">
                    <use xlink:href="#path-22"></use>
                </mask>
                <g id="Clip-69"></g>
                <path d="M42.0956596,12.6643018 C42.0055846,9.53939403 42.2541916,4.74516719 40.8652352,1.8580046 C39.6705404,-0.625111321 35.2847888,0.00347242395 33.1518129,0.276038824 C28.9729335,0.810665209 25.6359551,2.00419385 21.5360414,2.90264234 C17.2520745,3.84191576 12.8341962,3.35051577 8.53131353,3.52162022 C5.38289211,3.64709683 2.80374468,6.61921128 1.74596396,9.52618596 C1.04548073,11.4515614 1.68411246,12.9206583 2.46956644,14.697443 C3.30125892,16.5789916 3.70179241,18.3407672 3.51473666,20.4063282 C3.13011642,24.6560226 1.67300321,28.7151006 1.86246096,33.0287341 C1.94743171,34.9673176 2.3035282,36.8830871 2.40771494,38.8201697 C2.52301094,40.956574 2.0182907,43.0710648 2.14289445,45.2011653 C2.2344707,46.7681219 3.01331918,48.118046 2.82536268,49.6967097 C2.72628019,50.5306188 2.38549644,51.2789757 2.35697269,52.1338976 C2.32724795,53.0257421 2.58996669,53.888769 2.50259394,54.7842156 C2.3389577,56.4628404 1.34362897,57.9622558 0.956606732,59.5922509 C0.446481996,61.7427638 0.483112495,64.0766886 0.524546994,66.2701277 C0.609217492,70.7236465 1.10853323,75.1606553 1.00614798,79.6186769 C0.908566734,83.8617672 0.214088502,88.0442206 0.00511450778,92.2729022 C-0.120389989,94.814854 2.0747377,95.9063203 5.39670361,96.3908161 C9.25311451,96.9536597 12.9332787,96.9029288 12.9020527,94.0577918 C12.8756307,91.6365137 12.7002847,90.2538696 12.5261397,88.0640327 C12.2252892,84.2808231 12.9017524,80.5393389 13.0782994,76.7678364 C13.3097922,71.8172141 13.1881909,66.9368347 13.8067059,61.9979195 C14.1084571,59.5883485 14.5378146,57.2316097 15.1440194,54.8808746 C15.7132933,52.6724264 15.2704246,50.5777476 15.6556453,48.3674983 C16.0171463,46.2938323 16.3546273,44.1937502 16.7485553,42.1284894 C17.180615,39.8636067 18.2678203,37.7845375 19.0694877,35.6400283 C19.8774605,33.4775081 20.6220805,31.2558517 21.1637314,29.0098806 C21.6141064,27.1406394 21.7918544,25.0666733 23.0123706,23.4964147 C24.8721191,24.7379726 24.5718691,27.3090423 24.6304178,29.2356184 C24.7195921,32.1699098 25.5209593,35.1189101 25.1507511,38.0592051 C24.8240791,40.6542894 23.4459316,43.1001826 23.6927371,45.76581 C23.9464484,48.5049822 25.6833946,50.8464116 26.0049623,53.5837828 C26.3175226,56.2440068 27.0405245,58.5851361 26.9339358,61.2957909 C26.8102328,64.4435125 26.6150703,67.5804276 26.7910168,70.7302506 C27.1342025,76.8777035 28.401858,82.9447074 28.0986055,89.122779 C27.9968208,91.1985463 27.7650278,93.4114973 29.8193382,94.6386464 C31.6514637,95.7325142 34.0675753,95.342276 36.032111,94.9007064 C38.5406997,94.3360617 39.400916,93.6768593 39.1802322,90.9968231 C38.9367295,88.0430199 39.3441687,85.3854975 39.7341934,82.4503056 C40.1386302,79.4055467 40.1095059,76.4784598 39.8323752,73.4267968 C39.541433,70.2202392 40.1095059,67.2949533 40.1266202,64.1367253 C40.1347269,62.675133 39.5543437,61.4203669 39.3363622,60.0029016 C39.1436017,58.7493363 39.2444857,57.4729571 39.2685057,56.2118872 C39.2925257,54.9313054 39.32165,53.6228066 39.0448195,52.3635378 C38.706738,50.8238979 37.5720933,49.8284902 37.1760635,48.3855093 C36.848791,47.1940819 37.3967473,46.1356357 37.898465,45.0891969 C38.5917422,43.6435143 39.0217002,42.4262712 39.1300905,40.7908728 C39.325253,37.8484765 38.6559957,34.9141851 39.0580305,31.9768919 C39.4858867,28.8552862 40.8201977,25.9480114 41.3855684,22.8552232 C41.9965771,19.5114819 42.1929406,16.0578735 42.0956596,12.6643018" id="Fill-68" fill="url(#linearGradient-24)" mask="url(#mask-23)"></path>
            </g>
            <path d="M155.340345,236.534132 C155.037993,233.720214 152.967469,231.351468 152.484367,228.498226 C152.236361,227.034833 152.260981,225.434256 151.876361,223.99878 C151.208305,221.505457 151.439797,222.572009 150.348989,223.399013 C148.65618,224.682297 147.228491,225.738041 145.296983,224.938653 C144.208577,224.488378 144.133514,221.169853 143.971379,225.275759 C143.921838,226.537129 144.347893,228.594285 144.44097,229.883572 C144.818384,235.10556 142.681205,240.486345 147.674663,244.139575 C149.756896,245.662705 152.497278,247.725565 154.511055,246.069754 C156.760528,244.220325 156.145616,239.130718 155.340345,236.534132" id="Fill-71" fill="#3C3C3B"></path>
            <path d="M178.540061,230.516058 C178.505232,227.786192 177.631805,225.167393 177.556142,222.45974 C177.532423,221.60842 177.813456,221.055183 176.840346,221.055782 C175.971423,221.056683 174.725085,222.104023 173.644485,222.156855 C172.469907,222.21359 171.321451,221.416603 170.290993,221.447522 C169.37493,221.474839 169.813896,221.343058 169.612128,222.093817 C169.312478,223.208397 169.716014,224.647476 169.413963,225.861717 C169.101102,227.118884 168.506007,228.222658 167.965557,229.386169 C166.258336,233.060712 164.388979,243.34379 169.092095,243.794064 C171.384203,244.013498 173.376062,241.517475 175.059263,239.463921 C177.234875,236.8094 178.948101,233.349188 178.540061,230.516058" id="Fill-72" fill="#3C3C3B"></path>
            <path d="M159.595188,143.977427 C158.573137,142.91688 157.728233,141.878546 157.522862,140.396541 C157.349018,139.140875 157.566999,137.694592 157.671486,136.436524 C157.874455,133.990931 158.268984,130.399238 158.134171,127.927829 C158.102945,127.351477 157.201895,127.347875 157.233421,127.927829 C157.409668,131.157801 156.806466,135.620625 156.620611,138.841892 C156.479794,141.285984 157.270052,142.862246 158.958057,144.614416 C159.360993,145.032571 159.997222,144.395282 159.595188,143.977427" id="Fill-73" fill="#254666"></path>
            <path d="M160.117322,56.7525771 C160.519357,51.1466547 158.798324,45.0589382 152.315627,44.8301986 C149.741283,44.7395433 147.179851,45.2816742 145.367241,47.2496757 C143.667826,49.0949022 143.475967,50.9215173 143.276,53.3130773 C142.822022,58.7427921 142.905792,67.2283725 147.938883,70.6933879 C153.103483,74.248158 158.0483,67.5477675 158.880893,62.8778165 C160.266246,63.651689 161.521291,60.8311671 161.56753,58.8061308 C161.597555,57.5030353 160.937906,56.7579804 160.117322,56.7525771" id="Fill-74" fill="#FFD2A8"></path>
            <path d="M183.05432,116.910203 C182.624662,113.254271 179.445315,109.893419 178.788668,108.690885 C176.494158,104.488319 176.961347,98.7773329 176.883883,94.1076821 C176.835542,91.1862986 177.245384,88.3735815 176.949037,85.4404909 C176.635876,82.3392976 176.138962,79.458739 176.829537,76.3662511 C177.405417,73.7879771 178.143131,71.5357021 178.135024,68.850863 C178.130821,67.4586131 177.975291,66.0471514 178.104399,64.6567025 C178.245816,63.1314714 178.884748,61.7080024 178.760445,60.1584564 C178.554774,57.6002946 178.102297,55.836718 178.726517,53.2350297 C179.4273,50.3142466 179.735957,47.8683534 179.730252,44.8680217 C179.728151,43.7147176 179.692421,42.4713586 180.158109,41.3858959 C180.679343,40.1707541 181.774354,39.4713271 181.798975,38.0613663 C181.834104,36.0516394 180.116974,33.6225564 178.383331,32.7412184 C176.913007,31.9937621 173.810223,31.4267159 172.281651,32.2597244 C170.303303,33.3373823 171.318449,37.3259173 171.288123,39.1474293 C171.238282,42.1528641 170.105739,44.7248343 169.115514,47.5102347 C168.078751,50.428016 167.357551,53.5424173 166.872647,56.5991835 C166.609328,58.2612982 166.545074,59.8228515 166.602422,61.496073 C166.638752,62.5479151 166.772964,63.7969777 166.217502,64.7539619 C165.523023,65.949892 164.072516,66.1194955 163.000623,66.8369335 C162.157521,67.4015782 161.604761,68.1913604 160.511851,68.2649053 C159.977106,68.3009273 159.626113,67.8737665 159.060743,67.936805 C158.403796,68.0097495 157.812303,68.5242636 157.257141,68.8220454 C156.284631,69.3437639 155.158394,69.694378 154.274157,70.3595841 C151.938513,72.1168569 152.181715,75.3270167 150.751024,77.6444314 C149.782718,75.1433045 146.573045,72.1979064 143.743489,73.6057659 C142.835834,74.0572415 141.514133,75.4278782 141.425259,76.5055361 C141.249613,78.6269312 143.231263,77.009844 144.00831,78.2655106 C144.7166,79.4104095 143.063423,80.3436793 142.356034,80.8999189 C140.968879,81.9904847 139.787696,83.2749688 138.718506,84.6816276 C136.294587,87.8710747 134.583763,91.5867431 134.656724,95.6593294 C134.731186,99.822571 136.12915,103.845327 135.731619,108.041889 C135.334688,112.228245 133.68001,116.121321 135.507632,120.235333 C136.4294,122.3102 139.052684,126.847169 141.969913,125.677055 C143.129778,125.211471 143.271496,123.761886 144.657751,123.712356 C146.203738,123.656822 146.767007,124.753391 148.394062,124.812227 C153.510922,124.99714 156.89504,124.812227 164.476352,123.176528 C168.998717,122.201233 173.491958,121.546833 178.175258,121.600566 C181.419159,121.638089 183.542226,121.063538 183.05432,116.910203" id="Fill-75" fill="#EDEDED"></path>
            <path d="M150.14632,95.0058304 C149.748489,93.848624 148.859749,91.2649466 148.001335,90.4556526 C147.139317,89.6433567 145.463021,89.6724745 144.377617,89.5749149 C141.452582,89.3125547 141.031031,92.7628611 140.624793,95.2189605 C140.335051,96.9720308 140.234468,98.7548191 139.674802,100.451155 C139.136153,102.085052 138.666863,103.365634 138.584894,105.109999 C138.510432,106.698869 138.311967,108.095622 137.771517,109.596838 C137.09025,111.487993 136.083211,113.300499 136.586731,115.388874 C136.936522,116.839059 137.900925,117.893003 139.026262,118.787549 C139.694919,119.319174 141.711097,120.906242 142.634366,120.690411 C145.142054,120.104753 144.338285,112.677919 144.165641,110.838996 C144.02032,109.290051 143.398802,107.51957 143.775016,105.973326 C144.091779,104.670831 145.123138,103.927877 145.886974,102.913858 C146.897315,101.57354 147.288241,99.9891727 148.101918,98.5566982 C148.671793,97.5531856 150.642934,96.4476106 150.14632,95.0058304" id="Fill-76" fill="#FFD2A8"></path>
            <g id="Group-79" transform="translate(148.227836, 75.450369)">
                <mask id="mask-26" fill="white">
                    <use xlink:href="#path-25"></use>
                </mask>
                <g id="Clip-78"></g>
                <path d="M8.06850524,41.2572104 C7.63644551,38.7314684 6.89272628,36.0364231 6.86570378,33.4728581 C6.84198403,31.2217838 6.82366878,29.8427419 5.9649538,27.7129417 C4.98523808,25.2823578 3.26210337,23.1396497 3.84608961,20.4229912 C4.54777384,17.1599992 2.72735814,15.3141723 1.43688367,12.4951514 C-0.536059026,8.18512011 4.12682335,4.65886736 2.76338814,0.320318716 C2.58654089,-0.242524896 1.71641641,-0.00207810496 1.89476491,0.565568439 C3.15641538,4.58051953 -1.08791851,7.89424254 0.272213953,12.0118563 C0.770929189,13.5208776 1.75664991,14.7837485 2.45983539,16.1889064 C3.05853388,17.3851366 3.33506412,18.5129252 3.06604013,19.8553447 C2.89279588,20.7219738 2.60785864,21.4009883 2.69102789,22.306341 C2.84295438,23.9657541 3.9848051,25.4378528 4.64475459,26.9162553 C5.19030882,28.1386016 5.79050856,29.4380949 6.00308555,30.7763119 C6.21175929,32.090214 5.89739755,33.4266299 6.06073355,34.7672483 C6.64141703,39.5380608 7.67757975,44.2926635 8.48765423,49.0283546 C8.58733723,49.612211 9.45566021,49.3645598 9.35627746,48.7831049 C8.92691997,46.2744734 8.49786273,43.7658419 8.06850524,41.2572104" id="Fill-77" fill="url(#linearGradient-27)" mask="url(#mask-26)"></path>
            </g>
            <path d="M160.249132,47.910379 C160.657772,47.4219809 160.455704,45.7574647 159.935071,44.8205927 C159.185346,43.4715692 157.539676,42.4194268 156.097576,42.205096 C152.730572,41.7046905 149.210441,38.1871431 143.55253,39.3410475 C141.718904,39.7150759 140.68154,40.3259488 141.357102,42.2117 C141.575684,42.8216724 142.542489,44.9965001 142.571914,45.6578039 C142.61545,46.6339998 142.115834,47.4438942 141.825492,48.3429431 C141.29465,49.9858461 140.887812,51.5266868 141.543858,53.4736754 C141.790663,54.2070231 142.115834,54.917857 142.286977,55.6707167 C142.437102,56.3317202 142.388761,58.8472559 142.665892,59.2657114 C143.355566,60.3070471 143.354065,57.4760188 143.341455,56.8315253 C143.320737,55.7622725 143.344457,53.0059899 143.514399,51.9487444 C143.894215,49.5848013 144.509727,48.0931906 147.230593,48.015143 C148.663986,47.9737177 150.111491,48.4363001 151.536478,48.5716827 C153.438562,48.7529934 154.765967,48.3843684 156.636224,48.8670631 C160.910883,49.969336 158.959859,54.7500546 158.722361,57.5903886 C158.683629,58.0574737 158.273187,59.6247305 158.715455,59.9576338 C159.474787,60.5282822 159.373003,59.3836834 159.558257,59.1492403 C160.445195,58.0280558 161.370566,57.1788373 161.917321,55.8250108 C162.499206,54.3841312 163.318588,52.7898579 162.862508,51.1607634 C162.495603,49.8495629 161.778906,48.5296571 160.249132,47.910379" id="Fill-80" fill="#634E42"></path>
            <path d="M179.853355,124.327431 C179.937425,123.695245 180.116974,121.93437 179.704731,121.487998 C179.330019,121.08305 178.414557,121.113669 177.115075,121.075246 C174.626003,121.002001 172.078982,121.276969 169.616331,121.627583 C167.108644,121.984501 162.391416,123.009026 159.936572,123.628604 C159.203662,123.813517 158.60076,123.959406 158.626281,124.453508 C158.654805,125.007946 158.821444,126.662557 158.896206,127.203787 C158.966464,127.711097 159.127999,127.892708 160.17437,127.711097 C162.177938,127.362884 165.471681,126.523572 167.458735,126.060689 C169.656265,125.549177 171.894328,125.218075 174.140498,124.99654 C176.262365,124.787312 179.719443,125.335146 179.853355,124.327431" id="Fill-81" fill="#474747"></path>
            <path d="M153.939389,127.58562 C153.936076,126.721993 153.900947,125.595105 153.873624,125.169445 C153.826785,124.436698 153.305851,124.553169 152.072124,124.52225 C150.796061,124.48983 147.380718,124.471219 146.071928,124.441801 C145.556999,124.430394 145.298784,124.381764 145.142955,125.048171 C144.988626,125.708274 144.896449,127.057598 144.988626,127.395904 C145.108126,127.834172 145.41378,128.046401 145.852445,128.146963 C146.382086,128.268237 151.546686,128.218106 152.954258,128.237318 C153.615409,128.246323 153.94148,128.084225 153.939389,127.58562" id="Fill-82" fill="#474747"></path>
            <path d="M159.759725,124.393772 C159.690967,123.870852 159.440259,123.533146 158.893504,123.533146 C157.443296,123.533746 154.703215,123.917381 154.180179,123.977417 C153.066852,124.105295 152.672624,123.99753 152.729071,125.019954 C152.747987,125.366966 152.782515,126.68477 152.957561,127.561605 C153.066852,128.108539 153.453874,128.351087 154.023749,128.351087 C155.47786,128.351087 158.041394,128.258331 159.147215,128.115744 C159.832685,128.02689 159.947981,127.512075 159.935671,127.053095 C159.91015,126.109919 159.889132,125.380774 159.759725,124.393772" id="Fill-83" fill="#878787"></path>
            <path d="M153.06415,63.1458802 C151.16627,62.6616846 149.271692,62.5010865 147.32337,62.9189416 C146.972378,62.9942876 147.108391,63.4709786 147.378616,63.5457243 C149.025487,64.0005019 152.369972,63.8305982 152.946752,63.6715011 C153.261714,63.5844479 153.399829,63.2317326 153.06415,63.1458802" id="Fill-84" fill="#FFFFFF"></path>
            <path d="M181.859926,113.342825 C178.604015,112.316198 175.226202,109.920736 174.757812,104.34153 C174.04622,95.8223289 170.997181,92.3059822 170.555814,89.4242229 C169.664071,83.5841576 172.20839,79.8871006 172.20839,72.9843865 C172.20839,66.1807329 170.55101,58.3957803 171.006189,52.821077 C171.38,48.2057594 171.605187,41.1097273 174.721782,39.6505365 C176.0639,39.0204518 178.657759,40.4250093 180.148801,41.4114115 C179.693922,42.4875684 179.729952,43.7258244 179.729952,44.8692224 C179.734456,47.8680532 179.428201,50.313346 178.725316,53.2353299 C178.104098,55.8382189 178.554473,57.5984935 178.761646,60.1563551 C178.882947,61.7098035 178.248218,63.1326721 178.104098,64.659104 C177.97349,66.0459506 178.131121,67.4595136 178.135625,68.8511632 C178.144332,71.5348015 177.405717,73.786176 176.829537,76.3662511 C176.140464,79.4596396 176.635876,82.3413989 176.951139,85.4392901 C177.243582,88.3750824 176.834041,91.1847977 176.883582,94.1070817 C176.960146,98.7764323 176.49626,104.485918 178.788368,108.691485 C179.220728,109.483669 180.7478,111.208222 181.859926,113.342825" id="Fill-85" fill="#E0E0E0"></path>
            <path d="M158.557824,43.2890577 C158.449734,43.3971237 158.305614,43.477873 158.116457,43.5367089 C156.729302,43.9644701 154.792689,41.312351 150.685269,41.9019109 C147.645238,42.3434805 146.073129,39.6238202 144.357501,40.7585129 C143.303323,41.4609417 143.420721,43.5322062 143.560337,45.50411 C143.614382,46.2698775 143.308127,47.6252049 142.389062,49.4668292 C141.600905,51.0472941 142.564708,53.8885286 141.997536,54.7080289 C141.848912,54.2979786 141.681973,53.8885286 141.542657,53.4742757 C140.889613,51.5290882 141.29465,49.9846454 141.826093,48.341142 C142.114333,47.445095 142.614249,46.6343 142.574016,45.6572035 C142.542489,44.9955996 141.574183,42.8207719 141.357703,42.2129008 C140.68214,40.3259488 141.718303,39.7138751 143.551329,39.340147 C149.212543,38.1871431 152.729671,41.7040901 156.098777,42.2035951 C156.922963,42.3254695 157.810202,42.7217114 158.557824,43.2890577" id="Fill-86" fill="#8A6C5B"></path>
        </g>
    </g>
</svg>