<?xml version="1.0" encoding="UTF-8"?>
<svg width="404px" height="290px" viewBox="0 0 404 290" version="1.1" xmlns="http://www.w3.org/2000/svg" xmlns:xlink="http://www.w3.org/1999/xlink">
    <title>graphic_SR22</title>
    <g id="graphic_SR22" stroke="none" stroke-width="1" fill="none" fill-rule="evenodd">
        <g id="Group-2" transform="translate(68.000000, 20.000000)">
            <path d="M219.695216,190.921929 C219.666469,191.567795 219.634528,192.212908 219.599393,192.857266 C219.589811,193.04869 219.57927,193.239737 219.567771,193.430406 C219.493029,194.748516 219.404233,196.063987 219.301382,197.376821 L219.289884,197.541868 C219.166591,199.116213 219.023495,200.687921 218.860595,202.256991 C218.840472,202.463864 218.819391,202.668476 218.797352,202.875349 C218.759022,203.237095 218.718138,203.598086 218.674698,203.958324 C218.006731,209.581719 216.850781,215.10927 215.225058,220.453909 C212.593577,229.110389 208.808959,237.216512 204.013729,244.467012 C199.639765,251.111399 194.443603,256.941925 188.599588,261.762958 C187.36155,262.780367 186.111375,263.730325 184.849063,264.612833 C184.657416,264.747734 184.467367,264.879997 184.278914,265.009622 C183.652229,265.439195 183.022351,265.853694 182.389278,266.253121 C181.95424,266.527445 181.518563,266.794232 181.082248,267.053483 C168.498728,274.549523 154.899481,276.357119 141.04247,276.599036 C136.179436,276.681559 131.286697,276.574166 126.392999,276.449816 C115.43656,276.172855 104.409211,275.622324 93.6846644,272.843668 C92.7168488,272.592707 91.7509497,272.322906 90.786967,272.034263 C90.5205781,271.955131 90.253231,271.873739 89.9878004,271.790085 C89.9264735,271.770867 89.8651465,271.75278 89.8047778,271.732432 C86.5669996,270.706773 83.3899737,269.430745 80.2943125,267.912628 C78.6570112,267.111513 77.0490958,266.244831 75.4705661,265.312584 C74.0063857,264.454192 72.5690357,263.543046 71.1585163,262.579146 C66.2316285,259.210401 61.616351,255.243991 57.3877458,250.744423 C55.6284295,248.877667 53.9355507,246.92575 52.3091094,244.888672 C51.548911,243.940598 50.8056413,242.973683 50.0793005,241.987927 C48.9760546,240.498742 47.9108186,238.97376 46.8835925,237.412979 C45.6193634,235.494222 44.4123089,233.524595 43.2624289,231.504096 C41.8365778,228.99901 40.5008006,226.423836 39.2550973,223.778574 C38.009394,221.133312 36.8595141,218.430019 35.8054575,215.668697 C35.73359,215.483303 35.663639,215.299039 35.5946462,215.113644 C35.5409851,214.972337 35.4892405,214.831031 35.4374959,214.690854 C35.0829496,213.737505 34.7414991,212.778503 34.4131445,211.813849 C34.0445441,210.737657 33.6903172,209.653928 33.3504638,208.562663 C33.2226994,208.163236 33.1010037,207.762679 32.9853769,207.360991 C30.6324694,199.527373 29.0765797,191.391786 28.3504025,183.125188 C27.9578506,178.650576 27.822111,174.149778 27.9441116,169.653568 C27.9441116,169.611741 27.9441116,169.568784 27.9441116,169.526957 C28.028191,166.372997 28.3194082,163.231473 28.8151457,160.130624 C29.4170506,156.350005 30.3562333,152.655099 31.6170198,149.107567 C34.6277888,140.657423 39.4189552,133.394256 45.7777913,127.566766 C55.5958495,118.575135 68.4802543,115.218817 76.2448186,102.696779 C86.2458994,86.5685917 74.9674936,70.3748385 79.421362,53.2959398 C85.812778,28.7922193 110.701929,27.3983695 127.493051,29.5224926 C127.945337,29.5790153 128.394749,29.635538 128.847035,29.7033652 C149.84001,32.6233278 171.555492,42.9579381 186.362113,63.2778484 C197.548529,78.6328048 205.728008,97.3440791 211.214852,117.251374 C212.795937,122.977123 214.152795,128.803483 215.292134,134.677322 C216.698108,141.9262 217.78936,149.255058 218.561626,156.63526 C218.609538,157.087441 218.655853,157.539623 218.70057,157.991805 C218.877524,159.768878 219.035632,161.549343 219.174896,163.3332 C219.227598,163.995646 219.277427,164.661483 219.322463,165.32619 C219.408066,166.522964 219.482808,167.720868 219.54669,168.919903 C219.944466,175.937462 220.007169,182.975868 219.734504,190.00174 C219.723005,190.309223 219.70959,190.616707 219.695216,190.921929 Z" id="Path-Copy-4" fill="#F4F4F5" fill-rule="nonzero" transform="translate(123.900788, 152.727247) scale(-1, 1) rotate(-270.000000) translate(-123.900788, -152.727247) "></path>
            <g id="document" transform="translate(27.063318, 0.000000)">
                <rect id="Rectangle" fill="#B7CFE2" fill-rule="nonzero" x="106.860401" y="0" width="133.131516" height="75.7999995" rx="4.484"></rect>
                <rect id="Rectangle" fill="#B7CFE2" fill-rule="nonzero" x="18.3013835" y="23.0959998" width="30.4289751" height="30.4299998" rx="4.8"></rect>
                <path d="M37.9647212,30.9719998 L40.8986224,33.9099998 L27.01709,47.7859997 C26.6292806,48.1717303 26.1041051,48.3875631 25.5571392,48.3860081 L23.7412003,48.3860081 C23.5733114,48.3860081 23.4371967,48.2498942 23.4371967,48.0819997 L23.4371967,46.3479997 C23.4352063,45.800929 23.6510986,45.2755735 24.0371903,44.8879997 L37.9647212,30.9719998 Z" id="Path" fill="#FFFFFF" fill-rule="nonzero"></path>
                <path d="M43.5985315,30.7179998 C43.5203903,31.1163157 43.3246373,31.4820586 43.0365504,31.7679998 L41.9145882,32.8859998 L38.980687,29.9539998 L40.0986493,28.8359998 C40.4880465,28.4460338 41.016516,28.2269064 41.5675999,28.2269064 C42.1186837,28.2269064 42.6471532,28.4460338 43.0365504,28.8359998 C43.3239458,29.1224556 43.5195785,29.4879739 43.5985315,29.8859998 C43.656556,30.1602979 43.656556,30.4437017 43.5985315,30.7179998 L43.5985315,30.7179998 Z" id="Path" fill="#FFFFFF" fill-rule="nonzero"></path>
                <path d="M161.828549,24.1439998 L161.828549,55.5699996 C161.828549,56.8051045 160.82968,57.8075924 159.594624,57.8119996 L127.557703,57.8119996 C126.319199,57.8119996 125.314883,56.8085455 125.313779,55.5699996 L125.313779,16.3999999 C125.314883,15.161454 126.319199,14.1579999 127.557703,14.1579999 L152.318869,14.1579999 L161.828549,24.1439998 Z" id="Path" fill="#D7E8F7" fill-rule="nonzero"></path>
                <path d="M152.318869,14.1519999 L152.318869,21.9019998 C152.318869,23.1402223 153.322613,24.1439998 154.560794,24.1439998 L161.828549,24.1439998 L152.318869,14.1519999 Z" id="Path" fill="#FFFFFF" fill-rule="nonzero"></path>
                <rect id="Rectangle" fill="#FFFFFF" fill-rule="nonzero" x="130.069619" y="28.3239998" width="27.0030904" height="3.17199998" rx="1.58599999"></rect>
                <rect id="Rectangle" fill="#FFFFFF" fill-rule="nonzero" x="130.069619" y="35.1379998" width="27.0030904" height="3.17199998" rx="1.58599999"></rect>
                <rect id="Rectangle" fill="#FFFFFF" fill-rule="nonzero" x="130.069619" y="41.9539997" width="13.5015452" height="3.17199998" rx="1.122"></rect>
                <path d="M162.516526,44.6279997 L165.126438,48.7139997 C165.237257,48.8872357 165.409398,49.0122388 165.608422,49.0639997 L170.298264,50.2839997 C170.567224,50.3541105 170.781999,50.5563137 170.868192,50.820568 C170.954386,51.0848223 170.900142,51.3747788 170.724249,51.5899996 L167.644353,55.3339996 C167.514479,55.4930599 167.448842,55.6949729 167.460359,55.8999996 L167.75035,60.7399996 C167.763899,61.0163626 167.636483,61.2807642 167.411882,61.4423532 C167.18728,61.6039423 166.896098,61.6407013 166.638387,61.5399996 L162.126539,59.7679996 C161.933579,59.6929874 161.719519,59.6929874 161.526559,59.7679996 L157.014711,61.5399996 C156.757001,61.6407013 156.465818,61.6039423 156.241217,61.4423532 C156.016615,61.2807642 155.889199,61.0163626 155.902749,60.7399996 L156.192739,55.8999996 C156.205249,55.6948452 156.139497,55.4925795 156.008745,55.3339996 L152.934849,51.5999996 C152.757843,51.3854024 152.702679,51.09527 152.788576,50.8306827 C152.874472,50.5660954 153.089534,50.3636962 153.358834,50.2939997 L158.050676,49.0739997 C158.2497,49.0222388 158.421841,48.8972357 158.53266,48.7239997 L161.132573,44.6379997 C161.279944,44.3982984 161.540411,44.2514396 161.821778,44.2493851 C162.103144,44.2473735 162.365706,44.390453 162.516526,44.6279997 Z" id="Path" fill="#FFFFFF" fill-rule="nonzero"></path>
                <path d="M219.872594,24.1439998 L219.872594,55.5699996 C219.872594,56.808222 218.86885,57.8119996 217.630669,57.8119996 L185.593749,57.8119996 C184.356025,57.8108969 183.352927,56.807765 183.351821,55.5699996 L183.351821,16.3999999 C183.350762,15.8045077 183.586432,15.2330127 184.006932,14.8113732 C184.427432,14.3897337 184.998276,14.1525297 185.593749,14.1519999 L210.356914,14.1519999 L219.872594,24.1439998 Z" id="Path" fill="#D7E8F7" fill-rule="nonzero"></path>
                <path d="M210.362914,14.1519999 L210.362914,21.9019998 C210.362914,23.1402223 211.366658,24.1439998 212.604839,24.1439998 L219.872594,24.1439998 L210.362914,14.1519999 Z" id="Path" fill="#FFFFFF" fill-rule="nonzero"></path>
                <rect id="Rectangle" fill="#FFFFFF" fill-rule="nonzero" x="188.113664" y="28.3239998" width="27.0030904" height="3.17199998" rx="1.58599999"></rect>
                <rect id="Rectangle" fill="#FFFFFF" fill-rule="nonzero" x="188.113664" y="35.1379998" width="27.0030904" height="3.17199998" rx="1.58599999"></rect>
                <rect id="Rectangle" fill="#FFFFFF" fill-rule="nonzero" x="188.113664" y="41.9539997" width="13.5015452" height="3.17199998" rx="1.122"></rect>
                <path d="M225.426407,48.3519997 L219.026622,56.3519996 C218.91989,56.4815469 218.763773,56.56046 218.596172,56.5695814 C218.428571,56.5787028 218.264813,56.5171985 218.144652,56.3999996 L214.544773,52.8119996 C213.765667,52.0418392 212.511975,52.0418392 211.732868,52.8119996 L211.68287,52.8639996 C211.309403,53.2365831 211.099516,53.7424529 211.099516,54.2699996 C211.099516,54.7975463 211.309403,55.3034162 211.68287,55.6759996 L217.082688,61.0659996 C217.476195,61.4597112 218.016741,61.6703986 218.57288,61.6468293 C219.129019,61.6232601 219.649802,61.3675936 220.008589,60.9419996 L228.498303,50.8779997 C229.160419,50.0921087 229.114465,48.9310968 228.392307,48.1999997 L228.392307,48.1999997 C227.992076,47.7996319 227.440924,47.5876427 226.875566,47.6166168 C226.310209,47.6455909 225.783614,47.9128138 225.426407,48.3519997 Z" id="Path" fill="#FFFFFF" fill-rule="nonzero"></path>
                <line x1="99.6526434" y1="38.3099997" x2="53.0042146" y2="38.3099997" id="Path" stroke="#B7CFE2" stroke-width="0.6" stroke-linecap="round" stroke-linejoin="round"></line>
                <path d="M173.426158,79.6439995 L173.426158,121.495999 C173.426158,124.146966 171.277198,126.295999 168.62632,126.295999 L158.426664,126.295999" id="Path" stroke="#B7CFE2" stroke-width="0.6" stroke-linecap="round" stroke-linejoin="round"></path>
                <path d="M5.14182681,136.905999 L5.14182681,136.905999 C6.71495539,134.567203 9.15060902,132.946975 11.9155986,132.399999 C16.0374598,131.579999 22.4472439,130.833999 28.8330288,132.199999 C29.8549357,132.425061 30.6112779,133.289249 30.698966,134.331999 L32.3369108,152.799999 C32.7784439,157.79926 36.9660324,161.632803 41.9845858,161.631999 L57.7200558,161.631999 C61.8243192,161.629114 65.6255489,163.792087 67.719719,167.321999 L68.3536976,168.389999 L61.7199211,170.271999 L7.72173991,170.271999 L3.39988548,155.317999 L5.14182681,136.905999 Z" id="Path" fill="#95B5E8" fill-rule="nonzero"></path>
                <polygon id="Path" fill="#95B5E8" fill-rule="nonzero" points="37.2387457 173.727999 26.3711117 239.999998 29.7669973 239.999998 44.7304933 173.727999"></polygon>
                <polygon id="Path" fill="#95B5E8" fill-rule="nonzero" points="64.5858245 173.727999 75.4534585 239.999998 72.0595728 239.999998 57.0940769 173.727999"></polygon>
                <path d="M1.59994611,141.935999 C1.27195716,147.799999 1.02196558,160.047999 3.8238712,168.659999 C4.82616051,171.692453 7.66394351,173.737146 10.8576343,173.728029 L68.3456979,173.728029 L68.3456979,168.379999 L15.0314937,168.379999 C12.6992008,168.381842 10.5312103,167.179463 9.29768682,165.199999 C6.89776766,161.329999 4.007865,153.177999 5.14182681,136.903999 L4.80783806,137.071999 C2.94267607,137.999589 1.71819958,139.856215 1.59994611,141.935999 Z" id="Path" fill="#6E99D6" fill-rule="nonzero"></path>
                <polygon id="Path" fill="#95B5E8" fill-rule="nonzero" points="10.865634 173.727999 0 239.999998 3.39388568 239.999998 18.3593816 173.727999"></polygon>
                <polygon id="Path" fill="#95B5E8" fill-rule="nonzero" points="38.2147128 173.727999 49.0803468 239.999998 45.6864611 239.999998 30.7229651 173.727999"></polygon>
                <polygon id="Path" fill="#FFD6D2" fill-rule="nonzero" points="71.1176045 218.493998 69.3856629 229.455998 70.451627 231.859998 79.8273112 230.581998 79.0553372 226.785998 81.8412433 216.873999"></polygon>
                <path d="M93.3368561,234.613998 C93.6834175,234.91021 93.9299892,235.306275 94.0428323,235.747998 C94.0724398,235.865902 94.0898639,235.986535 94.0948306,236.107998 C94.1796809,237.116868 93.5606996,238.051991 92.598881,238.367998 L91.1869285,238.829998 C88.8921666,239.5821 86.4920235,239.962895 84.077168,239.958045 L68.5536909,239.931998 C67.8549875,239.93119 67.1951622,239.610315 66.7630746,239.061218 C66.3309871,238.512121 66.1742647,237.795326 66.3377655,237.115998 L66.5637579,236.173998 L67.4397284,232.517998 C67.7306241,231.309665 68.415213,230.232439 69.3856629,229.455998 L69.3856629,229.455998 C72.2055679,233.067998 76.8214124,229.855998 76.8214124,229.855998 C76.7534147,227.777998 79.0553372,226.783998 79.0553372,226.783998 L88.7810096,232.819998 L92.6588789,234.219998 C92.9071513,234.308575 93.1369799,234.442138 93.3368561,234.613998 Z" id="Path" fill="#D67636" fill-rule="nonzero"></path>
                <path d="M94.0948306,236.107998 C94.1796809,237.116868 93.5606996,238.051991 92.598881,238.367998 L91.1869285,238.829998 C88.8921666,239.5821 86.4920235,239.962895 84.077168,239.957998 L68.5536909,239.931998 C67.8549875,239.93119 67.1951622,239.610315 66.7630746,239.061218 C66.3309871,238.512121 66.1742647,237.795326 66.3377655,237.115998 L66.5637579,236.173998 L67.8537145,236.007998 C69.3584682,235.815407 70.8415018,236.496803 71.6755857,237.763998 L71.6755857,237.763998 C71.9806732,238.224315 72.4878079,238.51061 73.0395398,238.533998 L83.5771848,238.961998 C84.1765925,238.987042 84.7541616,238.734762 85.1431321,238.277998 L85.2291292,238.177998 C85.5789202,237.763381 86.0870452,237.515117 86.629082,237.493998 C88.1670302,237.437998 91.5009179,237.199998 94.0948306,236.107998 Z" id="Path" fill="#C15316" fill-rule="nonzero"></path>
                <polygon id="Path" fill="#F49D98" fill-rule="nonzero" points="80.1593 222.857998 70.1476372 224.639998 71.1176045 218.493998 81.8412433 216.873999"></polygon>
                <polygon id="Path" fill="#FFD6D2" fill-rule="nonzero" points="50.4902993 217.603999 49.9823164 231.859998 59.3560007 230.581998 60.9319476 215.921999"></polygon>
                <path d="M74.0795048,234.613998 C74.4260662,234.91021 74.6726379,235.306275 74.785481,235.747998 C74.8147353,235.866038 74.8328144,235.98657 74.8394792,236.107998 C74.9235801,237.116676 74.3048788,238.051377 73.3435295,238.367998 L71.9295772,238.829998 C69.634896,239.582434 67.2346988,239.963238 64.8198167,239.958052 L49.2983395,239.931998 C48.5993576,239.931967 47.9390148,239.611296 47.5067554,239.06198 C47.0744959,238.512664 46.918092,237.795414 47.0824141,237.115998 L47.3064066,236.173998 L48.184377,232.517998 C48.4747419,231.309936 49.1586047,230.232746 50.1283115,229.455998 L50.1283115,229.455998 C52.9502165,233.067998 57.5640611,229.855998 57.5640611,229.855998 C57.4980633,227.777998 59.7999857,226.783998 59.7999857,226.783998 L69.5236582,232.819998 L73.4015276,234.219998 C73.6502128,234.307684 73.8801988,234.441338 74.0795048,234.613998 Z" id="Path" fill="#D67636" fill-rule="nonzero"></path>
                <path d="M74.8394792,236.107998 C74.9235801,237.116676 74.3048788,238.051377 73.3435295,238.367998 L71.9295772,238.829998 C69.634896,239.582434 67.2346988,239.963238 64.8198167,239.957998 L49.2983395,239.931998 C48.5993576,239.931967 47.9390148,239.611296 47.5067554,239.06198 C47.0744959,238.512664 46.918092,237.795414 47.0824141,237.115998 L47.3064066,236.173998 L48.598363,235.999998 C50.1036433,235.807584 51.5871698,236.48885 52.4222342,237.755998 L52.4222342,237.755998 C52.7264545,238.216251 53.2329882,238.502627 53.7841884,238.525998 L64.3218334,238.953998 C64.9212978,238.979345 65.4989939,238.727009 65.8877807,238.269998 L65.9737778,238.169998 C66.3237245,237.75558 66.8317556,237.507363 67.3737306,237.485998 C68.9096789,237.437998 72.2435666,237.199998 74.8394792,236.107998 Z" id="Path" fill="#C15316" fill-rule="nonzero"></path>
                <path d="M69.8336478,239.705998 C69.6679679,239.724224 69.5188838,239.604684 69.500659,239.438998 C69.4824342,239.273313 69.6019702,239.124224 69.76765,239.105998 C70.4636266,238.949998 71.1676028,238.757998 71.8355803,238.535998 L73.2495327,238.073998 C74.0802456,237.803738 74.6149048,236.996334 74.5394893,236.125998 C74.5346938,236.018081 74.5192867,235.910897 74.4934908,235.805998 C74.3975674,235.428278 74.1881681,235.08904 73.893511,234.833998 C73.7216176,234.685432 73.5235892,234.570138 73.3095307,234.493998 L69.4296614,233.093998 C69.3212791,233.064236 69.2386248,232.976386 69.2155155,232.866389 C69.1924063,232.756393 69.2327194,232.642706 69.3199612,232.571843 C69.407203,232.500979 69.526736,232.484828 69.6296546,232.529998 L73.507524,233.929998 C73.7894934,234.031749 74.0504531,234.184263 74.2774981,234.379998 C74.6706051,234.715722 74.9500701,235.164977 75.0774711,235.665998 C75.1128174,235.806215 75.1342537,235.949575 75.141469,236.093998 C75.2343497,237.236367 74.5298358,238.292759 73.4395263,238.645998 L72.0255739,239.107998 C71.3295974,239.335998 70.6256211,239.533998 69.9016455,239.693998 L69.8336478,239.705998 Z" id="Path" fill="#A03B08" fill-rule="nonzero"></path>
                <polygon id="Path" fill="#F49D98" fill-rule="nonzero" points="59.9599803 224.967998 50.1623104 226.785998 50.4902993 217.603999 60.9319476 215.921999"></polygon>
                <path d="M32.3689097,138.945999 L33.5148711,169.879999 L78.6613504,169.879999 L69.1056723,220.015998 C69.0285121,220.436338 69.1420372,220.869235 69.4155431,221.197608 C69.689049,221.525981 70.094276,221.715998 70.5216246,221.715998 L82.7452129,221.715998 C83.3926458,221.715998 83.9605173,221.284008 84.1331661,220.659998 L97.2487243,171.953999 C99.2698518,164.636568 95.3811779,156.984683 88.2790265,154.303999 L58.1780404,144.169999 L57.1340755,138.945999 L32.3689097,138.945999 Z" id="Path" fill="#5A3C2A" fill-rule="nonzero"></path>
                <path d="M43.6645292,152.061999 L33.516871,165.031999 L34.8628257,169.879999 L78.6613504,169.879999 C79.3152817,169.211079 79.6486227,168.292416 79.5758229,167.35978 C79.5030231,166.427145 79.0311701,165.571338 78.2813632,165.011999 L58.5420281,150.289999 C56.4851604,148.843791 53.8563995,148.480266 51.4842658,149.313999 L43.6645292,152.061999 Z" id="Path" fill="#000000" fill-rule="nonzero" opacity="0.3" style="mix-blend-mode: overlay;"></path>
                <path d="M15.8894648,138.945999 L14.0255276,153.469999 C13.4926616,157.619666 14.7710419,161.79799 17.5345438,164.939048 C20.2980457,168.080105 24.2794396,169.880158 28.4630413,169.879999 L57.062078,169.879999 L48.1323787,220.023998 C48.0578246,220.443462 48.1728349,220.874409 48.4464787,221.20094 C48.7201226,221.527471 49.1243072,221.716033 49.550331,221.716033 L61.7719193,221.716033 C62.4280263,221.720505 63.0039787,221.280298 63.1718722,220.645998 L75.8274459,171.341999 C77.7563165,164.084904 73.8788095,156.545678 66.8537481,153.893999 L36.5827678,144.169999 L35.536803,138.945999 L15.8894648,138.945999 Z" id="Path" fill="#5A3C2A" fill-rule="nonzero"></path>
                <path d="M76.1634346,170.799999 C76.4048842,170.799673 76.6097948,170.622814 76.6454183,170.383999 C77.6374872,163.362109 73.6461078,156.586242 67.0237424,154.049999 L52.54823,148.579999 C52.383005,148.507811 52.1914397,148.532616 52.050049,148.644507 C51.9086584,148.756398 51.8404865,148.937139 51.8727624,149.114538 C51.9050384,149.291938 52.032502,149.437082 52.2042416,149.491999 L66.679754,154.955999 C72.8744529,157.328859 76.6078086,163.66748 75.6794509,170.235999 C75.6412816,170.502489 75.8252445,170.749865 76.091437,170.789999 C76.1151143,170.79534 76.139198,170.798685 76.1634346,170.799999 Z" id="Path" fill="#2B160E" fill-rule="nonzero"></path>
                <polygon id="Path" fill="#000000" fill-rule="nonzero" opacity="0.3" style="mix-blend-mode: overlay;" points="42.4005718 138.945999 14.4515132 150.153999 15.8894648 138.945999"></polygon>
                <path d="M118.949993,135.553999 L121.11792,136.367999 L123.939825,136.649999 L127.491706,135.615999 L128.051687,137.539999 C128.139479,137.843102 128.433959,138.03794 128.747246,138.000206 C129.060533,137.962471 129.30033,137.70328 129.313644,137.387999 L129.373642,135.883999 L130.195615,137.799999 C130.337557,138.1393 130.722394,138.305608 131.066761,138.176466 C131.411128,138.047325 131.591724,137.668972 131.475571,137.319999 L130.875592,135.507999 L129.017654,132.599999 L131.447572,134.999999 L132.895524,138.045999 C133.072249,138.453033 133.545468,138.63973 133.952488,138.462999 C134.359508,138.286268 134.546199,137.813033 134.369474,137.405999 L133.181514,134.385999 L131.237579,131.841999 L118.949993,135.553999 Z" id="Path" fill="#F49D98" fill-rule="nonzero"></path>
                <path d="M119.503975,129.973999 L118.949993,135.553999 L130.563602,132.037999 C130.99556,131.908055 131.461365,131.954062 131.859559,132.165999 L135.209446,133.951999 L137.663363,137.251999 C137.853619,137.513648 138.177219,137.642781 138.495335,137.583999 C138.76816,137.537398 139.001347,137.361167 139.120651,137.111415 C139.239956,136.861663 139.230507,136.56952 139.095315,136.327999 L136.85139,132.315999 C136.756358,132.149197 136.618201,132.011035 136.451404,131.915999 L131.413574,128.999999 C131.029472,128.77629 130.583016,128.683626 130.141616,128.735999 L119.503975,129.973999 Z" id="Path" fill="#FFD6D2" fill-rule="nonzero"></path>
                <path d="M125.135785,132.873999 L128.011688,134.963999 L131.237579,136.663999 C131.58651,136.848699 131.755954,137.254511 131.641974,137.632509 C131.527994,138.010507 131.162461,138.254993 130.769595,138.215999 L126.995722,137.841999 L121.11792,136.367999 L118.949993,135.553999 L125.135785,132.873999 Z" id="Path" fill="#FFD6D2" fill-rule="nonzero"></path>
                <path d="M119.321981,131.799999 L118.949993,135.553999 L121.11792,136.367999 L126.995722,137.841999 L130.771595,138.217999 C131.109584,136.865999 128.615668,137.309999 128.615668,137.309999 C126.290592,136.91359 124.091406,135.97565 122.195884,134.571999 C122.073888,134.485999 121.955892,134.395999 121.841896,134.305999 C120.892171,133.588809 120.044426,132.745745 119.321981,131.799999 L119.321981,131.799999 Z" id="Path" fill="#F49D98" fill-rule="nonzero"></path>
                <path d="M119.897961,129.927999 L119.297982,135.949999 L87.6550475,132.809999 C83.5781661,132.404597 80.1473265,129.582309 78.9633403,125.659999 L69.9536437,95.7819993 L79.1973324,88.8959994 L83.6251832,85.5999994 C86.7761331,88.3934194 88.8587878,92.1947811 89.5169848,96.3539993 L93.4488523,121.103999 L119.897961,129.927999 Z" id="Path" fill="#F16322" fill-rule="nonzero"></path>
                <path d="M119.461976,134.311999 L119.299982,135.949999 L87.6570474,132.809999 C83.580166,132.404597 80.1493264,129.582309 78.9653402,125.659999 L69.9536437,95.7819993 L79.1973324,88.8959994 L83.8971741,123.219999 C84.2812839,126.024143 86.4230187,128.264368 89.2069952,128.773999 L119.461976,134.311999 Z" id="Path" fill="#CA521B" fill-rule="nonzero"></path>
                <path d="M83.6251832,85.5999994 L79.9313076,100.229999 C73.7515158,110.725999 70.5756228,111.681999 67.7057194,118.029999 C67.5577244,118.361999 67.4097294,118.695999 67.2677342,119.029999 C66.5637579,120.643999 65.9337791,122.229999 65.3717981,123.759999 C65.2438024,124.089999 65.1278063,124.415999 65.0098103,124.741999 C64.4098305,126.419999 63.8978477,128.017999 63.4518627,129.487999 C63.353866,129.823999 63.2518695,130.151999 63.1658724,130.471999 C62.6218907,132.327999 62.2119045,133.945999 61.9099147,135.227999 C61.8259175,135.579999 61.7479201,135.909999 61.6819223,136.211999 L61.5379272,136.863999 C61.3313695,137.826628 61.3505362,138.824017 61.5939253,139.777999 L61.9139145,141.063999 L62.0079114,141.429999 C62.0618459,141.642033 62.0986301,141.858064 62.1179077,142.075999 C62.323148,143.977223 61.3803367,145.81891 59.7179885,146.763999 C59.1941533,147.072047 58.6189076,147.282774 58.0200457,147.385999 C57.6960566,147.439999 57.3600679,147.493999 57.0200794,147.537999 C44.7744918,149.167999 24.3571796,143.481999 18.1053902,141.611999 C16.436015,141.135425 15.1355172,139.823515 14.6735057,138.149999 C14.6725407,138.138686 14.6725407,138.127312 14.6735057,138.115999 C14.5767763,137.750019 14.5098926,137.376795 14.4735125,136.999999 C14.3055181,135.531999 14.4735125,133.889999 14.9294971,132.117999 C15.0094944,131.801999 15.0954915,131.481999 15.199488,131.155999 C15.6743861,129.62568 16.262662,128.13288 16.9594288,126.689999 C17.0927576,126.385999 17.2387527,126.082666 17.397414,125.779999 C18.0893907,124.379999 18.8853639,122.955999 19.7633343,121.495999 C19.9373284,121.203999 20.1153224,120.907999 20.2993163,120.613999 C21.1552874,119.235333 22.0719232,117.840666 23.0492236,116.429999 C23.2492169,116.141999 23.4492102,115.851999 23.6492034,115.563999 C24.6131709,114.189999 25.621137,112.813999 26.661102,111.435999 C26.8790946,111.153999 27.1230864,110.883999 27.3150799,110.579999 C32.8628931,101.825999 39.1146825,91.1939994 44.0925148,85.6839994 C51.5242645,77.4499995 60.9379474,77.8299995 65.5637916,77.4459995 C68.4516943,77.2059995 69.9536437,78.0019995 69.9536437,78.0019995 C74.2354995,79.5459995 76.2934302,80.3279994 78.6913494,81.7139994 C82.3052277,83.7999994 83.6251832,85.5999994 83.6251832,85.5999994 Z" id="Path" fill="#F16322" fill-rule="nonzero"></path>
                <g id="Group" opacity="0.5" style="mix-blend-mode: overlay;" transform="translate(14.475512, 110.585999)" fill="#FFFFFF" fill-rule="nonzero">
                    <path d="M53.230207,7.44999995 C53.082212,7.78199995 52.934217,8.11599994 52.7922218,8.44999994 C47.0644147,8.22399994 40.9066221,7.39599995 34.9208238,6.29599996 C26.4711084,4.73799997 18.3453821,2.62399998 12.1855895,0.855999994 C12.4035822,0.573999996 12.6215749,0.285999998 12.8395675,0 C23.4172112,3.02599998 39.6226654,7.00199995 53.230207,7.44999995 Z" id="Path"></path>
                    <path d="M50.8962856,13.1739999 C50.76829,13.5039999 50.6522939,13.8299999 50.5342978,14.1559999 C45.1924778,13.8679999 39.5226687,13.0879999 33.9868552,12.0699999 C24.2451833,10.2699999 14.9294971,7.74399995 8.56771141,5.84399996 C8.76770467,5.55599996 8.96769794,5.26599996 9.1676912,4.97799997 C19.1973534,7.95999995 36.3347761,12.4479999 50.8962856,13.1739999 Z" id="Path"></path>
                    <path d="M48.9763503,18.9019999 C48.8783536,19.2379999 48.7763571,19.5659999 48.6903599,19.8859999 C43.6145309,19.5599999 38.2667111,18.8039999 33.0508867,17.8459999 C22.029258,15.8179999 11.5556108,12.8459999 5.28182209,10.9099999 C5.45581623,10.6179999 5.63381023,10.3219999 5.81780404,10.0279999 C15.1074911,12.8819999 33.3788757,17.9459999 48.9763503,18.9019999 Z" id="Path"></path>
                    <path d="M47.4344023,24.6419998 C47.3504051,24.9939998 47.2724077,25.3239998 47.2064099,25.6259998 C42.1457967,25.2356084 37.1104035,24.567939 32.122918,23.6259998 C19.9093294,21.3779999 8.37771781,17.9659999 2.47791654,16.1019999 C2.61124538,15.7979999 2.75724046,15.4946666 2.91590178,15.1919999 C11.2496211,17.8339999 30.7669637,23.5179998 47.4344023,24.6419998 Z" id="Path"></path>
                    <path d="M47.6423952,31.4899998 C42.3225744,31.1939998 36.6807645,30.4139998 31.1849496,29.4139998 C18.1653881,27.0139998 5.9198006,23.2999998 0.44798491,21.5419999 C0.527982216,21.2259999 0.613979319,20.9059999 0.717975816,20.5799999 C8.31771983,23.0299998 29.6670007,29.4699998 47.4384021,30.4879998 L47.532399,30.8539998 C47.5858097,31.0627606 47.6225903,31.2754265 47.6423952,31.4899998 Z" id="Path"></path>
                    <path d="M45.2524757,36.1779998 C44.7286406,36.4860475 44.1533949,36.6967747 43.5545329,36.7999997 C43.2305439,36.8539997 42.8945552,36.9079997 42.5545666,36.9519997 C38.5027031,36.5639997 34.3408433,35.9379998 30.2549809,35.1859998 C17.7494021,32.8839998 5.95779932,29.3659998 0.199993264,27.5299998 C0.103263823,27.1640196 0.0363800745,26.7907957 0,26.4139998 C7.58174462,28.8559998 27.9110599,34.9539998 45.2524757,36.1779998 Z" id="Path"></path>
                </g>
                <path d="M75.4814575,88.5279994 C66.3457653,88.0499994 64.6378228,80.1799994 64.3278332,77.5279995 C67.1277389,77.2799995 68.8536808,77.6979995 68.8536808,77.6979995 C73.1535359,78.8479995 76.3774274,80.3399994 78.6913494,81.7179994 C78.7673469,81.9179994 78.851344,82.1479994 78.9333413,82.3779994 C81.1712659,88.4559994 75.4814575,88.5279994 75.4814575,88.5279994 Z" id="Path" fill="#E8F1F9" fill-rule="nonzero"></path>
                <path d="M68.7456844,74.7579995 C68.7456844,74.7579995 65.3337993,62.6659996 68.5576908,55.0359996 C71.7815822,47.4059997 76.6874169,51.1299996 76.6874169,51.1299996 L82.3932247,56.7299996 L76.567421,68.9999995 L68.7456844,74.7579995 Z" id="Path" fill="#492C1E" fill-rule="nonzero"></path>
                <path d="M72.4835585,68.4599995 L66.1617715,77.4599995 L66.1477719,77.5039995 C65.9097799,83.6219994 76.5154227,90.2399994 78.2693636,84.6499994 L78.5133554,84.0159994 L81.5132544,77.8719995 L72.4835585,68.4599995 Z" id="Path" fill="#FFD6D2" fill-rule="nonzero"></path>
                <polygon id="Path" fill="#F49D98" fill-rule="nonzero" points="72.8275469 77.8539995 78.5133554 84.0099994 81.5092545 77.8659995"></polygon>
                <path d="M95.3667877,63.3879996 C95.3667877,63.3879996 91.4289204,71.2819995 87.2910597,77.3059995 C84.0331695,82.0479994 77.2133992,82.6499994 73.3135306,78.4179995 C71.2356005,76.1619996 69.8596469,73.0479995 70.8516135,68.8719995 C70.8516135,68.8719995 68.0197089,68.1239995 69.6616536,63.8259996 C71.3035983,59.5279996 74.6114868,61.7939996 74.7594819,63.1599996 L74.5014905,63.9879996 C74.3131766,64.5960567 74.4895989,65.2582455 74.9554753,65.6919995 L74.9554753,65.6919995 C75.0852675,65.8117395 75.2639338,65.8632411 75.4375444,65.8309586 C75.611155,65.7986762 75.7593679,65.6863924 75.8374455,65.5279995 L81.1852654,54.6619996 L95.3667877,63.3879996 Z" id="Path" fill="#FFD6D2" fill-rule="nonzero"></path>
                <path d="M80.5272876,73.2459995 C80.3968154,73.1852771 80.3336204,73.0355335 80.381138,72.8996907 C80.4286555,72.7638479 80.5714093,72.6861495 80.7112814,72.7199995 L83.2771949,73.3319995 L85.3431254,67.9479995 C85.3989644,67.8039107 85.5609737,67.732302 85.7051132,67.7879995 C85.846804,67.8463218 85.9173576,68.0059548 85.8651078,68.1499995 L83.7111803,73.7619995 C83.6602052,73.8922434 83.521471,73.965443 83.3851913,73.9339995 L80.5852856,73.2659995 C80.5652052,73.2617394 80.5457258,73.2550221 80.5272876,73.2459995 Z" id="Path" fill="#F49D98" fill-rule="nonzero"></path>
                <path d="M81.4134012,66.3972747 C81.764646,66.3972747 82.0493874,66.6820124 82.049392,67.0332572 L82.0494006,67.6952967 C82.0494052,68.0465356 81.7646736,68.3312747 81.4134347,68.3312793 C81.413432,68.3312793 81.4134292,68.3312793 81.4134264,68.3312793 C81.0621816,68.3312793 80.7774402,68.0465415 80.7774356,67.6952967 L80.777427,67.0332572 C80.7774224,66.6820183 81.062154,66.3972793 81.4133929,66.3972747 C81.4133956,66.3972747 81.4133984,66.3972747 81.4134012,66.3972747 Z" id="Rectangle" fill="#492C1E" fill-rule="nonzero" transform="translate(81.413414, 67.364277) rotate(25.410000) translate(-81.413414, -67.364277) "></path>
                <path d="M87.736746,69.8561385 C88.0879908,69.8561385 88.3727323,70.1408762 88.3727368,70.492121 L88.3727455,71.1541606 C88.3727501,71.5053994 88.0880184,71.7901385 87.7367796,71.7901431 C87.7367768,71.7901431 87.736774,71.7901431 87.7367713,71.7901431 C87.3855265,71.7901431 87.100785,71.5054053 87.1007804,71.1541606 L87.1007718,70.492121 C87.1007672,70.1408821 87.3854988,69.8561431 87.7367377,69.8561385 C87.7367405,69.8561385 87.7367432,69.8561385 87.736746,69.8561385 Z" id="Rectangle" fill="#492C1E" fill-rule="nonzero" transform="translate(87.736759, 70.823141) rotate(25.410000) translate(-87.736759, -70.823141) "></path>
                <path d="M84.4991538,65.6519995 C84.4400518,65.6393228 84.386692,65.6077271 84.3471589,65.5619995 C82.5072209,63.4419996 80.2612965,64.2379996 80.1672997,64.2739996 C80.0220537,64.329228 79.8595385,64.2562504 79.8043119,64.1109996 C79.7490853,63.9657487 79.8220604,63.803228 79.9673064,63.7479996 C81.7124369,63.2122042 83.6083554,63.7833689 84.7671448,65.1939996 C84.8168658,65.2505808 84.8418849,65.3247027 84.8366253,65.3998433 C84.8313656,65.474984 84.7962643,65.5448974 84.7391457,65.5939995 C84.6725933,65.6497477 84.5838187,65.6712023 84.4991538,65.6519995 L84.4991538,65.6519995 Z" id="Path" fill="#492C1E" fill-rule="nonzero"></path>
                <path d="M91.1509297,69.9519995 C91.0942598,69.9288647 91.0470498,69.8872903 91.0169342,69.8339995 C89.6169814,67.4099995 87.2510611,67.7719995 87.1510645,67.7879995 C86.998933,67.8121459 86.8555748,67.7097438 86.8290753,67.5579995 C86.8163372,67.4850301 86.8332459,67.4099942 86.8760495,67.3495414 C86.9188531,67.2890886 86.9840118,67.2482185 87.0570676,67.2359995 C88.8711601,67.03694 90.6260583,67.9523295 91.5009179,69.5539995 C91.5620817,69.6580108 91.5497359,69.7895082 91.4702813,69.8803165 C91.3908267,69.9711248 91.2621362,70.0008172 91.1509297,69.9539995 L91.1509297,69.9519995 Z" id="Path" fill="#492C1E" fill-rule="nonzero"></path>
                <path d="M81.1232675,75.9379995 C80.1822163,76.9255992 78.6379223,77.0179175 77.5859231,76.1494629 C76.5339238,75.2810084 76.3320017,73.74714 77.1234022,72.6359995 L81.1232675,75.9379995 Z" id="Path" fill="#FFFFFF" fill-rule="nonzero"></path>
                <path d="M80.7972785,57.7659996 C80.7972785,57.7659996 85.3151263,67.5059995 93.9828343,68.9659995 C95.4568895,69.2080141 96.9605909,68.7615267 98.0637325,67.7542766 C99.166874,66.7470265 99.7479235,65.2899816 99.6406438,63.7999996 C99.3166547,59.1299996 97.1867264,52.7239996 88.1170319,51.7779996 C88.1170319,51.7779996 82.2112309,45.7779997 76.6874169,51.1279996 L80.7972785,57.7659996 Z" id="Path" fill="#492C1E" fill-rule="nonzero"></path>
                <path d="M72.4735589,66.6119995 L72.4735589,66.6119995 C72.3660718,66.5584249 72.3141385,66.4341214 72.351563,66.3199995 C72.4175607,66.1199995 72.5655558,65.4879995 72.3775621,65.1879996 C72.3116135,65.0864274 72.2005666,65.0230763 72.0795721,65.0179996 C71.9915298,65.0112462 71.9143074,64.9566894 71.8785239,64.8759613 C71.8427404,64.7952331 71.8541765,64.701375 71.9082977,64.631602 C71.962419,64.561829 72.0504823,64.5274128 72.1375702,64.5419996 C72.4036161,64.5669219 72.6426597,64.7149415 72.7835484,64.9419996 C72.8451751,65.0424467 72.8891427,65.1527075 72.913544,65.2679996 C73.1575358,64.6859996 73.3135306,64.0479996 72.9855416,63.7659996 C72.3115643,63.1759996 71.5015916,63.8359996 71.4675927,63.8659996 C71.4185011,63.906888 71.3550318,63.9263209 71.291464,63.9199263 C71.2278963,63.9135317 71.1695689,63.8818466 71.1296041,63.8319996 C71.0885979,63.7834906 71.0688766,63.7204991 71.0748986,63.6572655 C71.0809207,63.594032 71.1121775,63.5358957 71.161603,63.4959996 C71.5615896,63.1659996 72.5235572,62.7219996 73.301531,63.4059996 C74.2634986,64.2499996 72.9335434,66.3059995 72.7775486,66.5379995 C72.7089458,66.6351654 72.5791433,66.6667632 72.4735589,66.6119995 Z" id="Path" fill="#F49D98" fill-rule="nonzero"></path>
                <path d="M116.09409,115.879999 L119.221984,117.709999 L122.661868,119.109999 C123.036922,119.259882 123.252208,119.655482 123.17441,120.051824 C123.096613,120.448166 122.74776,120.733024 122.343879,120.730023 L118.480009,120.730023 L112.372215,119.827999 L110.092292,119.227999 L116.09409,115.879999 Z" id="Path" fill="#F49D98" fill-rule="nonzero"></path>
                <path d="M106.860401,115.319999 L118.196019,112.845999 L124.503806,115.707999 L127.35971,119.799999 C127.522136,120.030816 127.562199,120.326197 127.467123,120.591941 C127.372047,120.857686 127.153704,121.06061 126.881726,121.135999 L126.881726,121.135999 C126.564962,121.225729 126.224717,121.12807 126.003756,120.883999 L123.19585,117.775999 L118.953993,116.025999 L121.179918,118.411999 L122.689867,121.353999 C122.824164,121.60829 122.815069,121.914424 122.665914,122.160293 C122.516758,122.406162 122.249454,122.555645 121.961892,122.553999 L121.961892,122.553999 C121.673787,122.553599 121.407138,122.401657 121.259916,122.153999 L119.473976,119.199999 L116.772067,117.027999 L118.943994,119.799999 L119.729967,121.575999 C119.826394,121.791748 119.806763,122.041687 119.677835,122.239734 C119.548906,122.437781 119.328297,122.556876 119.091989,122.556004 L119.091989,122.556004 C118.841528,122.551742 118.612555,122.41359 118.492009,122.193999 L117.470043,120.329999 L117.56204,121.859999 C117.57249,122.04065 117.508086,122.217632 117.383977,122.349313 C117.259868,122.480994 117.087009,122.555751 116.906062,122.556004 L116.906062,122.556004 C116.641408,122.551849 116.405006,122.389514 116.306082,122.143999 L115.544108,120.249999 L112.046226,121.649999 L109.158323,121.649999 L106.8784,121.049999 L106.860401,115.319999 Z" id="Path" fill="#FFD6D2" fill-rule="nonzero"></path>
                <path d="M113.140189,116.962025 C113.085029,116.962806 113.031301,116.944425 112.988194,116.909999 C112.936353,116.869426 112.902936,116.809766 112.895419,116.744365 C112.887902,116.678963 112.906911,116.613277 112.948196,116.561999 C114.810133,114.213999 116.820065,113.749999 116.904062,113.729999 C117.034677,113.707653 117.159781,113.791943 117.18813,113.921391 C117.21648,114.05084 117.138056,114.179705 117.010059,114.213999 L117.010059,114.213999 C116.992059,114.213999 115.080124,114.667999 113.334183,116.869999 C113.286832,116.92852 113.215465,116.962366 113.140189,116.962025 L113.140189,116.962025 Z" id="Path" fill="#F49D98" fill-rule="nonzero"></path>
                <path d="M115.526109,120.239999 L113.910163,118.305999 L114.156155,119.083999 C114.32851,119.627008 114.167397,120.220643 113.744169,120.601999 L113.038193,121.239999 L115.526109,120.239999 Z" id="Path" fill="#F49D98" fill-rule="nonzero"></path>
                <path d="M108.104359,122.881999 C108.125456,123.141347 107.936906,123.370625 107.678373,123.399999 L105.758438,123.621999 L103.376518,123.889999 L68.905679,127.829999 C64.1933918,128.368615 59.6343228,125.956732 57.4280656,121.757999 L45.898454,99.8179993 L45.898454,99.8179993 L45.0304832,98.1619993 C43.4995288,95.2546658 44.216506,91.6721628 46.7484254,89.5779994 L51.1302778,85.9539994 C52.7695554,84.5994318 54.9391145,84.0707097 57.017772,84.5192156 C59.0964295,84.9677216 60.8549798,86.3440005 61.7899187,88.2539994 L74.131503,113.473999 L105.186457,114.715999 L106.986396,114.787999 C107.228181,114.80155 107.42415,114.989042 107.448381,115.229999 L108.104359,122.881999 Z" id="Path" fill="#F16322" fill-rule="nonzero"></path>
                <path d="M103.406517,123.885999 L103.376518,123.885999 L68.905679,127.825999 C64.1933918,128.364615 59.6343228,125.952732 57.4280656,121.753999 L45.898454,99.8179993 L61.4199312,120.755999 C63.2538622,123.231278 66.173766,124.66407 69.2536673,124.599999 L103.406517,123.885999 Z" id="Path" fill="#CA521B" fill-rule="nonzero"></path>
                <path d="M79.4553237,113.921999 L79.4553237,113.921999 L74.1275031,113.709999 C74.0412002,113.704026 73.9647908,113.652066 73.9275099,113.573999 L64.5378262,94.4199994 C64.4798382,94.3007058 64.5295329,94.1569893 64.6488224,94.0989994 C64.7681119,94.0410095 64.9118237,94.0907058 64.9698116,94.2099994 L74.279498,113.235999 L79.4653233,113.435999 C79.5978672,113.438761 79.7030768,113.548451 79.7003686,113.680999 C79.6975541,113.813548 79.5878676,113.918761 79.4553237,113.915999 L79.4553237,113.921999 Z" id="Path" fill="#1B6D5D" fill-rule="nonzero"></path>
                <path d="M108.104359,122.881999 C108.125456,123.141347 107.936906,123.370625 107.678373,123.399999 L105.758438,123.621999 L105.182457,114.711999 L106.982396,114.783999 C107.224182,114.79755 107.42015,114.985042 107.444381,115.225999 L108.104359,122.881999 Z" id="Path" fill="#E8F1F9" fill-rule="nonzero"></path>
                <polygon id="Path" fill="#6E99D6" fill-rule="nonzero" points="131.897557 149.485999 138.973319 239.999998 135.579433 239.999998 124.40581 149.485999"></polygon>
                <rect id="Rectangle" fill="#B7CFE2" fill-rule="nonzero" x="94.9408021" y="142.215999" width="63.4958612" height="7.26999995" rx="1.44"></rect>
                <polygon id="Path" fill="#95B5E8" fill-rule="nonzero" points="113.080191 149.485999 98.2226915 239.999998 101.616577 239.999998 120.571939 149.485999"></polygon>
                <polygon id="Path" fill="#95B5E8" fill-rule="nonzero" points="137.863356 149.485999 152.720856 239.999998 149.32697 239.999998 130.371609 149.485999"></polygon>
                <path d="M145.029115,137.876014 L111.996228,137.876014 C111.746027,137.875627 111.514277,137.744309 111.38537,137.529865 C111.256462,137.315421 111.249208,137.049144 111.366249,136.827999 L121.749899,117.399999 C121.874507,117.169052 122.115467,117.024778 122.377878,117.023999 L155.410765,117.023999 C155.661094,117.023999 155.89308,117.155286 156.021753,117.370021 C156.150425,117.584756 156.156877,117.85129 156.038744,118.071999 L145.657094,137.507999 C145.531022,137.736483 145.290061,137.877688 145.029115,137.876014 L145.029115,137.876014 Z" id="Path" fill="#B7CFE2" fill-rule="nonzero"></path>
                <path d="M146.675059,137.876014 L113.642172,137.876014 C113.391844,137.876014 113.159857,137.744712 113.031185,137.529977 C112.902512,137.315243 112.896061,137.048708 113.014193,136.827999 L123.395844,117.399999 C123.520452,117.169052 123.761411,117.024778 124.023822,117.023999 L157.05671,117.023999 C157.307038,117.023999 157.539025,117.155286 157.667697,117.370021 C157.79637,117.584756 157.802821,117.85129 157.684689,118.071999 L147.303038,137.507999 C147.176966,137.736483 146.936005,137.877688 146.675059,137.876014 L146.675059,137.876014 Z" id="Path" fill="#D7E8F7" fill-rule="nonzero"></path>
                <path d="M151.934882,121.641999 L154.3688,121.641999 C154.550419,121.642043 154.716643,121.539986 154.798786,121.377999 L156.072743,118.829999 C156.146623,118.680894 156.13837,118.504225 156.05091,118.362658 C155.963451,118.22109 155.809157,118.134651 155.642757,118.133999 L153.208839,118.133999 C153.02691,118.134799 152.860797,118.237561 152.778854,118.399999 L151.504897,120.947999 C151.430763,121.096845 151.438946,121.273458 151.526525,121.414811 C151.614104,121.556165 151.768601,121.642118 151.934882,121.641999 Z" id="Path" fill="#95B5E8" fill-rule="nonzero"></path>
                <rect id="Rectangle" fill="#95B5E8" fill-rule="nonzero" transform="translate(114.655138, 141.697999) rotate(-180.000000) translate(-114.655138, -141.697999) " x="95.6067796" y="141.179999" width="38.0967168" height="1.03599999"></rect>
                <polygon id="Path" fill="#95B5E8" fill-rule="nonzero" points="121.475908 142.215999 156.122741 142.215999 151.882884 128.923999 117.236051 128.923999"></polygon>
                <polygon id="Path" fill="#6E99D6" fill-rule="nonzero" points="121.475908 142.215999 122.265882 142.215999 118.026024 128.923999 117.236051 128.923999"></polygon>
                <path d="M211.906862,197.133999 L211.930861,197.133999 C212.284718,197.120977 212.561214,196.823891 212.548841,196.469999 C211.948861,180.119999 222.148517,165.919999 222.240514,165.777999 C222.431518,165.491341 222.36226,165.105025 222.08357,164.902579 C221.80488,164.700132 221.416093,164.753714 221.202549,165.023999 C221.098553,165.169999 210.656904,179.729999 211.266884,196.515999 C211.279766,196.860385 211.562247,197.133166 211.906862,197.133999 L211.906862,197.133999 Z" id="Path" fill="#95B5E8" fill-rule="nonzero"></path>
                <path d="M207.299017,197.133999 C207.636648,197.133604 207.915894,196.87098 207.936996,196.533999 C209.31695,173.101999 192.101529,160.275999 191.937535,160.149999 C191.651435,159.961639 191.267853,160.031079 191.065939,160.307786 C190.864025,160.584492 190.914909,160.970986 191.18156,161.185999 C191.349555,161.307999 208.004994,173.743999 206.669039,196.457999 C206.658645,196.627484 206.716028,196.794153 206.828556,196.921315 C206.941084,197.048476 207.099532,197.125704 207.269018,197.135999 L207.299017,197.133999 Z" id="Path" fill="#95B5E8" fill-rule="nonzero"></path>
                <path d="M201.115226,197.133999 L201.141225,197.133999 C201.495099,197.119914 201.770724,196.821907 201.757204,196.467999 C201.357218,186.481999 196.109394,178.835999 189.557615,178.681999 L189.357622,178.681999 C183.373823,178.681999 179.571951,184.881999 179.409957,185.155999 C179.227709,185.459203 179.325755,185.852745 179.62895,186.034999 C179.932144,186.217253 180.325672,186.119203 180.50792,185.815999 C180.543919,185.757999 184.107799,179.965999 189.363622,179.965999 L189.533616,179.965999 C195.393419,180.103999 200.09926,187.221999 200.475247,196.521999 C200.490245,196.864481 200.772427,197.134327 201.115226,197.133999 Z" id="Path" fill="#95B5E8" fill-rule="nonzero"></path>
                <path d="M221.722532,165.399999 C221.722532,165.399999 222.454507,175.477999 230.522235,173.459999 C232.808158,172.891999 234.722094,171.343999 236.228043,169.223999 C234.5441,169.151999 232.346174,168.951999 230.522235,168.423999 C227.042352,167.423999 229.146282,161.093999 231.710195,163.567999 C233.35614,165.153999 236.31004,165.495999 238.201977,165.537999 C240.321905,160.297999 240.641894,153.563999 238.761958,148.549999 C236.334039,142.069999 223.670466,143.245999 216.658702,148.785999 C216.568705,151.267999 216.658702,155.147999 217.974658,156.883999 C219.99259,159.537999 219.136619,161.605999 216.632703,160.021999 C214.880762,158.913999 213.906795,154.673999 213.474809,152.233999 C212.694579,153.440551 212.197513,154.80804 212.020858,156.233999 C210.718902,167.415999 221.722532,165.399999 221.722532,165.399999 Z M236.830023,152.799999 C237.382004,152.433999 238.159978,152.799999 238.159978,152.799999 C238.847955,153.167999 238.937952,155.091999 238.799956,156.279999 C238.661961,157.467999 236.33004,155.915999 236.146046,154.907999 C235.962052,153.899999 236.284041,153.175999 236.830023,152.799999 Z M224.376442,150.325999 C225.202414,149.641999 226.394374,150.325999 226.394374,150.325999 C228.224313,151.749999 226.162382,152.799999 225.194415,152.799999 C224.226447,152.799999 223.55247,151.021999 224.376442,150.333999 L224.376442,150.325999 Z" id="Shape" fill="#D7E8F7" fill-rule="nonzero"></path>
                <path d="M194.495449,221.083999 L216.908694,221.083999 C217.480866,221.083673 217.98355,220.704199 218.140652,220.153998 L225.482405,194.469999 C225.593567,194.083068 225.516522,193.666391 225.274352,193.344797 C225.032182,193.023203 224.653016,192.833999 224.250447,192.833999 L187.529683,192.833999 C187.130526,192.834558 186.754331,193.020732 186.511775,193.337751 C186.269219,193.654769 186.187894,194.066569 186.291725,194.451999 L193.25949,220.137998 C193.410417,220.696379 193.917049,221.083999 194.495449,221.083999 L194.495449,221.083999 Z" id="Path" fill="#B7CFE2" fill-rule="nonzero"></path>
                <path d="M223.278479,163.539999 C223.436847,163.539409 223.582071,163.451811 223.656467,163.311999 C227.962321,155.181999 236.282041,148.311999 236.366038,148.239999 C236.489896,148.14495 236.552172,147.989997 236.52854,147.835668 C236.504908,147.681339 236.399118,147.552122 236.252494,147.498494 C236.105871,147.444865 235.941679,147.475334 235.824057,147.577999 C235.73806,147.647999 227.286344,154.631999 222.900492,162.911999 C222.791424,163.120891 222.870802,163.378656 223.078486,163.489999 C223.140022,163.522866 223.208717,163.539999 223.278479,163.539999 L223.278479,163.539999 Z" id="Path" fill="#B7CFE2" fill-rule="nonzero"></path>
                <path d="M200.539245,152.321999 C200.3849,151.069606 199.949389,149.868322 199.265288,148.807999 C198.887301,150.947999 198.03333,154.663999 196.497381,155.633999 C194.297455,157.033999 193.55348,155.209999 195.321421,152.883999 C196.471382,151.363999 196.553379,147.961999 196.473382,145.785999 C190.327589,140.931999 179.229963,139.901999 177.102035,145.585999 C175.45409,149.985999 175.734081,155.883999 177.592018,160.475999 C179.259962,160.437999 181.839875,160.137999 183.281826,158.747999 C185.529751,156.579999 187.371689,162.119999 184.323791,163.003999 C182.723845,163.463999 180.79791,163.639999 179.32396,163.703999 C180.639915,165.561999 182.323859,166.917999 184.323791,167.415999 C191.387553,169.183999 192.027532,160.351999 192.027532,160.351999 C192.027532,160.351999 201.673207,162.113999 200.539245,152.321999 Z M179.393957,151.157999 C179.233963,152.041999 177.194032,153.403999 177.068036,152.357999 C176.94204,151.311999 177.028037,149.629999 177.630017,149.307999 C177.630017,149.307999 178.311994,148.985999 178.795978,149.307999 C179.279961,149.629999 179.547952,150.273999 179.393957,151.157999 Z M188.993634,149.309999 C188.149662,149.309999 186.345723,148.389999 187.947669,147.141999 C187.947669,147.141999 188.993634,146.541999 189.71561,147.141999 C190.437585,147.741999 189.821606,149.309999 188.979635,149.309999 L188.993634,149.309999 Z" id="Shape" fill="#D7E8F7" fill-rule="nonzero"></path>
                <path d="M190.665578,158.715999 C190.526434,158.715999 190.39872,158.638962 190.333589,158.515999 C186.559716,151.391999 179.267962,145.365999 179.193964,145.305999 C179.049727,145.170504 179.035204,144.946392 179.160748,144.793414 C179.286292,144.640435 179.508923,144.61096 179.669948,144.725999 C179.743946,144.787999 187.151696,150.907999 190.995567,158.165999 C191.042643,158.253657 191.052641,158.356522 191.023328,158.451605 C190.994015,158.546689 190.927833,158.626067 190.839572,158.671999 C190.786094,158.700801 190.726318,158.715999 190.665578,158.715999 L190.665578,158.715999 Z" id="Path" fill="#B7CFE2" fill-rule="nonzero"></path>
                <path d="M169.090304,184.503999 C168.314974,185.498776 167.773601,186.655385 167.506358,187.887999 C169.286298,186.643999 172.518189,184.619999 174.290129,185.019999 C176.824044,185.589999 176.072069,187.401999 173.178167,187.795999 C171.28823,188.057999 168.826313,190.395999 167.342363,191.995999 C168.256333,199.773999 175.376093,208.349999 180.895907,205.839999 C185.167763,203.897999 189.143629,199.525999 191.077564,194.963999 C189.877604,193.811999 187.835673,192.199999 185.831741,192.163999 C182.709846,192.107999 185.323758,186.887999 188.105664,188.417999 C189.561615,189.217999 191.047565,190.459999 192.135528,191.459999 C192.519515,189.215999 192.289523,187.059999 191.225559,185.297999 C187.479685,179.051999 180.781911,184.845999 180.781911,184.845999 C180.781911,184.845999 175.212098,176.777999 169.090304,184.503999 Z M183.223828,200.283999 C183.961804,199.773999 186.373722,200.255999 185.717744,201.083999 C185.061767,201.911999 183.819808,203.041999 183.16583,202.843999 C183.16583,202.843999 182.455854,202.589999 182.341858,202.019999 C182.227862,201.449999 182.483853,200.799999 183.223828,200.283999 Z M175.134101,194.799999 C175.734081,195.399999 176.35606,197.325999 174.334128,197.073999 C174.334128,197.073999 173.172167,196.757999 173.08417,195.823999 C172.996173,194.889999 174.538121,194.209999 175.134101,194.799999 Z" id="Shape" fill="#D7E8F7" fill-rule="nonzero"></path>
                <path d="M180.593917,186.963999 C180.692809,187.062055 180.729029,187.206939 180.687914,187.339999 C178.317994,195.045999 179.213963,204.463999 179.223963,204.557999 C179.244397,204.764001 179.09397,204.947564 178.887974,204.967999 C178.681979,204.988433 178.498422,204.838001 178.477988,204.631999 C178.467989,204.535999 177.558019,194.967999 179.971938,187.119999 C180.000525,187.024656 180.066127,186.944747 180.154075,186.89814 C180.242023,186.851534 180.34498,186.842118 180.439922,186.871999 C180.49809,186.889416 180.551012,186.921032 180.593917,186.963999 L180.593917,186.963999 Z" id="Path" fill="#B7CFE2" fill-rule="nonzero"></path>
                <rect id="Rectangle" fill="#95B5E8" fill-rule="nonzero" transform="translate(205.890065, 210.994999) rotate(-180.000000) translate(-205.890065, -210.994999) " x="188.703644" y="209.143999" width="34.3728422" height="3.70199997" rx="0.944"></rect>
                <path d="M216.322714,212.845999 L223.392475,239.399998 C223.429556,239.543613 223.39816,239.696305 223.307426,239.813638 C223.216691,239.930971 223.076811,240 222.928491,240 L221.568537,240 C221.36968,240.000519 221.191275,239.877861 221.120552,239.691998 L210.760901,212.845999 L216.322714,212.845999 Z" id="Path" fill="#95B5E8" fill-rule="nonzero"></path>
                <path d="M195.455416,212.845999 L188.393654,239.399998 C188.356574,239.543613 188.387969,239.696305 188.478704,239.813638 C188.569438,239.930971 188.709319,239.999998 188.857639,239.999998 L190.217593,239.999998 C190.416272,239.999998 190.594384,239.87749 190.665578,239.691998 L201.025229,212.845999 L195.455416,212.845999 Z" id="Path" fill="#95B5E8" fill-rule="nonzero"></path>
            </g>
        </g>
    </g>
</svg>