<?xml version="1.0" encoding="UTF-8"?>
<svg width="112px" height="77px" viewBox="0 0 112 77" version="1.1" xmlns="http://www.w3.org/2000/svg" xmlns:xlink="http://www.w3.org/1999/xlink">
    <title>icon_auto</title>
    <g id="icon_auto" stroke="none" stroke-width="1" fill="none" fill-rule="evenodd">
        <g id="car-14" transform="translate(9.000000, 14.000000)" fill-rule="nonzero">
            <path d="M82.9549265,21.9361902 L77.8980248,21.0926038 C76.5916547,20.8761616 75.4524468,20.0804516 74.7974963,18.9269571 L67.8135962,6.67802408 C65.4563553,2.55325858 61.0791483,0.00628660693 56.3367939,0 L31.7881281,0 C27.0460778,0.00598403197 22.6689415,2.55235331 20.3113258,6.67655185 L13.1878946,19.1713469 C12.5892508,20.2154377 11.5932006,20.9710194 10.4281158,21.2648545 L5.56068258,22.4838589 C3.09652867,23.1021504 1.12816341,24.9564954 0.359843431,27.3834321 C0.343687196,27.42171 0.342218447,27.467349 0.328999709,27.5070992 C0.116357172,28.1933023 0.00550558365,28.9071115 0,29.6256346 L0,39.7501433 C0.00485585407,43.8135696 3.28991902,47.1064136 7.3437435,47.111281 L12.7560825,47.111281 C14.4516914,50.7068138 18.0636214,53 22.0312305,53 C25.9988396,53 29.6107696,50.7068138 31.3063785,47.111281 L62.6935382,47.111281 C64.3891471,50.7068138 68.0010772,53 71.9686863,53 C75.9362954,53 79.5482254,50.7068138 81.2438343,47.111281 L86.6561733,47.111281 C90.7099977,47.1064136 93.9950609,43.8135696 93.9999585,39.7501433 L93.9999585,35.005154 C94.0160757,28.5224556 89.3369746,22.9859181 82.9549265,21.9361902 Z M89.4379833,29.4445506 C90.0188991,30.3521662 90.4535884,31.345824 90.7260759,32.3890057 L89.5936707,32.3890057 C88.4284724,32.3887188 87.3105001,31.9273492 86.4828609,31.1052233 C86.0176327,30.635285 85.6615668,30.0682518 85.4400493,29.4445506 L89.4379833,29.4445506 Z M2.95218489,29.4445506 L5.46227641,29.4445506 L4.72790206,32.3890057 L2.9374974,32.3890057 L2.9374974,29.6256346 C2.9374974,29.563801 2.95071614,29.5049119 2.95218489,29.4445506 Z M22.0312305,50.0557361 C17.975393,50.0557361 14.687487,46.7600425 14.687487,42.6945984 C14.687487,38.6291543 17.975393,35.3334607 22.0312305,35.3334607 C26.087068,35.3334607 29.374974,38.6291543 29.374974,42.6945984 C29.3701181,46.7580246 26.085055,50.0508687 22.0312305,50.0557361 L22.0312305,50.0557361 Z M71.9686863,50.0557361 C67.9128487,50.0557361 64.6249428,46.7600425 64.6249428,42.6945984 C64.6249428,38.6291543 67.9128487,35.3334607 71.9686863,35.3334607 C76.0245238,35.3334607 79.3124298,38.6291543 79.3124298,42.6945984 C79.3075739,46.7580246 76.0225108,50.0508687 71.9686863,50.0557361 L71.9686863,50.0557361 Z M86.6561733,44.1668259 L82.1324273,44.1668259 C82.7424208,40.1572898 80.9494504,36.1619588 77.551716,33.9594864 C74.1539816,31.7570139 69.7833909,31.7570139 66.3856565,33.9594864 C62.9879221,36.1619588 61.1949518,40.1572898 61.8049453,44.1668259 L32.1949715,44.1668259 C32.804965,40.1572898 31.0119946,36.1619588 27.6142602,33.9594864 C24.2165258,31.7570139 19.8459352,31.7570139 16.4482008,33.9594864 C13.0504664,36.1619588 11.257496,40.1572898 11.8674895,44.1668259 L7.3437435,44.1668259 C4.91024097,44.1668259 2.9374974,42.1894098 2.9374974,39.7501433 L2.9374974,35.3334607 L5.8749948,35.3334607 C6.54867955,35.333443 7.13597564,34.8740243 7.29968104,34.2189845 L8.76842974,28.3300744 C8.87836202,27.8901987 8.77992891,27.4240855 8.50160879,27.0665893 C8.22328866,26.7090931 7.79613973,26.5001075 7.3437435,26.5000956 L4.24321499,26.5000956 C4.80315491,25.9366452 5.50522864,25.5361819 6.27449444,25.3414525 L11.1433964,24.1209759 C13.0832541,23.6300399 14.7412256,22.3708649 15.7376423,20.6317966 L22.8610735,8.13700156 C24.6952471,4.92948715 28.0998012,2.94918054 31.7881281,2.94445506 L56.3367939,2.94445506 C60.0251208,2.94918054 63.4296748,4.92948715 65.2638485,8.13700156 L72.2462798,20.3859346 C73.3371014,22.3099047 75.2365218,23.6370755 77.4148065,23.9973088 L82.4717082,24.8423674 C83.9504068,25.0875924 85.3579017,25.6533307 86.5959546,26.5000956 L83.7186759,26.5000956 C82.9075084,26.5000956 82.2499272,27.1592343 82.2499272,27.9723231 C82.247976,29.9252171 83.021063,31.7986879 84.3987052,33.1795932 C85.7763475,34.5604985 87.6453913,35.3354166 89.5936707,35.3334607 L91.0624194,35.3334607 L91.0624194,39.7501433 C91.0624194,42.1894098 89.0896758,44.1668259 86.6561733,44.1668259 Z" id="Shape" fill="#383D3B"></path>
            <path d="M66.2620024,14.553587 C65.8437233,13.8432107 64.9400526,13.613197 64.2435975,14.039837 C63.5471424,14.4664769 63.3216362,15.3882107 63.7399154,16.098587 L65.932587,19.826087 L47.9412094,19.826087 L47.9412094,7.82608696 L56.3751272,7.82608696 C57.9240992,7.83041471 59.3585651,8.65893912 60.158993,10.011587 L61.0913564,11.598587 C61.5096355,12.3089632 62.4133062,12.5389769 63.1097613,12.112337 C63.8062164,11.685697 64.0317225,10.7639632 63.6134434,10.053587 L62.6796094,8.46658696 C61.3458598,6.213112 58.9558073,4.83298499 56.3751272,4.82608696 L46.4706047,4.82608696 C45.6584121,4.82608696 45,5.49765983 45,6.32608696 L45,21.326087 C45,22.1545141 45.6584121,22.826087 46.4706047,22.826087 L68.5296748,22.826087 C69.0595972,22.826087 69.5484844,22.5350867 69.8093971,22.0646272 C70.0703098,21.5941676 70.0628931,21.0169109 69.789983,20.553587 L66.2620024,14.553587 Z" id="Path" fill="#F16322"></path>
            <path d="M40.5293953,4.82608696 L30.6248728,4.82608696 C28.0441927,4.83298499 25.6541402,6.213112 24.3203906,8.46658696 L17.210017,20.553587 C16.9371069,21.0169109 16.9296902,21.5941676 17.1906029,22.0646272 C17.4515156,22.5350867 17.9404028,22.826087 18.4703252,22.826087 L40.5293953,22.826087 C41.3415879,22.826087 42,22.1545141 42,21.326087 L42,6.32608696 C42,5.49765983 41.3415879,4.82608696 40.5293953,4.82608696 Z M39.0587906,19.826087 L21.067413,19.826087 L26.841007,10.011587 C27.6414349,8.65893912 29.0759008,7.83041471 30.6248728,7.82608696 L39.0587906,7.82608696 L39.0587906,19.826087 Z" id="Shape" fill="#F16322"></path>
            <path d="M49.5,24 L46.5,24 C45.6715729,24 45,24.6715729 45,25.5 C45,26.3284271 45.6715729,27 46.5,27 L49.5,27 C50.3284271,27 51,26.3284271 51,25.5 C51,24.6715729 50.3284271,24 49.5,24 Z" id="Path" fill="#F16322"></path>
            <path d="M21.5,24 L18.5,24 C17.6715729,24 17,24.6715729 17,25.5 C17,26.3284271 17.6715729,27 18.5,27 L21.5,27 C22.3284271,27 23,26.3284271 23,25.5 C23,24.6715729 22.3284271,24 21.5,24 Z" id="Path" fill="#F16322"></path>
            <path d="M71.5,39 C69.0147186,39 67,41.0147186 67,43.5 C67,45.9852814 69.0147186,48 71.5,48 C73.9852814,48 76,45.9852814 76,43.5 C76,41.0147186 73.9852814,39 71.5,39 Z M71.5,45 C70.6715729,45 70,44.3284271 70,43.5 C70,42.6715729 70.6715729,42 71.5,42 C72.3284271,42 73,42.6715729 73,43.5 C73,44.3284271 72.3284271,45 71.5,45 Z" id="Shape" fill="#F16322"></path>
            <path d="M21.5,39 C19.0147186,39 17,41.0147186 17,43.5 C17,45.9852814 19.0147186,48 21.5,48 C23.9852814,48 26,45.9852814 26,43.5 C26,41.0147186 23.9852814,39 21.5,39 Z M21.5,45 C20.6715729,45 20,44.3284271 20,43.5 C20,42.6715729 20.6715729,42 21.5,42 C22.3284271,42 23,42.6715729 23,43.5 C23,44.3284271 22.3284271,45 21.5,45 Z" id="Shape" fill="#F16322"></path>
        </g>
    </g>
</svg>