<?xml version="1.0" encoding="UTF-8"?>
<svg width="25px" height="25px" viewBox="0 0 25 25" version="1.1" xmlns="http://www.w3.org/2000/svg" xmlns:xlink="http://www.w3.org/1999/xlink">
    <title>icon_accordion-plus</title>
    <g id="icon_accordion-plus" stroke="none" stroke-width="1" fill="none" fill-rule="evenodd">
        <path d="M12.5009549,0.408033891 C13.3849126,0.408033891 14.1015019,1.12462319 14.1015019,2.0085809 L14.1006859,10.9020339 L23.0066295,10.9025668 C23.8905872,10.9025668 24.6071765,11.6191561 24.6071765,12.5031138 C24.6071765,13.3870715 23.8905872,14.1036608 23.0066295,14.1036608 L14.1006859,14.1030339 L14.1015019,23.0039775 C14.1015019,23.8879352 13.3849126,24.6045245 12.5009549,24.6045245 C11.6169972,24.6045245 10.9004079,23.8879352 10.9004079,23.0039775 L10.8996859,14.1030339 L2.01123292,14.1036608 C1.12727522,14.1036608 0.410685917,13.3870715 0.410685917,12.5031138 C0.410685917,11.6191561 1.12727522,10.9025668 2.01123292,10.9025668 L10.8996859,10.9020339 L10.9004079,2.0085809 C10.9004079,1.12462319 11.6169972,0.408033891 12.5009549,0.408033891 Z" id="plus" fill="#F16322"></path>
    </g>
</svg>