<?xml version="1.0" encoding="UTF-8"?>
<svg width="60px" height="60px" viewBox="0 0 60 60" version="1.1" xmlns="http://www.w3.org/2000/svg" xmlns:xlink="http://www.w3.org/1999/xlink">
    <title>icon_anti-theft</title>
    <g id="icon_anti-theft" stroke="none" stroke-width="1" fill="none" fill-rule="evenodd">
        <g id="Group" transform="translate(15.000000, 9.000000)" fill-rule="nonzero">
            <path d="M15.5,0 C9.15892349,0 4,5.20942206 4,11.6126498 L4,17.2988002 C4,17.6860154 4.31118157,18 4.69464326,18 L8.54987723,18 C8.93333891,18 9.24427981,17.6860154 9.24427981,17.2988002 L9.24427981,11.6126498 C9.24427981,8.12949478 12.0505295,5.29569491 15.4999198,5.29569491 C18.9493101,5.29569491 21.7555597,8.12949478 21.7555597,11.6126498 L21.7555597,17.2988002 C21.7555597,17.6860154 22.0668215,18 22.4503634,18 L26.3055974,18 C26.6890591,18 27,17.6860154 27,17.2988002 L27,11.6126498 C27,5.20942206 21.8411567,0 15.5,0 Z M25.611275,16.5976004 L23.1446056,16.5976004 L23.1446056,11.6126498 C23.1446056,7.35619841 19.7152708,3.89329529 15.5001604,3.89329529 C11.2850501,3.89329529 7.8557153,7.35619841 7.8557153,11.6126498 L7.8557153,16.5976004 L5.38904585,16.5976004 L5.38904585,11.6126498 C5.38904585,5.98271843 9.92480398,1.40248063 15.5000802,1.40248063 C21.0754367,1.40248063 25.611275,5.98271843 25.611275,11.6126498 L25.611275,16.5976004 L25.611275,16.5976004 Z" id="Shape-Copy-3" fill="#383D3B"></path>
            <path d="M27.9950604,17 L3.00502041,17 C1.34808959,17 0,18.3580639 0,20.0272541 L0,38.9727459 C0,40.6419361 1.34808959,42 3.00502041,42 L27.9950604,42 C29.6519912,42 31,40.6419361 31,38.9726645 L31,20.0272541 C31,18.3580639 29.6519912,17 27.9950604,17 Z M29.6010833,38.9726645 C29.6010833,39.864853 28.8806154,40.5906516 27.9950604,40.5906516 L3.00502041,40.5906516 C2.11938462,40.5906516 1.39891668,39.864853 1.39891668,38.9726645 L1.39891668,20.0272541 C1.39891668,19.1350656 2.11938462,18.409267 3.00502041,18.409267 L27.9950604,18.409267 C28.8806154,18.409267 29.6010833,19.1350656 29.6010833,20.0272541 L29.6010833,38.9726645 Z" id="Shape-Copy-4" fill="#383D3B"></path>
            <path d="M17.7587315,30.4151195 C18.5433889,29.7273067 19,28.7217811 19,27.6411861 C19,25.6334444 17.4299094,24 15.5000388,24 C13.5700906,24 12,25.6334444 12,27.6411861 C12,28.7217811 12.4566111,29.7273067 13.2414236,30.415281 L12.4864053,34.1576089 C12.4448952,34.3637671 12.4947849,34.5782394 12.6223412,34.7416969 C12.7499751,34.9049929 12.9414647,35 13.1437391,35 L17.8563385,35 C18.0586905,35 18.2501801,34.9050736 18.3776588,34.7416969 C18.5051375,34.5781587 18.5550272,34.3636864 18.5135171,34.1577704 L17.7587315,30.4151195 Z M16.6523903,29.5303506 C16.4165198,29.686624 16.2981966,29.9785873 16.35569,30.2633665 L17.0291624,33.6024187 L13.9709928,33.6024187 L14.6446203,30.2636086 C14.7020362,29.9787487 14.5839457,29.6867854 14.3479201,29.5305928 C13.7188286,29.114079 13.343298,28.4077007 13.343298,27.6412669 C13.343298,26.4040756 14.3107549,25.3975813 15.5000388,25.3975813 C16.6892451,25.3975813 17.6567021,26.4040756 17.6567021,27.6412669 C17.6568572,28.4078621 17.2813265,29.114079 16.6523903,29.5303506 Z" id="Shape-Copy-5" fill="#F16322"></path>
        </g>
    </g>
</svg>