<?xml version="1.0" encoding="UTF-8"?>
<svg width="60px" height="60px" viewBox="0 0 60 60" version="1.1" xmlns="http://www.w3.org/2000/svg" xmlns:xlink="http://www.w3.org/1999/xlink">
    <title>icon_multi-car</title>
    <g id="icon_multi-car" stroke="none" stroke-width="1" fill="none" fill-rule="evenodd">
        <path d="M27.0020392,15.2083557 L25.5388837,14.9696049 C25.1609008,14.9083476 24.8312843,14.6831467 24.641782,14.356686 L22.6210721,10.8900068 C21.939032,9.72262035 20.6725382,9.00177923 19.3003934,9 L12.1975236,9 C10.8254667,9.00169359 9.55899349,9.72236414 8.8768449,10.8895901 L6.81576328,14.4258529 C6.64255268,14.7213503 6.35435721,14.9351942 6.01725351,15.018355 L4.60891856,15.3633563 C3.89594441,15.5383445 3.32642091,16.0631591 3.10411649,16.7500279 C3.09944188,16.7608613 3.09901691,16.773778 3.09519222,16.7850281 C3.03366659,16.9792365 3.00159298,17.181258 3,17.3846136 L3,20.2500406 C3.00140498,21.4000669 3.95189965,22.3320039 5.12482642,22.3333814 L6.69082348,22.3333814 C7.18142812,23.350985 8.22649789,24 9.37447925,24 C10.5224606,24 11.5675304,23.350985 12.058135,22.3333814 L21.1396431,22.3333814 C21.6302477,23.350985 22.6753175,24 23.8232989,24 C24.9712802,24 26.01635,23.350985 26.5069546,22.3333814 L28.0729517,22.3333814 C29.2458785,22.3320039 30.1963731,21.4000669 30.1977902,20.2500406 L30.1977902,18.9071191 C30.2024535,17.0723931 28.8486103,15.5054485 27.0020392,15.2083557 Z M28.8778359,17.3333634 C29.0459171,17.5902357 29.1716894,17.8714596 29.2505305,18.1666997 L28.9228823,18.1666997 C28.5857458,18.1666185 28.2622735,18.0360422 28.0228058,17.8033651 C27.8881974,17.6703637 27.7851739,17.5098826 27.7210804,17.3333634 L28.8778359,17.3333634 Z M3.85418022,17.3333634 L4.58044589,17.3333634 L4.36796325,18.1666997 L3.84993057,18.1666997 L3.84993057,17.3846136 C3.84993057,17.3671135 3.85375525,17.3504468 3.85418022,17.3333634 Z M9.37447925,23.1667178 C8.20097002,23.1667178 7.24965283,22.2339743 7.24965283,21.0833769 C7.24965283,19.9327795 8.20097002,19.0000361 9.37447925,19.0000361 C10.5479885,19.0000361 11.4993057,19.9327795 11.4993057,21.0833769 C11.4979007,22.2334032 10.547406,23.1653402 9.37447925,23.1667178 L9.37447925,23.1667178 Z M23.8232989,23.1667178 C22.6497896,23.1667178 21.6984725,22.2339743 21.6984725,21.0833769 C21.6984725,19.9327795 22.6497896,19.0000361 23.8232989,19.0000361 C24.9968081,19.0000361 25.9481253,19.9327795 25.9481253,21.0833769 C25.9467203,22.2334032 24.9962256,23.1653402 23.8232989,23.1667178 L23.8232989,23.1667178 Z M28.0729517,21.5000451 L26.7640586,21.5000451 C26.9405531,20.3652707 26.4217781,19.2345166 25.4386833,18.6111754 C24.4555886,17.9878341 23.1910092,17.9878341 22.2079144,18.6111754 C21.2248197,19.2345166 20.7060446,20.3652707 20.8825391,21.5000451 L12.315239,21.5000451 C12.4917335,20.3652707 11.9729585,19.2345166 10.9898637,18.6111754 C10.0067689,17.9878341 8.74218956,17.9878341 7.7590948,18.6111754 C6.77600003,19.2345166 6.25722499,20.3652707 6.43371949,21.5000451 L5.12482642,21.5000451 C4.42072088,21.5000451 3.84993057,20.940399 3.84993057,20.2500406 L3.84993057,19.0000361 L4.69986113,19.0000361 C4.89478395,19.000031 5.06471121,18.8700069 5.11207746,18.6846183 L5.53704274,17.0179456 C5.56885036,16.8934525 5.54036989,16.7615336 5.45984121,16.6603555 C5.37931254,16.5591773 5.25572198,16.5000304 5.12482642,16.500027 L4.2277247,16.500027 C4.38973678,16.34056 4.59287361,16.2272213 4.81545169,16.1721092 L6.2242116,15.8266913 C6.78548679,15.6877471 7.26520148,15.3313769 7.55350301,14.8391877 L9.61458463,11.302925 C10.1452813,10.3951379 11.1303493,9.83467374 12.1975236,9.83333634 L19.3003934,9.83333634 C20.3675677,9.83467374 21.3526356,10.3951379 21.8833324,11.302925 L23.9036173,14.7696041 C24.2192338,15.314124 24.7688089,15.6897384 25.3990701,15.7916912 L26.8622256,16.0308587 C27.2900698,16.100262 27.697312,16.2603766 28.0555281,16.500027 L27.2230211,16.500027 C26.9883193,16.500027 26.7980559,16.6865757 26.7980559,16.9166952 C26.7974913,17.4694011 27.021175,17.9996286 27.4197797,18.3904509 C27.8183844,18.7812731 28.3591704,19.0005896 28.9228823,19.0000361 L29.3478475,19.0000361 L29.3478475,20.2500406 C29.3478475,20.940399 28.7770572,21.5000451 28.0729517,21.5000451 Z" id="Shape" fill="#383D3B" fill-rule="nonzero"></path>
        <path d="M22.3180718,12.9520976 C22.1972004,12.7547701 21.9360638,12.6908772 21.734807,12.8093887 C21.5335502,12.9279003 21.4683849,13.1839383 21.5892564,13.3812658 L22.2228796,14.4166862 L17.0238543,14.4166862 L17.0238543,11.0833408 L19.4610302,11.0833408 C19.9086416,11.084543 20.3231637,11.3146895 20.5544659,11.6904264 L20.8238939,12.1312613 C20.9447654,12.3285887 21.2059019,12.3924817 21.4071588,12.2739701 C21.6084156,12.1554586 21.6735808,11.8994205 21.5527094,11.7020931 L21.2828564,11.2612582 C20.8974386,10.6352906 20.2067775,10.2519206 19.4610302,10.2500045 L16.5988891,10.2500045 C16.3641872,10.2500045 16.1739238,10.4365532 16.1739238,10.6666727 L16.1739238,14.8333544 C16.1739238,15.0634738 16.3641872,15.2500225 16.5988891,15.2500225 L22.9733683,15.2500225 C23.1265017,15.2500225 23.2677769,15.1691888 23.3431737,15.0385052 C23.4185704,14.9078215 23.4164272,14.7474718 23.3375636,14.6187703 L22.3180718,12.9520976 Z" id="Path" fill="#F16322" fill-rule="nonzero"></path>
        <path d="M14.8990279,10.2500045 L12.0368867,10.2500045 C11.2911394,10.2519206 10.6004784,10.6352906 10.2150606,11.2612582 L8.16035343,14.6187703 C8.08148975,14.7474718 8.07934653,14.9078215 8.15474329,15.0385052 C8.23014004,15.1691888 8.37141533,15.2500225 8.52454868,15.2500225 L14.8990279,15.2500225 C15.1337298,15.2500225 15.3239932,15.0634738 15.3239932,14.8333544 L15.3239932,10.6666727 C15.3239932,10.4365532 15.1337298,10.2500045 14.8990279,10.2500045 Z M14.4740626,14.4166862 L9.27503737,14.4166862 L10.9434511,11.6904264 C11.1747532,11.3146895 11.5892754,11.084543 12.0368867,11.0833408 L14.4740626,11.0833408 L14.4740626,14.4166862 Z" id="Shape" fill="#F16322" fill-rule="nonzero"></path>
        <path d="M17.4488196,15.6666907 L16.5988891,15.6666907 C16.3641872,15.6666907 16.1739238,15.8532394 16.1739238,16.0833589 C16.1739238,16.3134784 16.3641872,16.500027 16.5988891,16.500027 L17.4488196,16.500027 C17.6835215,16.500027 17.8737849,16.3134784 17.8737849,16.0833589 C17.8737849,15.8532394 17.6835215,15.6666907 17.4488196,15.6666907 Z" id="Path" fill="#F16322" fill-rule="nonzero"></path>
        <path d="M9.37447925,15.6666907 L8.52454868,15.6666907 C8.28984683,15.6666907 8.0995834,15.8532394 8.0995834,16.0833589 C8.0995834,16.3134784 8.28984683,16.500027 8.52454868,16.500027 L9.37447925,16.500027 C9.60918109,16.500027 9.79944453,16.3134784 9.79944453,16.0833589 C9.79944453,15.8532394 9.60918109,15.6666907 9.37447925,15.6666907 Z" id="Path" fill="#F16322" fill-rule="nonzero"></path>
        <path d="M23.8232989,19.8333724 C23.1191933,19.8333724 22.548403,20.3930185 22.548403,21.0833769 C22.548403,21.7737353 23.1191933,22.3333724 23.8232989,22.3333724 C24.5274044,22.3333724 25.0981947,21.7737353 25.0981947,21.0833769 C25.0981947,20.3930185 24.5274044,19.8333724 23.8232989,19.8333724 Z M23.8232989,21.5000451 C23.588597,21.5000451 23.3983336,21.3134964 23.3983336,21.0833769 C23.3983336,20.8532574 23.588597,20.6667087 23.8232989,20.6667087 C24.0580007,20.6667087 24.2482642,20.8532574 24.2482642,21.0833769 C24.2482642,21.3134964 24.0580007,21.5000451 23.8232989,21.5000451 Z" id="Shape" fill="#F16322" fill-rule="nonzero"></path>
        <path d="M9.37447925,19.8333724 C8.67037371,19.8333724 8.0995834,20.3930185 8.0995834,21.0833769 C8.0995834,21.7737353 8.67037371,22.3333724 9.37447925,22.3333724 C10.0785848,22.3333724 10.6493751,21.7737353 10.6493751,21.0833769 C10.6493751,20.3930185 10.0785848,19.8333724 9.37447925,19.8333724 Z M9.37447925,21.5000451 C9.1397774,21.5000451 8.94951396,21.3134964 8.94951396,21.0833769 C8.94951396,20.8532574 9.1397774,20.6667087 9.37447925,20.6667087 C9.60918109,20.6667087 9.79944453,20.8532574 9.79944453,21.0833769 C9.79944453,21.3134964 9.60918109,21.5000451 9.37447925,21.5000451 Z" id="Shape" fill="#F16322" fill-rule="nonzero"></path>
        <path d="M53.5259318,38.691698 L51.4775141,38.3574468 C50.948338,38.2716867 50.4868749,37.9564053 50.2215717,37.4993604 L47.3925778,32.6460095 C46.4377217,31.0116685 44.6646304,30.0024909 42.7436276,30 L32.79961,30 C30.8787304,30.002371 29.1056678,31.0113098 28.1506598,32.6454262 L25.2651455,37.5961941 C25.0226507,38.0098904 24.619177,38.3092719 24.1472318,38.425697 L22.1755629,38.9086988 C21.1773991,39.1536822 20.3800662,39.8884227 20.06884,40.8500391 C20.0622955,40.8652058 20.0617006,40.8832892 20.056346,40.8990393 C19.9702101,41.1709311 19.9253071,41.4537611 19.9230769,41.738459 L19.9230769,45.7500568 C19.9250439,47.3600936 21.2557364,48.6648054 22.8978339,48.666734 L25.0902298,48.666734 C25.7770763,50.0913791 27.240174,51 28.8473479,51 C30.4545218,51 31.9176194,50.0913791 32.6044659,48.666734 L45.3185773,48.666734 C46.0054238,50.0913791 47.4685214,51 49.0756953,51 C50.6828692,51 52.1459669,50.0913791 52.8328134,48.666734 L55.0252093,48.666734 C56.6673068,48.6648054 57.9979993,47.3600936 57.9999832,45.7500568 L57.9999832,43.8699667 C58.0065118,41.3013503 56.1111313,39.1076279 53.5259318,38.691698 Z M56.1520472,41.6667087 C56.3873609,42.02633 56.5634421,42.4200435 56.6738196,42.8333796 L56.2151121,42.8333796 C55.743121,42.8332659 55.2902599,42.6504591 54.955005,42.3247111 C54.7665533,42.1385092 54.6223204,41.9138356 54.5325895,41.6667087 L56.1520472,41.6667087 Z M21.1189292,41.6667087 L22.1357012,41.6667087 L21.8382255,42.8333796 L21.1129797,42.8333796 L21.1129797,41.738459 C21.1129797,41.7139589 21.1183343,41.6906255 21.1189292,41.6667087 Z M28.8473479,49.8334049 C27.204435,49.8334049 25.8725909,48.527564 25.8725909,46.9167277 C25.8725909,45.3058913 27.204435,44.0000505 28.8473479,44.0000505 C30.4902608,44.0000505 31.8221048,45.3058913 31.8221048,46.9167277 C31.8201379,48.5267645 30.4894453,49.8314763 28.8473479,49.8334049 L28.8473479,49.8334049 Z M49.0756953,49.8334049 C47.4327824,49.8334049 46.1009384,48.527564 46.1009384,46.9167277 C46.1009384,45.3058913 47.4327824,44.0000505 49.0756953,44.0000505 C50.7186083,44.0000505 52.0504523,45.3058913 52.0504523,46.9167277 C52.0484853,48.5267645 50.7177928,49.8314763 49.0756953,49.8334049 L49.0756953,49.8334049 Z M55.0252093,47.5000631 L53.192759,47.5000631 C53.4398513,45.911379 52.7135662,44.3283233 51.3372336,43.4556455 C49.9609009,42.5829678 48.1904898,42.5829678 46.8141571,43.4556455 C45.4378244,44.3283233 44.7115394,45.911379 44.9586317,47.5000631 L32.9644115,47.5000631 C33.2115038,45.911379 32.4852188,44.3283233 31.1088861,43.4556455 C29.7325534,42.5829678 27.9621423,42.5829678 26.5858096,43.4556455 C25.209477,44.3283233 24.4831919,45.911379 24.7302842,47.5000631 L22.8978339,47.5000631 C21.9120862,47.5000631 21.1129797,46.7165586 21.1129797,45.7500568 L21.1129797,44.0000505 L22.3028825,44.0000505 C22.5757744,44.0000434 22.8136726,43.8180096 22.8799854,43.5584656 L23.4749368,41.2251238 C23.5194674,41.0508335 23.4795948,40.8661471 23.3668546,40.7244977 C23.2541145,40.5828482 23.0810877,40.5000426 22.8978339,40.5000379 L21.6418915,40.5000379 C21.8687084,40.2767839 22.1531,40.1181098 22.4647093,40.0409529 L24.4369732,39.5573678 C25.2227584,39.362846 25.894359,38.8639276 26.2979811,38.1748628 L29.1834954,33.224095 C29.9264708,31.953193 31.3055659,31.1685432 32.79961,31.1666709 L42.7436276,31.1666709 C44.2376717,31.1685432 45.6167668,31.953193 46.3597422,33.224095 L49.1881412,38.0774458 C49.6300042,38.8397736 50.3994094,39.3656337 51.2817751,39.5083676 L53.3301928,39.8432022 C53.9291746,39.9403668 54.4993137,40.1645273 55.0008163,40.5000379 L53.8353065,40.5000379 C53.5067239,40.5000379 53.2403551,40.761206 53.2403551,41.0833733 C53.2395647,41.8571615 53.5527219,42.5994801 54.1107685,43.1466313 C54.6688151,43.6937824 55.4259155,44.0008254 56.2151121,44.0000505 L56.8100635,44.0000505 L56.8100635,45.7500568 C56.8100635,46.7165586 56.0109571,47.5000631 55.0252093,47.5000631 Z" id="Shape" fill="#383D3B" fill-rule="nonzero"></path>
        <path d="M46.9683775,35.5329366 C46.7991575,35.2566782 46.4335663,35.1672281 46.1518067,35.3331442 C45.8700471,35.4990604 45.7788158,35.8575137 45.9480359,36.1337721 L46.8351084,37.5833607 L39.556473,37.5833607 L39.556473,32.9166772 L42.9685193,32.9166772 C43.5951752,32.9183602 44.1755062,33.2405653 44.4993292,33.7665969 L44.8765284,34.3837658 C45.0457484,34.6600242 45.4113396,34.7494743 45.6930992,34.5835582 C45.9748587,34.4176421 46.0660901,34.0591887 45.89687,33.7829303 L45.5190759,33.1657614 C44.9794909,32.2894069 44.0125655,31.7526889 42.9685193,31.7500063 L38.9615216,31.7500063 C38.632939,31.7500063 38.3665702,32.0111745 38.3665702,32.3333417 L38.3665702,38.1666961 C38.3665702,38.4888634 38.632939,38.7500316 38.9615216,38.7500316 L47.8857925,38.7500316 C48.1001792,38.7500316 48.2979646,38.6368644 48.4035201,38.4539072 C48.5090756,38.2709501 48.506075,38.0464606 48.3956659,37.8662784 L46.9683775,35.5329366 Z" id="Path" fill="#F16322" fill-rule="nonzero"></path>
        <path d="M36.581716,31.7500063 L32.5747184,31.7500063 C31.5306721,31.7526889 30.5637467,32.2894069 30.0241617,33.1657614 L27.1475717,37.8662784 C27.0371626,38.0464606 27.0341621,38.2709501 27.1397175,38.4539072 C27.245273,38.6368644 27.4430584,38.7500316 27.6574451,38.7500316 L36.581716,38.7500316 C36.9102986,38.7500316 37.1766674,38.4888634 37.1766674,38.1666961 L37.1766674,32.3333417 C37.1766674,32.0111745 36.9102986,31.7500063 36.581716,31.7500063 Z M35.9867646,37.5833607 L28.7081292,37.5833607 L31.0439084,33.7665969 C31.3677315,33.2405653 31.9480625,32.9183602 32.5747184,32.9166772 L35.9867646,32.9166772 L35.9867646,37.5833607 Z" id="Shape" fill="#F16322" fill-rule="nonzero"></path>
        <path d="M40.1514244,39.333367 L38.9615216,39.333367 C38.632939,39.333367 38.3665702,39.5945352 38.3665702,39.9167024 C38.3665702,40.2388697 38.632939,40.5000379 38.9615216,40.5000379 L40.1514244,40.5000379 C40.480007,40.5000379 40.7463758,40.2388697 40.7463758,39.9167024 C40.7463758,39.5945352 40.480007,39.333367 40.1514244,39.333367 Z" id="Path" fill="#F16322" fill-rule="nonzero"></path>
        <path d="M28.8473479,39.333367 L27.6574451,39.333367 C27.3288625,39.333367 27.0624937,39.5945352 27.0624937,39.9167024 C27.0624937,40.2388697 27.3288625,40.5000379 27.6574451,40.5000379 L28.8473479,40.5000379 C29.1759305,40.5000379 29.4422993,40.2388697 29.4422993,39.9167024 C29.4422993,39.5945352 29.1759305,39.333367 28.8473479,39.333367 Z" id="Path" fill="#F16322" fill-rule="nonzero"></path>
        <path d="M49.0756953,45.1667214 C48.0899476,45.1667214 47.2908412,45.9502259 47.2908412,46.9167277 C47.2908412,47.8832295 48.0899476,48.666734 49.0756953,48.666734 C50.0614431,48.666734 50.8605495,47.8832295 50.8605495,46.9167277 C50.8605495,45.9502259 50.0614431,45.1667214 49.0756953,45.1667214 Z M49.0756953,47.5000631 C48.7471128,47.5000631 48.4807439,47.2388949 48.4807439,46.9167277 C48.4807439,46.5945604 48.7471128,46.3333922 49.0756953,46.3333922 C49.4042779,46.3333922 49.6706467,46.5945604 49.6706467,46.9167277 C49.6706467,47.2388949 49.4042779,47.5000631 49.0756953,47.5000631 Z" id="Shape" fill="#F16322" fill-rule="nonzero"></path>
        <path d="M28.8473479,45.1667214 C27.8616001,45.1667214 27.0624937,45.9502259 27.0624937,46.9167277 C27.0624937,47.8832295 27.8616001,48.666734 28.8473479,48.666734 C29.8330956,48.666734 30.6322021,47.8832295 30.6322021,46.9167277 C30.6322021,45.9502259 29.8330956,45.1667214 28.8473479,45.1667214 Z M28.8473479,47.5000631 C28.5187653,47.5000631 28.2523965,47.2388949 28.2523965,46.9167277 C28.2523965,46.5945604 28.5187653,46.3333922 28.8473479,46.3333922 C29.1759305,46.3333922 29.4422993,46.5945604 29.4422993,46.9167277 C29.4422993,47.2388949 29.1759305,47.5000631 28.8473479,47.5000631 Z" id="Shape" fill="#F16322" fill-rule="nonzero"></path>
    </g>
</svg>