<?xml version="1.0" encoding="UTF-8"?>
<svg width="60px" height="60px" viewBox="0 0 60 60" version="1.1" xmlns="http://www.w3.org/2000/svg" xmlns:xlink="http://www.w3.org/1999/xlink">
    <title>icon_good-student</title>
    <g id="icon_good-student" stroke="none" stroke-width="1" fill="none" fill-rule="evenodd">
        <g id="Group" transform="translate(4.000000, 14.000000)" fill-rule="nonzero">
            <path d="M52.2879257,10.1294596 L26.9156799,0.0796751819 C26.6475906,-0.026558394 26.3524094,-0.026558394 26.0843201,0.0796751819 L0.712074254,10.1294596 C0.279411342,10.300726 0,10.711927 0,11.1768508 C0,11.6417744 0.279411342,12.0529754 0.712074254,12.2242419 L26.0843201,22.2736224 C26.2181626,22.326941 26.3592834,22.3536005 26.5,22.3536005 C26.6407166,22.3536005 26.7818374,22.326941 26.9156799,22.2736224 L46.642685,14.4603997 L46.642685,17.4696799 L46.5031814,17.4696799 C45.7175141,17.4696799 45.0786285,18.1082937 45.0786285,18.8927262 L45.0786285,21.0529451 L44.2816391,28.6864188 C44.2468643,29.021277 44.356041,29.356539 44.5816726,29.6065719 C44.8069,29.8566047 45.1295776,30 45.4664077,30 L49.3712921,30 C49.7081223,30 50.0307998,29.8566047 50.2560273,29.6065719 C50.4816589,29.356539 50.5908355,29.021277 50.5560608,28.6864188 L49.7590713,21.0529451 L49.7590713,18.8927262 C49.7590713,18.1082937 49.1201858,17.4696799 48.3345185,17.4696799 L48.1954194,17.4696799 L48.1954194,13.8452139 L52.2879257,12.2242419 C52.7205887,12.0525715 53,11.6413705 53,11.1768508 C53,10.711927 52.7205887,10.300726 52.2879257,10.1294596 Z M45.8675308,28.4489079 L46.5545349,21.8688842 L48.283165,21.8688842 L48.970169,28.4489079 L45.8675308,28.4489079 Z M48.2063369,20.3177921 L46.6309585,20.3177921 L46.6309585,19.020772 L48.2063369,19.020772 L48.2063369,20.3177921 Z M47.3086624,12.5275935 L26.330574,10.4049401 C25.9035721,10.3625274 25.5234756,10.6723418 25.4802094,11.0984883 C25.4369431,11.5246347 25.74749,11.9051369 26.1740875,11.9483575 L44.1736755,13.7696789 L26.5,20.76979 L2.28057861,11.1768508 L26.5,1.58350749 L50.7194214,11.1768508 L47.3086624,12.5275935 Z" id="Shape" fill="#F16322"></path>
            <path d="M40.9839378,19.6290009 C40.909929,19.2152604 40.5093159,18.9390371 40.0893961,19.0115606 C39.6694763,19.084084 39.3887253,19.4788021 39.4627342,19.8925425 L40.453407,25.4447496 C40.4582336,25.4724908 40.4526026,25.4982506 40.4357092,25.5212361 C40.4240448,25.5370882 40.4023248,25.5572997 40.3657226,25.562848 C38.3505904,25.8565086 32.8723269,26.9221678 25.5482666,30.4686846 C25.5181,30.4833479 25.4823022,30.4829515 25.4521356,30.4686846 C18.1280753,26.9221678 12.6498118,25.8561122 10.6342774,25.562848 C10.5976752,25.5572997 10.5763574,25.5370882 10.5642908,25.5212361 C10.5477996,25.4982506 10.5417664,25.4724908 10.546593,25.4443533 L11.5243947,19.9674438 C11.5980013,19.553307 11.3176526,19.1589854 10.8973306,19.0860656 C10.4774108,19.0135421 10.0767977,19.2897654 10.0027889,19.7039023 L9.02538939,25.1808117 C8.94776057,25.6163489 9.04952271,26.053075 9.31177145,26.411333 C9.57442249,26.7703836 9.96377338,27.0034099 10.4082287,27.0680073 C12.3517653,27.3513641 17.6421912,28.3825449 24.7711737,31.8343453 C24.9992336,31.9449139 25.2494157,32 25.5,32 C25.7505843,32 26.0007664,31.9449139 26.2292284,31.8343453 C33.3578088,28.3825449 38.6482347,27.3513641 40.5917713,27.0680073 C41.0362266,27.0034099 41.4255775,26.7699874 41.6882285,26.411333 C41.9504773,26.053075 42.0522394,25.6159526 41.9746106,25.1808117 L40.9839378,19.6290009 Z" id="Path" fill="#383D3B"></path>
        </g>
    </g>
</svg>