<?xml version="1.0" encoding="UTF-8"?>
<svg width="60px" height="60px" viewBox="0 0 60 60" version="1.1" xmlns="http://www.w3.org/2000/svg" xmlns:xlink="http://www.w3.org/1999/xlink">
    <title>icon_defensive-driving</title>
    <g id="icon_defensive-driving" stroke="none" stroke-width="1" fill="none" fill-rule="evenodd">
        <path d="M44.9957422,15.1507031 C41.1237246,11.1843281 35.9757422,9 30.5,9 C26.3335352,9 22.3220215,10.2743555 18.8992422,12.6851719 C18.5348066,12.9418477 18.4425566,13.4525742 18.6931211,13.8258984 C18.9437656,14.1991406 19.4421719,14.2936406 19.8066875,14.0370469 C22.9612852,11.8150664 26.6589727,10.640625 30.5,10.640625 C40.9206465,10.640625 49.3984375,19.3251914 49.3984375,30 C49.3984375,40.6748086 40.9206465,49.359375 30.5,49.359375 C20.0793535,49.359375 11.6015625,40.6748086 11.6015625,30 C11.6015625,26.0647969 12.7479609,22.2770859 14.9167168,19.0464492 C15.1672813,18.673125 15.0750312,18.1623984 14.7106758,17.9057227 C14.3462402,17.6491289 13.8477539,17.7434648 13.5971094,18.1167891 C11.2438535,21.6222305 10,25.7314219 10,30 C10,35.6092969 12.1323203,40.8828398 16.0042578,44.8492969 C19.8762754,48.8156719 25.0242578,51 30.5,51 C35.9757422,51 41.1237246,48.8156719 44.9957422,44.8492969 C48.8676797,40.8828398 51,35.6092969 51,30 C51,24.3907031 48.8676797,19.1171602 44.9957422,15.1507031 Z" id="Path-Copy-7" fill="#383D3B" fill-rule="nonzero"></path>
        <path d="M30,46 C38.8224466,46 46,38.8224466 46,30 C46,28.1667573 45.689165,26.4049709 45.1189903,24.7634175 C45.1173592,24.7591456 45.1161165,24.7547184 45.1144078,24.7505243 C42.936932,18.4987961 36.9843883,14 30,14 C21.1776311,14 14,21.1775534 14,30 C14,38.8224466 21.1776311,46 30,46 Z M44.4466019,30 C44.4466019,30.3716505 44.432466,30.7401165 44.4047379,31.1047767 C43.5894369,31.1473398 42.7946408,31.2684272 42.0272621,31.4596505 C42.2793786,29.3328155 41.9621748,27.150835 41.118835,25.1890485 C42.0143689,25.3420583 42.9064854,25.5135534 43.7942524,25.7033786 C44.2180971,27.0612039 44.4466019,28.5043883 44.4466019,30 L44.4466019,30 Z M39.2492427,24.896932 C40.4299029,27.0381359 40.8330874,29.5853981 40.3739029,31.9962718 C36.8285825,33.4270291 34.079534,36.4276505 32.9923883,40.1324272 C31.0485437,40.7046214 28.951301,40.7046214 27.007534,40.1324272 C25.920466,36.4277282 23.1714175,33.4270291 19.6260971,31.9963495 C19.1669126,29.5857087 19.5703301,27.0379029 20.7506796,24.8970097 C23.8135922,24.4636117 26.9085825,24.2434951 30,24.2434951 C33.0913398,24.2434951 36.1862524,24.463534 39.2492427,24.896932 Z M17.9726602,31.4596505 C17.2052816,31.2685049 16.4105631,31.1473398 15.5952621,31.1047767 C15.567534,30.7401165 15.5533981,30.3716505 15.5533981,30 C15.5533981,28.5043883 15.7819029,27.0612039 16.2057476,25.7033786 C17.0935146,25.5135534 17.9855534,25.3420583 18.881165,25.1890485 C18.0379806,27.1507573 17.7206214,29.3329709 17.9726602,31.4596505 L17.9726602,31.4596505 Z M15.8027184,32.6750291 C21.4787573,33.1203883 25.961165,37.8813981 25.961165,43.6699029 C25.961165,43.7366214 25.9599223,43.8035728 25.9586796,43.8705243 C20.7896699,42.3620194 16.8106408,38.0364272 15.8027184,32.6750291 L15.8027184,32.6750291 Z M27.5015146,44.2297476 C27.5097476,44.0427961 27.5145631,43.855767 27.5145631,43.6698252 C27.5145631,43.0452816 27.4681165,42.4314563 27.3798058,41.831068 C28.2403107,42.0201942 29.12,42.1151845 30,42.1151845 C30.879767,42.1151845 31.7596117,42.0201942 32.6201942,41.831068 C32.5318835,42.4314563 32.4854369,43.0452816 32.4854369,43.6699029 C32.4854369,43.8558447 32.4902524,44.0428738 32.4984854,44.2298252 C31.6866796,44.3718835 30.8519612,44.4466019 30,44.4466019 C29.1481165,44.4466019 28.3133981,44.3718835 27.5015146,44.2297476 L27.5015146,44.2297476 Z M34.0413204,43.8705243 C34.0400777,43.8035728 34.038835,43.7365437 34.038835,43.6699029 C34.038835,37.8814757 38.5213204,33.120466 44.1973592,32.6751068 C43.1893592,38.0364272 39.2103301,42.3620194 34.0413204,43.8705243 L34.0413204,43.8705243 Z M30,15.5533981 C35.8188738,15.5533981 40.8445825,19.0118835 43.1313398,23.9809709 C38.8127379,23.1249709 34.4027184,22.6901748 29.9999223,22.6901748 C25.5971262,22.6901748 21.1870291,23.1250485 16.8685825,23.9809709 C19.1554175,19.0118058 24.1811262,15.5533981 30,15.5533981 L30,15.5533981 Z" id="Shape-Copy-6" fill="#383D3B" fill-rule="nonzero"></path>
        <path d="M26,30 C26,32.2056 27.7944,34 30,34 C32.2056,34 34,32.2056 34,30 C34,27.7944 32.2056,26 30,26 C27.7944,26 26,27.7944 26,30 Z M30,27.6 C31.32336,27.6 32.4,28.67664 32.4,30 C32.4,31.32336 31.32336,32.4 30,32.4 C28.67664,32.4 27.6,31.32336 27.6,30 C27.6,28.67664 28.67664,27.6 30,27.6 Z" id="Shape-Copy-7" fill="#F16322" fill-rule="nonzero"></path>
        <path d="M17.3587641,17.6153846 C17.6279504,17.6153846 17.8971366,17.5100708 18.1024161,17.2997661 C18.5128699,16.8792644 18.5128699,16.1974164 18.1024161,15.7769147 C17.6919622,15.356413 17.026512,15.356413 16.6159531,15.7769147 L16.6154276,15.7774531 C16.2049738,16.1979548 16.205184,16.8794798 16.6156378,17.2999814 C16.8208121,17.5103938 17.0897881,17.6153846 17.3587641,17.6153846 Z" id="Path-Copy-8" fill="#383D3B" fill-rule="nonzero"></path>
    </g>
</svg>