<?xml version="1.0" encoding="UTF-8"?>
<svg width="78px" height="77px" viewBox="0 0 78 77" version="1.1" xmlns="http://www.w3.org/2000/svg" xmlns:xlink="http://www.w3.org/1999/xlink">
    <title>icon_phone</title>
    <g id="icon_phone" stroke="none" stroke-width="1" fill="none" fill-rule="evenodd">
        <g id="phone" transform="translate(6.000000, 9.000000)" fill-rule="nonzero">
            <path d="M57.0915153,46.3589608 L48.3802927,40.2713001 C47.2411631,39.4780853 45.9096619,39.0584957 44.5289186,39.0584957 C42.3327293,39.0584957 40.2717912,40.1353768 39.0164506,41.9371824 L36.9942494,44.8355681 C33.6050927,42.5622986 29.8226598,39.3881263 26.2188083,35.7838583 C22.6143002,32.1789336 19.4404949,28.396715 17.1688012,25.0071665 L20.0648823,22.9853881 C23.1054063,20.8677411 23.8532267,16.666592 21.730572,13.6184937 L15.6449282,4.90757863 C14.3718606,3.08673052 12.3181445,2 10.1515004,2 C9.40105364,2 8.66439471,2.13198354 7.96253326,2.39135427 C7.16678392,2.68618329 6.42552903,3.04667575 5.69806188,3.50303693 L4.49524603,4.35009572 C4.1945421,4.58451431 3.91484805,4.83994521 3.64697198,5.10785225 C2.17956298,6.57543088 1.13760417,8.43239394 0.550640484,10.6281791 C-1.95675839,20.0292187 4.25494541,34.2427366 16.0073486,45.9964983 C25.876741,55.8670317 37.7335344,61.9993433 46.9503073,62 L46.9522769,62 C48.5293313,62 50.0157804,61.8161422 51.372231,61.4549932 C53.5677638,60.8679618 55.4245122,59.8258824 56.8899514,58.3596171 C57.1584839,58.0923667 57.4145419,57.8119837 57.6876704,57.4580576 L58.5359444,56.2472232 C58.9515461,55.5813955 59.3119969,54.8393983 59.6074484,54.0422438 C60.6329937,51.2712453 59.5989135,48.1115189 57.0915153,46.3589608 Z M57.0849498,53.1085092 C56.853841,53.7349387 56.574147,54.3108075 56.2951095,54.7612588 L55.5256226,55.8598087 C55.3608263,56.0719017 55.1796161,56.2669223 54.989214,56.4566897 C53.8612459,57.5861015 52.4102509,58.3931056 50.6782487,58.8560331 C49.5489674,59.1574284 48.2955966,59.3104243 46.9522773,59.3104243 C46.9516207,59.3104243 46.9509641,59.3104243 46.9503077,59.3104243 C38.4202953,59.3097676 27.2922822,53.4795078 17.9087434,44.0948843 C6.98557398,33.1704522 0.916344217,19.6936785 3.14930077,11.3222422 C3.61217477,9.59003984 4.41908551,8.13887837 5.54836677,7.00946657 C5.73745571,6.82035576 5.93311023,6.63846795 6.09331055,6.51239408 L7.18319825,5.7441314 C7.69531417,5.42435024 8.27111619,5.14528052 8.89616027,4.91414509 C9.29797425,4.76508907 9.72079824,4.689576 10.1515008,4.689576 C11.4409824,4.689576 12.6707171,5.34752398 13.4408606,6.44870049 L19.5245349,15.1569891 C20.7989155,16.9863735 20.351799,19.5078508 18.527222,20.7790957 L14.5629197,23.5461545 C13.974643,23.9565512 13.812473,24.7569889 14.1939336,25.3643761 C16.5936562,29.1813938 20.1889724,33.5572102 24.3174143,37.6854728 C28.4445431,41.8137353 32.8191921,45.4094671 36.6370818,47.8107804 C37.2450552,48.1922851 38.0447439,48.0294398 38.4557498,47.4417516 L41.2231453,43.4750212 C42.4495972,41.7132702 45.07058,41.2424631 46.8419758,42.4775931 L55.5512287,48.5639404 C57.0554045,49.6152124 57.6863576,51.4839949 57.0849498,53.1085092 Z" id="Shape" fill="#383D3B"></path>
            <path d="M52.9076001,9.52329007 C47.2662417,3.88110606 39.7772379,0.500140952 31.8204135,0.00290261845 C31.1033404,-0.045031678 30.477659,0.506532174 30.4322827,1.22746393 C30.3869064,1.94903471 30.9352564,2.57026312 31.6568033,2.61564095 C38.9764424,3.07325366 45.865968,6.18386934 51.0567591,11.3741929 C56.246272,16.5638785 59.3561449,23.4529943 59.8143815,30.7728822 C59.8578405,31.4663316 60.4336719,32 61.119429,32 C61.1469104,32 61.1743918,31.9993609 61.2025123,31.9974435 C61.9240591,31.9520657 62.4724091,31.3308374 62.4270329,30.6092665 C61.9291719,22.6528113 58.5483193,15.1641972 52.9076001,9.52329007 L52.9076001,9.52329007 Z" id="Path" fill="#F16322"></path>
            <path d="M30.674082,11.2443589 C36.1602579,11.5878788 41.3236817,13.9192762 45.2135863,17.8094759 C49.1028429,21.6996756 51.4340635,26.8628429 51.7775573,32.3481435 C51.8216282,33.0513869 52.4055676,33.5925926 53.1009804,33.5925926 C53.1288488,33.5925926 53.1567171,33.5919444 53.1852336,33.59 C53.9169401,33.5439813 54.473011,32.9139791 54.4269959,32.182217 C54.0433199,26.0507102 51.4379523,20.2795776 47.090488,15.9324319 C42.7430238,11.584638 36.9716808,8.97842585 30.8399959,8.59472072 C30.105697,8.55388726 29.4783349,9.10546333 29.4323197,9.83657722 C29.3863044,10.568338 29.9423754,11.1983403 30.674082,11.2443589 L30.674082,11.2443589 Z" id="Path" fill="#F16322"></path>
            <path d="M29.7059849,18.905961 C33.3453055,19.1339793 36.7712547,20.680914 39.3530139,23.2622409 C41.9341084,25.8442327 43.4809039,29.2698257 43.7095663,32.9088144 C43.754767,33.6307616 44.3543413,34.1851852 45.0669175,34.1851852 C45.0955003,34.1851852 45.1247479,34.1845204 45.1533307,34.1825261 C45.9037957,34.1353269 46.4741225,33.4884995 46.4269277,32.7386317 C46.1570527,28.4368607 44.3284175,24.3883722 41.2780331,21.3370484 C38.2269841,18.2863892 34.1775307,16.4575893 29.8761523,16.1883548 C29.1157165,16.137167 28.4795828,16.7121986 28.4323879,17.4620665 C28.385193,18.2125992 28.9555198,18.8587618 29.7059849,18.905961 L29.7059849,18.905961 Z" id="Path" fill="#F16322"></path>
        </g>
    </g>
</svg>