<?xml version="1.0" encoding="UTF-8"?>
<svg width="112px" height="77px" viewBox="0 0 112 77" version="1.1" xmlns="http://www.w3.org/2000/svg" xmlns:xlink="http://www.w3.org/1999/xlink">
    <title>icon_health</title>
    <g id="icon_health" stroke="none" stroke-width="1" fill="none" fill-rule="evenodd">
        <g id="heartbeat" transform="translate(20.000000, 9.000000)" fill-rule="nonzero">
            <path d="M50.5560496,43.4224121 C49.9726009,42.8509454 49.0362729,42.8605561 48.4645079,43.4437034 L48.4225055,43.4865819 C47.8508885,44.0698771 47.8605017,45.0059586 48.4439504,45.5775731 C48.7317555,45.859536 49.1054881,46 49.4789249,46 C49.8624185,46 50.2457643,45.8516996 50.5354921,45.5562817 L50.5774945,45.5134032 C51.1491115,44.9301081 51.1394983,43.9940265 50.5560496,43.4224121 Z" id="Path" fill="#383D3B"></path>
            <path d="M65.6043715,28.1043715 L61.8956285,28.1043715 L61.8956285,24.3956285 C61.8956285,23.6248229 61.2708056,23 60.5,23 C59.7291944,23 59.1043715,23.6248229 59.1043715,24.3956285 L59.1043715,28.1043715 L55.3956285,28.1043715 C54.6248229,28.1043715 54,28.7291944 54,29.5 C54,30.2708056 54.6248229,30.8956285 55.3956285,30.8956285 L59.1043715,30.8956285 L59.1043715,34.6043715 C59.1043715,35.3751771 59.7291944,36 60.5,36 C61.2708056,36 61.8956285,35.3751771 61.8956285,34.6043715 L61.8956285,30.8956285 L65.6043715,30.8956285 C66.3751771,30.8956285 67,30.2708056 67,29.5 C67,28.7291944 66.3751771,28.1043715 65.6043715,28.1043715 Z" id="Path" fill="#F16322"></path>
            <path d="M65.1147014,17.3138754 C63.7830191,7.41002532 55.5551046,0 45.7889117,0 C40.8589782,0 36.2472798,1.84920648 32.6504544,5.23872492 C29.0534864,1.84920648 24.441788,0 19.5119971,0 C8.75303077,0 0,9.0176255 0,20.1018171 C0,22.2917688 0.634901631,24.7464258 1.89800371,27.4560319 L1.42578403,27.4560319 C0.638323512,27.4560319 0,28.0983546 0,28.8907487 C0,29.6831428 0.638323512,30.3254655 1.42578403,30.3254655 L3.4164637,30.3254655 C6.07940055,34.86204 10.2905963,40.0208512 16.0327989,45.7663181 C23.8147282,53.5526696 31.7055873,59.6443337 31.7844332,59.7050222 C32.0399337,59.9017219 32.345194,60 32.6504544,60 C32.9557148,60 33.2608325,59.9017219 33.5164756,59.7050222 C33.5766437,59.6586809 39.6117024,55.0018771 46.2997701,48.6566986 C46.8727927,48.1130844 46.8993123,47.2050521 46.3590827,46.6285829 C45.8189957,46.0521137 44.916617,46.0252845 44.3435944,46.5688987 C39.2429946,51.408055 34.5340577,55.2449181 32.650597,56.7439102 C30.4124012,54.961992 24.1814398,49.8754905 18.0230508,43.7112298 C13.0926896,38.7759475 9.31835414,34.2783972 6.76662845,30.3254655 L19.5311026,30.3254655 C20.1671449,30.3254655 20.7261948,29.9015067 20.9015662,29.2864436 L23.3926961,20.5487314 L30.2912096,42.7894242 C30.4771318,43.388562 31.0284825,43.7967389 31.652263,43.7967389 C32.2760435,43.7967389 32.8273942,43.388562 33.0131739,42.7894242 L36.8335622,30.4690807 L43.1988324,30.4690807 C43.9862929,30.4690807 44.6246165,29.8267579 44.6246165,29.0343639 C44.6246165,28.2419698 43.9862929,27.5996471 43.1988324,27.5996471 L35.784898,27.5996471 C35.1611175,27.5996471 34.6096242,28.0076805 34.4238446,28.6069617 L31.6518353,37.5459647 L24.6960053,15.1204803 C24.5083721,14.5154603 23.9497499,14.1045574 23.3184127,14.1133092 C22.6886439,14.1206262 22.1381487,14.5430068 21.9643456,15.1523311 L18.4564892,27.4561754 L5.07921305,27.4561754 C3.60538009,24.6561821 2.85156807,22.1883257 2.85156807,20.1018171 C2.85156807,10.5998312 10.3253854,2.8694336 19.5119971,2.8694336 C24.1292561,2.8694336 28.4231473,4.7793286 31.6025031,8.2470391 C31.8725466,8.54144299 32.2523755,8.70887444 32.6504544,8.70887444 C33.0485333,8.70887444 33.4285047,8.54144299 33.6984057,8.2470391 C36.8777615,4.7793286 41.1716527,2.8694336 45.7889117,2.8694336 C53.7315268,2.8694336 60.4841826,8.63326487 62.0891877,16.5171771 C61.5535206,16.4467326 61.0075879,16.4098603 60.4531005,16.4098603 C53.5347686,16.4098603 47.906201,22.0736918 47.906201,29.0353682 C47.906201,35.9970445 53.5347686,41.660876 60.4531005,41.660876 C67.3714324,41.660876 73,35.9970445 73,29.0353682 C73,23.7303593 69.7315327,19.1797246 65.1147014,17.3138754 Z M60.4532431,38.7914424 C55.1072658,38.7914424 50.7579116,34.4148388 50.7579116,29.0353682 C50.7579116,23.6558975 55.1072658,19.2792939 60.4532431,19.2792939 C65.7992203,19.2792939 70.1485745,23.6558975 70.1485745,29.0353682 C70.1485745,34.4148388 65.7992203,38.7914424 60.4532431,38.7914424 Z" id="Shape" fill="#383D3B"></path>
        </g>
    </g>
</svg>