<?xml version="1.0" encoding="UTF-8"?>
<svg width="112px" height="77px" viewBox="0 0 112 77" version="1.1" xmlns="http://www.w3.org/2000/svg" xmlns:xlink="http://www.w3.org/1999/xlink">
    <title>icon_home</title>
    <g id="icon_home" stroke="none" stroke-width="1" fill="none" fill-rule="evenodd">
        <g id="home-6-copy" transform="translate(25.000000, 8.000000)" fill-rule="nonzero">
            <path d="M55.7069,43.293 C55.521,43.1069 55.263,43 55,43 C54.737,43 54.479,43.1069 54.293,43.293 C54.107,43.4791 54,43.7359 54,44 C54,44.263 54.1069,44.521 54.293,44.7069 C54.479,44.8929 54.737,45 55,45 C55.263,45 55.521,44.893 55.7069,44.7069 C55.893,44.521 56,44.263 56,44 C56,43.737 55.893,43.479 55.7069,43.293 Z" id="Path" fill="#383D3B"></path>
            <path d="M60.7890625,59.5781215 L55.4609375,59.5781215 L55.4609375,48.3163862 C55.4609375,47.6477055 54.9186797,47.1054469 54.25,47.1054469 C53.5813203,47.1054469 53.0390625,47.6477055 53.0390625,48.3163862 L53.0390625,59.5781215 L14.7734375,59.5781215 L14.7734375,48.1952923 C14.7734375,47.5266116 14.2311797,46.984353 13.5625,46.984353 C12.8938203,46.984353 12.3515625,47.5266116 12.3515625,48.1952923 L12.3515625,59.5781215 L8.9609375,59.5781215 L8.9609375,27.7306607 L31,10.5247879 L53.0390625,27.7306607 L53.0390625,39.2343417 C53.0390625,39.9030223 53.5813203,40.4452809 54.25,40.4452809 C54.9186797,40.4452809 55.4609375,39.9030223 55.4609375,39.2343417 L55.4609375,29.6214213 L55.6726094,29.7867145 C55.8926367,29.9585468 56.1555312,30.0431915 56.4173359,30.0431915 C56.7287891,30.0431915 57.0390313,29.9234296 57.2739531,29.6885074 L61.6416836,25.3206494 C61.8868984,25.0753131 62.0152578,24.7364923 61.9940664,24.3901637 C61.9727539,24.043835 61.8040703,23.7232994 61.5305195,23.5098108 L54.25,17.825904 L54.25,5.69132377 C54.25,5.02252201 53.7077422,4.48038449 53.0390625,4.48038449 L46.0207109,4.48038449 C45.3520313,4.48038449 44.8097734,5.02252201 44.8097734,5.69132377 L44.8097734,10.4558854 L31.7450898,0.256386118 C31.3073359,-0.0854620393 30.6926641,-0.0854620393 30.2547891,0.256386118 L0.469359375,23.5098108 C0.195808594,23.7232994 0.027125,24.043835 0.0058125,24.3901637 C-0.0153789062,24.7364923 0.112980469,25.075192 0.358195313,25.3206494 L4.72592578,29.6885074 C5.15823047,30.1206916 5.84531641,30.1630745 6.32739063,29.7867145 L6.5390625,29.6214213 L6.5390625,59.5781215 L1.2109375,59.5781215 C0.542257812,59.5781215 0,60.1203801 0,60.7890607 C0,61.4577414 0.542257812,62 1.2109375,62 L60.7890625,62 C61.4577422,62 62,61.4577414 62,60.7890607 C62,60.1203801 61.4577422,59.5781215 60.7890625,59.5781215 Z M47.2316484,6.90226304 L51.828125,6.90226304 L51.828125,15.9351435 L47.2316484,12.346646 L47.2316484,6.90226304 L47.2316484,6.90226304 Z M5.68123438,27.2186756 L3.03896875,24.576285 L31,2.74704602 L58.9610312,24.576285 L56.3187656,27.2186756 L31.7450898,8.03400689 C31.5261523,7.86302226 31.2631367,7.77752995 31,7.77752995 C30.7368633,7.77752995 30.4737266,7.86302226 30.2549102,8.03400689 L5.68123438,27.2186756 Z" id="Shape" fill="#383D3B"></path>
            <path d="M42.7735849,27.3407407 L19.2264151,27.3407407 C18.5491887,27.3407407 18,27.8898068 18,28.5671558 L18,52.1143256 C18,52.7915521 18.5491887,53.3407407 19.2264151,53.3407407 L42.7735849,53.3407407 C43.4508113,53.3407407 44,52.7915521 44,52.1143256 L44,28.5671558 C44,27.8898068 43.4508113,27.3407407 42.7735849,27.3407407 Z M29.7735849,50.8879106 L20.4528302,50.8879106 L20.4528302,41.5671558 L29.7735849,41.5671558 L29.7735849,50.8879106 Z M29.7735849,39.1143256 L20.4528302,39.1143256 L20.4528302,29.7935709 L29.7735849,29.7935709 L29.7735849,39.1143256 Z M41.5471698,50.8879106 L32.2264151,50.8879106 L32.2264151,41.5671558 L41.5471698,41.5671558 L41.5471698,50.8879106 Z M41.5471698,39.1143256 L32.2264151,39.1143256 L32.2264151,29.7935709 L41.5471698,29.7935709 L41.5471698,39.1143256 Z" id="Shape" fill="#F16322"></path>
            <path d="M14,43 C13.4478,43 13,43.4441248 13,43.9920143 L13,44.0079857 C13,44.555776 13.4478,45 14,45 C14.5522,45 15,44.555776 15,44.0079857 L15,43.9920143 C15,43.444224 14.5522,43 14,43 Z" id="Path" fill="#383D3B"></path>
        </g>
    </g>
</svg>