<?xml version="1.0" encoding="UTF-8"?>
<svg width="60px" height="60px" viewBox="0 0 60 60" version="1.1" xmlns="http://www.w3.org/2000/svg" xmlns:xlink="http://www.w3.org/1999/xlink">
    <title>icon_homeowners</title>
    <g id="icon_homeowners" stroke="none" stroke-width="1" fill="none" fill-rule="evenodd">
        <g id="Group" transform="translate(8.000000, 8.000000)" fill-rule="nonzero">
            <path d="M38.7069,30.293 C38.521,30.1069 38.263,30 38,30 C37.737,30 37.479,30.1069 37.293,30.293 C37.107,30.4791 37,30.7359 37,31 C37,31.263 37.1069,31.521 37.293,31.7069 C37.479,31.8929 37.737,32 38,32 C38.263,32 38.521,31.893 38.7069,31.7069 C38.893,31.521 39,31.263 39,31 C39,30.737 38.893,30.479 38.7069,30.293 Z" id="Path" fill="#383D3B"></path>
            <path d="M42.1601562,41.32031 L38.4648438,41.32031 L38.4648438,33.5097517 C38.4648438,33.0459893 38.0887617,32.6699067 37.625,32.6699067 C37.1612383,32.6699067 36.7851562,33.0459893 36.7851562,33.5097517 L36.7851562,41.32031 L10.2460938,41.32031 L10.2460938,33.4257672 C10.2460938,32.9620048 9.87001172,32.5859222 9.40625,32.5859222 C8.94248828,32.5859222 8.56640625,32.9620048 8.56640625,33.4257672 L8.56640625,41.32031 L6.21484375,41.32031 L6.21484375,19.232555 L21.5,7.29944966 L36.7851562,19.232555 L36.7851562,27.2109144 C36.7851562,27.6746768 37.1612383,28.0507594 37.625,28.0507594 C38.0887617,28.0507594 38.4648438,27.6746768 38.4648438,27.2109144 L38.4648438,20.543889 L38.6116484,20.6585278 C38.764248,20.7777018 38.9465781,20.836407 39.1281523,20.836407 C39.3441602,20.836407 39.5593281,20.7533463 39.7222578,20.5904164 L42.7514902,17.5610955 C42.9215586,17.390943 43.010582,17.1559543 42.9958848,16.9157587 C42.9811035,16.675563 42.8641133,16.453256 42.6743926,16.3051914 L37.625,12.363127 L37.625,3.94720842 C37.625,3.48336204 37.248918,3.10736344 36.7851562,3.10736344 L31.9175898,3.10736344 C31.4538281,3.10736344 31.0777461,3.48336204 31.0777461,3.94720842 L31.0777461,7.25166248 L22.0167559,0.177816178 C21.7131523,-0.0592720595 21.2868477,-0.0592720595 20.9831602,0.177816178 L0.325523438,16.3051914 C0.135802734,16.453256 0.0188125,16.675563 0.00403125,16.9157587 C-0.0106660156,17.1559543 0.0783574219,17.390859 0.248425781,17.5610955 L3.2776582,20.5904164 C3.57748242,20.8901571 4.05400977,20.9195516 4.38835156,20.6585278 L4.53515625,20.543889 L4.53515625,41.32031 L0.83984375,41.32031 C0.376082031,41.32031 0,41.6963926 0,42.160155 C0,42.6239174 0.376082031,43 0.83984375,43 L42.1601562,43 C42.623918,43 43,42.6239174 43,42.160155 C43,41.6963926 42.623918,41.32031 42.1601562,41.32031 Z M32.7574336,4.7870534 L35.9453125,4.7870534 L35.9453125,11.051793 L32.7574336,8.56299643 L32.7574336,4.7870534 L32.7574336,4.7870534 Z M3.94021094,18.8774686 L2.10767188,17.0448428 L21.5,1.90520933 L40.8923281,17.0448428 L39.0597891,18.8774686 L22.0167559,5.57197252 C21.8649121,5.45338641 21.682498,5.39409335 21.5,5.39409335 C21.317502,5.39409335 21.1350039,5.45338641 20.9832441,5.57197252 L3.94021094,18.8774686 Z" id="Shape" fill="#383D3B"></path>
            <path d="M30.1509434,18 L13.8490566,18 C13.3802075,18 13,18.3801226 13,18.8490566 L13,35.1509434 C13,35.6197925 13.3802075,36 13.8490566,36 L30.1509434,36 C30.6197925,36 31,35.6197925 31,35.1509434 L31,18.8490566 C31,18.3801226 30.6197925,18 30.1509434,18 Z M21.1509434,34.3018868 L14.6981132,34.3018868 L14.6981132,27.8490566 L21.1509434,27.8490566 L21.1509434,34.3018868 Z M21.1509434,26.1509434 L14.6981132,26.1509434 L14.6981132,19.6981132 L21.1509434,19.6981132 L21.1509434,26.1509434 Z M29.3018868,34.3018868 L22.8490566,34.3018868 L22.8490566,27.8490566 L29.3018868,27.8490566 L29.3018868,34.3018868 Z M29.3018868,26.1509434 L22.8490566,26.1509434 L22.8490566,19.6981132 L29.3018868,19.6981132 L29.3018868,26.1509434 Z" id="Shape" fill="#F16322"></path>
            <path d="M9.3,30 C8.7478,30 8.3,30.4441248 8.3,30.9920143 L8.3,31.0079857 C8.3,31.555776 8.7478,32 9.3,32 C9.8522,32 10.3,31.555776 10.3,31.0079857 L10.3,30.9920143 C10.3,30.444224 9.8522,30 9.3,30 Z" id="Path" fill="#383D3B"></path>
            <path d="M9.3,26 C8.7478,26 8.3,26.4441248 8.3,26.9920143 L8.3,27.0079857 C8.3,27.555776 8.7478,28 9.3,28 C9.8522,28 10.3,27.555776 10.3,27.0079857 L10.3,26.9920143 C10.3,26.444224 9.8522,26 9.3,26 Z" id="Path-Copy-5" fill="#383D3B"></path>
        </g>
    </g>
</svg>