<?xml version="1.0" encoding="UTF-8"?>
<svg width="78px" height="77px" viewBox="0 0 78 77" version="1.1" xmlns="http://www.w3.org/2000/svg" xmlns:xlink="http://www.w3.org/1999/xlink">
    <title>icon_chat</title>
    <g id="icon_chat" stroke="none" stroke-width="1" fill="none" fill-rule="evenodd">
        <g id="speech-bubble" transform="translate(4.000000, 7.000000)" fill-rule="nonzero">
            <path d="M34.5,13 C33.6720703,13 33,13.6720704 33,14.5 C33,15.3279296 33.6720703,16 34.5,16 C35.3279297,16 36,15.3279296 36,14.5 C36,13.6720704 35.3279296,13 34.5,13 Z" id="Path" fill="#383D3B"></path>
            <path d="M12.5,37 C13.3279296,37 14,36.3279296 14,35.5 C14,34.6720704 13.3279296,34 12.5,34 C11.6720704,34 11,34.6720704 11,35.5 C11,36.3279296 11.6720704,37 12.5,37 Z" id="Path" fill="#F16322"></path>
            <path d="M45.28125,0 C33.1486587,0 23.1907425,8.36599857 22.4205781,18.9037873 C10.8660049,19.4834579 0,27.8162873 0,39.0869565 C0,43.7969768 1.86355591,48.3606319 5.25585938,51.9765964 C5.92705539,54.7438518 5.1121445,57.6769531 3.09013373,59.6992188 C2.70478814,60.0846127 2.58950046,60.6642833 2.79796604,61.1681386 C3.00643161,61.6714674 3.49758911,62 4.04296875,62 C7.88642117,62 11.5903701,60.492646 14.3425369,57.836481 C17.0236358,58.7504755 20.5217514,59.3043478 23.71875,59.3043478 C35.849762,59.3043478 45.8066254,50.9404551 46.5788955,40.4047725 C49.4005508,40.2794667 52.3353882,39.7582371 54.6574631,38.9669158 C57.4096299,41.6230808 61.1135788,43.1304348 64.9570312,43.1304348 C65.5024109,43.1304348 65.9935684,42.8019022 66.202034,42.2985734 C66.4104995,41.7947181 66.2952119,41.2150475 65.9098663,40.8296536 C63.8878555,38.8073879 63.0729446,35.8742866 63.7441406,33.1070312 C67.1364441,29.4910666 69,24.9274116 69,20.2173913 C69,8.50657266 57.2969741,0 45.28125,0 Z M23.71875,56.6086957 C20.5380707,56.6086957 16.9136123,55.9842732 14.4857254,55.0181556 C13.9656143,54.8107167 13.3712769,54.9470788 12.9927749,55.360377 C11.3655854,57.1394022 9.24987033,58.3798234 6.94464111,58.950017 C8.21491238,56.5160326 8.53919217,53.6466373 7.76639554,50.9278192 C7.70532986,50.713536 7.59214789,50.5176801 7.43685154,50.3581522 C4.37935642,47.2086616 2.6953125,43.2057235 2.6953125,39.0869565 C2.6953125,29.5889946 12.3226318,21.5652174 23.71875,21.5652174 C34.4799957,21.5652174 43.9335938,29.0493377 43.9335938,39.0869565 C43.9335938,48.7486583 34.8653413,56.6086957 23.71875,56.6086957 Z M61.5631485,31.488587 C61.4078521,31.6486413 61.2946701,31.8444973 61.2336045,32.058254 C60.4608078,34.7770721 60.7850876,37.6464674 62.0553589,40.0804518 C59.7501297,39.5107846 57.6344146,38.269837 56.0072251,36.4908118 C55.6287231,36.07804 55.0343857,35.9411515 54.5142746,36.1485904 C52.4101411,36.9857167 49.4084473,37.5653873 46.5746841,37.7054348 C46.1809158,32.6084409 43.6387939,27.8178668 39.2926025,24.2608696 L56.8710938,24.2608696 C57.6154633,24.2608696 58.21875,23.6575069 58.21875,22.9130435 C58.21875,22.1685801 57.6154633,21.5652174 56.8710938,21.5652174 L35.1522446,21.5652174 C32.0931702,20.0078464 28.658226,19.0996433 25.1227341,18.9090523 C25.8971099,9.85650472 34.6426621,2.69565217 45.28125,2.69565217 C56.6773682,2.69565217 66.3046875,10.7194293 66.3046875,20.2173913 C66.3046875,24.3361583 64.6206436,28.3390964 61.5631485,31.488587 Z" id="Shape" fill="#383D3B"></path>
            <path d="M34.710037,34.3872054 L18.3127767,34.3872054 C17.5939731,34.3872054 17.0114068,35.0586897 17.0114068,35.8872054 C17.0114068,36.7157211 17.5939731,37.3872054 18.3127767,37.3872054 L34.710037,37.3872054 C35.4288406,37.3872054 36.0114068,36.7157211 36.0114068,35.8872054 C36.0114068,35.0586897 35.4288406,34.3872054 34.710037,34.3872054 Z" id="Path" fill="#F16322"></path>
            <path d="M34.6673208,43.3872054 L12.3554929,43.3872054 C11.6130953,43.3872054 11.0114068,44.0586897 11.0114068,44.8872054 C11.0114068,45.7157211 11.6130953,46.3872054 12.3554929,46.3872054 L34.6673208,46.3872054 C35.4097184,46.3872054 36.0114068,45.7157211 36.0114068,44.8872054 C36.0114068,44.0586897 35.4097184,43.3872054 34.6673208,43.3872054 Z" id="Path" fill="#F16322"></path>
            <path d="M57.1396948,13.3872054 L40.7424345,13.3872054 C40.0236309,13.3872054 39.4410646,14.0586897 39.4410646,14.8872054 C39.4410646,15.7157211 40.0236309,16.3872054 40.7424345,16.3872054 L57.1396948,16.3872054 C57.8584984,16.3872054 58.4410646,15.7157211 58.4410646,14.8872054 C58.4410646,14.0586897 57.8584984,13.3872054 57.1396948,13.3872054 Z" id="Path" fill="#383D3B"></path>
        </g>
    </g>
</svg>