<?xml version="1.0" encoding="UTF-8"?>
<svg width="31px" height="31px" viewBox="0 0 31 31" version="1.1" xmlns="http://www.w3.org/2000/svg" xmlns:xlink="http://www.w3.org/1999/xlink">
    <title>Instagram_icon </title>
    <defs>
        <linearGradient x1="81.5887586%" y1="18.1912264%" x2="17.2310239%" y2="83.4524421%" id="linearGradient-1">
            <stop stop-color="#833AB4" offset="0%"></stop>
            <stop stop-color="#9C3495" offset="9.22%"></stop>
            <stop stop-color="#DC2546" offset="29.27%"></stop>
            <stop stop-color="#FD1D1D" offset="39.2%"></stop>
            <stop stop-color="#FC6831" offset="55.89%"></stop>
            <stop stop-color="#FC9B40" offset="68.87%"></stop>
            <stop stop-color="#FCAF45" offset="75.21%"></stop>
            <stop stop-color="#FDB750" offset="78.06%"></stop>
            <stop stop-color="#FECB6A" offset="86.56%"></stop>
            <stop stop-color="#FFD87A" offset="94.15%"></stop>
            <stop stop-color="#FFDC80" offset="100%"></stop>
        </linearGradient>
    </defs>
    <g id="Instagram_icon-" stroke="none" stroke-width="1" fill="none" fill-rule="evenodd">
        <path d="M4,0 L27,0 C29.209139,-2.36792184e-15 31,1.790861 31,4 L31,27 C31,29.209139 29.209139,31 27,31 L4,31 C1.790861,31 2.705415e-16,29.209139 0,27 L0,4 C-2.705415e-16,1.790861 1.790861,4.05812251e-16 4,0 Z M15.5000218,4.5 C12.5125794,4.5 12.137981,4.51266423 10.9647141,4.56620337 C9.79389232,4.6196115 8.99426307,4.80560104 8.29458202,5.07757637 C7.57123477,5.35867867 6.95779125,5.73485006 6.3462253,6.34644518 C5.73470301,6.95808397 5.35857642,7.57160056 5.07750759,8.29503395 C4.80556465,8.99479833 4.61959725,9.79452282 4.56619549,10.965484 C4.51266272,12.1388907 4.5,12.5135337 4.5,15.5013319 C4.5,18.4890865 4.51266272,18.8637295 4.56619549,20.0371362 C4.61959725,21.2080974 4.80556465,22.0078219 5.07750759,22.7075862 C5.35857642,23.4310196 5.73470301,24.0445362 6.3462253,24.656175 C6.95779125,25.2677701 7.57123477,25.6439415 8.29458202,25.9250875 C8.99426307,26.1970191 9.79389232,26.3830087 10.9647141,26.4364168 C12.137981,26.489956 12.5125794,26.5026202 15.5000218,26.5026202 C18.4874206,26.5026202 18.862019,26.489956 20.0352859,26.4364168 C21.2061077,26.3830087 22.0057369,26.1970191 22.705418,25.9250875 C23.4287652,25.6439415 24.0422088,25.2677701 24.6537747,24.656175 C25.265297,24.0445362 25.6414236,23.4310196 25.9225361,22.7075862 C26.1944353,22.0078219 26.3804027,21.2080974 26.4338045,20.0371362 C26.4873373,18.8637295 26.5,18.4890865 26.5,15.5013319 C26.5,12.5135337 26.4873373,12.1388907 26.4338045,10.965484 C26.3804027,9.79452282 26.1944353,8.99479833 25.9225361,8.29503395 C25.6414236,7.57160056 25.265297,6.95808397 24.6537747,6.34644518 C24.0422088,5.73485006 23.4287652,5.35867867 22.705418,5.07757637 C22.0057369,4.80560104 21.2061077,4.6196115 20.0352859,4.56620337 C18.862019,4.51266423 18.4874206,4.5 15.5000218,4.5 Z M15.5000218,6.48221449 C18.4371191,6.48221449 18.7850383,6.49343762 19.9449439,6.54636538 C21.0174331,6.59527553 21.5998748,6.77449626 21.9874851,6.92515696 C22.5009368,7.12472781 22.8673699,7.36312108 23.252273,7.74811376 C23.6372199,8.13306278 23.8755848,8.49953948 24.0751318,9.0130523 C24.2257746,9.40070884 24.404974,9.98321989 24.4538783,11.0558368 C24.5067998,12.2158805 24.5180216,12.5638412 24.5180216,15.5013319 C24.5180216,18.438779 24.5067998,18.7867397 24.4538783,19.9467834 C24.404974,21.0194003 24.2257746,21.6019113 24.0751318,21.9895679 C23.8755848,22.5030807 23.6372199,22.8695574 23.252273,23.2545064 C22.8673699,23.6394991 22.5009368,23.8778924 21.9874851,24.0774632 C21.5998748,24.2281239 21.0174331,24.4073447 19.9449439,24.4562548 C18.785213,24.5091826 18.4373374,24.5204057 15.5000218,24.5204057 C12.5626626,24.5204057 12.2148307,24.5091826 11.0550561,24.4562548 C9.98256692,24.4073447 9.40012524,24.2281239 9.01251486,24.0774632 C8.4990632,23.8778924 8.13263014,23.6394991 7.74772696,23.2545064 C7.36282379,22.8695574 7.12441524,22.5030807 6.92486816,21.9895679 C6.7742254,21.6019113 6.59502601,21.0194003 6.54612169,19.9467834 C6.49320024,18.7867397 6.48197844,18.438779 6.48197844,15.5013319 C6.48197844,12.5638412 6.49320024,12.2158805 6.54612169,11.0558368 C6.59502601,9.98321989 6.7742254,9.40070884 6.92486816,9.0130523 C7.12441524,8.49953948 7.36278012,8.13306278 7.74772696,7.74811376 C8.13263014,7.36312108 8.4990632,7.12472781 9.01251486,6.92515696 C9.40012524,6.77449626 9.98256692,6.59527553 11.0550561,6.54636538 C12.2149617,6.49343762 12.5628809,6.48221449 15.5000218,6.48221449 L15.5000218,6.48221449 Z M15.9074295,19.6098139 C13.8626152,19.6098139 12.2050009,17.9521996 12.2050009,15.9074295 C12.2050009,13.8626152 13.8626152,12.2050009 15.9074295,12.2050009 C17.9521996,12.2050009 19.6098139,13.8626152 19.6098139,15.9074295 C19.6098139,17.9521996 17.9521996,19.6098139 15.9074295,19.6098139 Z M15.9074295,10.2037037 C12.7573186,10.2037037 10.2037037,12.7573186 10.2037037,15.9074295 C10.2037037,19.0574962 12.7573186,21.6111111 15.9074295,21.6111111 C19.0574962,21.6111111 21.6111111,19.0574962 21.6111111,15.9074295 C21.6111111,12.7573186 19.0574962,10.2037037 15.9074295,10.2037037 L15.9074295,10.2037037 Z M22.4259259,9.79631651 C22.4259259,10.4713375 21.8787045,11.0185185 21.2036835,11.0185185 C20.5287029,11.0185185 19.9814815,10.4713375 19.9814815,9.79631651 C19.9814815,9.12129552 20.5287029,8.57407407 21.2036835,8.57407407 C21.8787045,8.57407407 22.4259259,9.12129552 22.4259259,9.79631651" id="Combined-Shape" fill="url(#linearGradient-1)"></path>
    </g>
</svg>