<?xml version="1.0" encoding="UTF-8"?>
<svg width="52px" height="62px" viewBox="0 0 52 62" version="1.1" xmlns="http://www.w3.org/2000/svg" xmlns:xlink="http://www.w3.org/1999/xlink">
    <title>342C9DC9-E77B-4E67-A17F-7889141E6046</title>
    <g id="City-Page" stroke="none" stroke-width="1" fill="none" fill-rule="evenodd">
        <g id="City6_3_hover-Copy" transform="translate(-154.000000, -1602.000000)">
            <rect fill="#FFFFFF" x="0" y="0" width="1763" height="10319"></rect>
            <g id="Section_What-are-the-legal-requirements-for-car-insurance-in-Illinois" transform="translate(70.000000, 1328.000000)">
                <polygon id="grey-bg" fill="#F2F5F5" points="10 0 1611 0 1611 739 694.863176 739 10 739"></polygon>
                <g id="Liability-Coverage" transform="translate(84.000000, 274.000000)">
                    <g id="injured-person-icon" transform="translate(2.000000, 0.000000)">
                        <path d="M47.5731217,61 C47.3188059,61 47.0748871,60.8929798 46.8950586,60.7023026 C46.7152301,60.5116255 46.6142328,60.2529916 46.614299,59.9833333 L46.614299,39.2766901 C46.6171083,39.0284811 46.5899545,33.6482913 38.9142233,32.4429821 C35.1440075,31.8502655 32.8157748,31.402495 31.3091862,30.7323286 C30.9933938,30.5918642 30.772263,30.2834328 30.7290915,29.9232177 C30.68592,29.5630025 30.8272666,29.2057288 31.0998875,28.9859781 C31.3725083,28.7662274 31.7349857,28.717385 32.0507781,28.8578495 C34.3747759,29.6418304 36.7689312,30.1691779 39.1951296,30.431497 C48.6063875,31.909832 48.533354,39.2300251 48.5314747,39.3034996 L48.5319446,59.9833333 C48.5319446,60.2529916 48.4310134,60.5116255 48.2511849,60.7023026 C48.0713564,60.8929798 47.8274376,61 47.5731217,61 L47.5731217,61 Z M18.1409538,30.2255 L20.0681876,46.6955 L23.7117141,46.6955 C27.4370505,46.6955001 30.4570322,49.8976715 30.4570322,53.84775 C30.4570322,57.7978285 27.4370505,61 23.7117141,61 L7.59390317,61 C3.40106946,60.9970615 0.0027980254,57.393779 1.33601714e-05,52.948 L1.33601714e-05,39.2738333 C1.33601714e-05,39.2331666 -0.0670908665,31.9335 9.31019595,30.439 C9.31783676,30.431166 9.32841502,30.4274272 9.33896063,30.4288333 C11.7354106,30.1638246 14.1019874,29.6531025 16.4054845,28.9038333 C16.4460158,28.8812391 16.4876202,28.8608786 16.5301315,28.8428333 C17.8820716,28.2226667 18.025895,27.4398333 18.0738362,26.0571667 C14.6125638,23.2050291 12.6225934,18.7890558 12.7044286,14.1418333 C12.7044286,6.344 17.9108363,0 24.3157725,0 C30.7111205,0 35.9271164,6.344 35.9271164,14.1418333 C35.9271164,21.9396667 30.7111205,28.2836667 24.3157725,28.2836667 C22.7786393,28.2806499 21.2616837,27.912404 19.876423,27.206 C19.7821836,28.4473394 19.1382474,29.5677081 18.1409538,30.2255 L18.1409538,30.2255 Z M20.3078933,48.7288333 L21.4968335,58.9666666 L23.7117141,58.9666666 C26.3779642,58.9666666 28.5393869,56.6748496 28.5393869,53.84775 C28.5393869,51.0206504 26.3779642,48.7288333 23.7117141,48.7288333 L20.3078933,48.7288333 Z M4.73661128,58.1431666 L8.33219671,32.696 C1.95602521,34.2718333 1.91767229,39.0705 1.91767229,39.2535 L1.91767229,52.948 C1.91787005,55.0884067 2.9915788,57.0671994 4.73661128,58.1431666 L4.73661128,58.1431666 Z M16.3191905,31.0693333 C14.3515348,31.6359633 12.3491822,32.0571964 10.3265481,32.33 L6.56796279,58.865 C6.90589701,58.9350276 7.24958347,58.9690855 7.59390317,58.966787 L19.5600115,58.966787 L16.3191905,31.0693333 Z M24.3157725,26.2503333 C29.6564154,26.2503333 34.0094708,20.8111667 34.0094708,14.1418333 C34.0094708,7.46233333 29.6564154,2.03333333 24.3157725,2.03333333 C18.9655414,2.03333333 14.6220742,7.46233333 14.6220742,14.1418333 C14.6220742,20.8111667 18.9655414,26.2503333 24.3157725,26.2503333 Z M38.8884789,59.9833333 L38.8884789,46.476754 C38.8884789,45.9152645 38.4591993,45.4600873 37.9296561,45.4600873 C37.4001129,45.4600873 36.9708334,45.9152645 36.9708334,46.476754 L36.9708334,59.9833333 C36.9708334,60.5448228 37.4001129,61 37.9296561,61 C38.4591993,61 38.8884789,60.5448228 38.8884789,59.9833333 Z" id="Shape" fill="#383D3B" fill-rule="nonzero"></path>
                        <path d="M9.60695484,31.7017874 C11.3756595,31.1750877 12.8146583,30.7684949 13.9239514,30.4820089 C15.0332444,30.195523 16.076487,29.9610523 17.0536791,29.7785968 L20.4202553,59.9211749 L5.23729655,59.9211749 L9.60695484,31.7017874 Z" id="Line" stroke="#F16322" stroke-width="2.4" stroke-linecap="square" stroke-linejoin="round"></path>
                    </g>
                </g>
            </g>
        </g>
    </g>
</svg>