<?xml version="1.0" encoding="UTF-8"?>
<svg width="31px" height="31px" viewBox="0 0 31 31" version="1.1" xmlns="http://www.w3.org/2000/svg" xmlns:xlink="http://www.w3.org/1999/xlink">
    <title>LinkedIn_icon</title>
    <g id="LinkedIn_icon" stroke="none" stroke-width="1" fill="none" fill-rule="evenodd">
        <g id="iconfinder_linked_in_104828" fill="#0E76A8" fill-rule="nonzero">
            <path d="M27,0 C29.209139,-2.36792184e-15 31,1.790861 31,4 L31,27 C31,29.209139 29.209139,31 27,31 L4,31 C1.790861,31 2.705415e-16,29.209139 0,27 L0,4 C-2.705415e-16,1.790861 1.790861,4.05812251e-16 4,0 L27,0 Z M9.6129102,11.7073714 L5.45062245,11.7073714 L5.45062245,25.0977898 L9.6129102,25.0977898 L9.6129102,11.7073714 Z M20.8667959,11.4062286 C18.6213837,11.4062286 17.2796531,12.6932347 16.7320286,13.5695224 L16.7320286,13.5695224 L16.6497837,13.5695224 L16.4581531,11.7073714 L12.8435531,11.7073714 C12.8983408,12.9121959 12.9530653,14.3087776 12.9530653,15.9791082 L12.9530653,15.9791082 L12.9530653,25.0977898 L17.1152898,25.0977898 L17.1152898,17.3756898 C17.1152898,16.9923653 17.1426837,16.6089776 17.2522592,16.3351653 C17.5534653,15.5684531 18.2380592,14.7742837 19.3882224,14.7742837 C20.8942531,14.7742837 21.4966653,15.9517776 21.4966653,17.6769592 L21.4966653,17.6769592 L21.4966653,25.0977898 L25.6588898,25.0977898 L25.6588898,17.1840592 C25.6588898,13.2409224 23.6051082,11.4062286 20.8667959,11.4062286 Z M7.55912857,5.90208367 C6.21739796,5.90208367 5.3411102,6.80582857 5.3411102,7.98325918 C5.3411102,9.13342245 6.18994082,10.0643714 7.50434082,10.0643714 C8.90085918,10.0643714 9.74975306,9.13342245 9.74975306,7.98325918 C9.72242245,6.80576531 8.90085918,5.90208367 7.55912857,5.90208367 Z" id="Combined-Shape"></path>
        </g>
    </g>
</svg>