<?xml version="1.0" encoding="UTF-8"?>
<svg width="167px" height="167px" viewBox="0 0 167 167" version="1.1" xmlns="http://www.w3.org/2000/svg" xmlns:xlink="http://www.w3.org/1999/xlink">
    <title>580CDC37-5B3B-4BF4-814F-A82E857B148D</title>
    <g id="City-Page" stroke="none" stroke-width="1" fill="none" fill-rule="evenodd">
        <g id="City6_3_hover-Copy" transform="translate(-292.000000, -911.000000)">
            <rect fill="#FFFFFF" x="0" y="0" width="1763" height="10319"></rect>
            <g id="Section_How-do-we-help-with-your-auto..." transform="translate(251.000000, 746.000000)">
                <g id="Shop-around-for-an-auto" transform="translate(0.000000, 165.000000)">
                    <g id="icon_multiple-liability-limits" transform="translate(41.000000, 0.000000)">
                        <g id="Group-4" fill-rule="nonzero">
                            <circle id="Oval" fill="#F2F5F5" cx="83.5" cy="83.5" r="83.5"></circle>
                            <ellipse id="Oval" fill="#ECA721" cx="96.0774059" cy="66.3807531" rx="29.6966527" ry="29.3472803"></ellipse>
                            <path d="M125.774059,66.3807531 C125.774059,82.563 112.609025,95.7280335 96.4267782,95.7280335 L96.4267782,37.0334728 C112.609025,37.0334728 125.774059,50.1985063 125.774059,66.3807531 Z" id="Path" fill="#CF9D38"></path>
                            <circle id="Oval" fill="#FFB82C" cx="96.4267782" cy="66.3807531" r="23.0585774"></circle>
                            <path d="M119.485356,66.3807531 C119.485356,79.095926 109.139755,89.4393305 96.4267782,89.4393305 L96.4267782,43.3221757 C109.139755,43.3221757 119.485356,53.6655803 119.485356,66.3807531 Z" id="Path" fill="#FBBD43"></path>
                            <path d="M101.504864,63.9547329 C98.7994835,61.8689907 95.2102243,61.4397385 94.535627,60.2347631 C94.3794297,59.9559437 94.5760416,59.3578868 95.0278121,59.0570212 C95.7152984,58.5996709 97.358537,58.7941961 97.871257,59.2621372 C99.2012275,60.4761905 101.274173,60.3936253 102.501031,59.0773383 C103.728108,57.7614835 103.644438,55.7105398 102.314249,54.4964865 C101.456147,53.7136308 100.386142,53.1371878 99.2241659,52.7747226 C99.1820029,51.0207539 97.7345027,49.6108787 95.9516696,49.6108787 C94.1421847,49.6108787 92.6752414,51.0622526 92.6752414,52.8525326 L92.6752414,52.9893487 C88.5335024,54.6897149 86.7065409,59.6308705 88.8030791,63.3759124 C90.9992342,67.2988368 95.5206526,67.5603651 97.4767226,69.0687997 C98.2494072,69.6644791 98.2900406,70.1661379 98.253121,70.4916434 C98.1792825,71.1461125 97.6493042,71.8258699 96.963784,72.1448912 C95.9186825,72.632501 93.7072354,72.3007275 92.4137476,71.4631885 C90.8996175,70.4829978 88.8688349,70.9029561 87.8781294,72.4012322 C86.8874238,73.8995083 87.3118871,75.9085211 88.8262357,76.8887118 C89.8901245,77.577331 91.2301439,78.1416701 92.675023,78.4855474 L92.675023,78.5114841 C92.675023,80.3017641 94.1419662,81.7531381 95.9514512,81.7531381 C97.7609361,81.7531381 99.227879,80.3017641 99.227879,78.5114841 L99.227879,78.2322324 C99.4052673,78.1643647 99.5809072,78.091742 99.7532701,78.0113382 C105.328091,75.417237 106.84244,68.0704533 101.504864,63.9547329 L101.504864,63.9547329 Z" id="Path" fill="#FFFFFF"></path>
                            <path d="M99.7024015,79.5480986 L99.7024015,79.8337675 C99.7024015,81.6250668 98.2498781,83.084193 96.4267782,83.1506276 L96.4267782,73.5275701 C97.7660826,73.4104237 98.58999,72.4728095 98.6886591,71.6166885 C98.8159732,70.524503 97.4609822,69.8092234 96.4267782,69.3647757 L96.4267782,62.1882845 C97.9497791,62.8371295 100.21166,63.5078979 102.071136,64.9207412 C107.836215,69.2956836 105.882844,77.2439238 99.7024015,79.5480986 Z" id="Path" fill="#E9E9E9"></path>
                            <path d="M98.1437947,59.933001 C97.833856,59.6397171 97.0948209,59.4542581 96.4267782,59.4715101 L96.4267782,50.3096234 C98.078875,50.3743184 99.4000917,51.7542622 99.4400906,53.4622096 C100.553984,53.822345 101.580131,54.3981302 102.402933,55.1785673 C103.678078,56.3903042 103.757657,58.4366062 102.583033,59.7499142 C101.406314,61.0627909 99.4191485,61.1447379 98.1437947,59.933001 L98.1437947,59.933001 Z" id="Path" fill="#E9E9E9"></path>
                            <path d="M103.395985,115.990095 L99.7121644,119.618371 L99.7121644,104.553625 C99.7121644,102.76667 98.2413087,101.317992 96.4269973,101.317992 C94.6126862,101.317992 93.1418302,102.76667 93.1418302,104.553625 L93.1418302,119.618371 L89.4577908,115.989879 C88.1748715,114.726304 86.0946454,114.726304 84.8117261,115.989879 C83.5285878,117.253454 83.5285878,119.302315 84.8117261,120.56589 L94.1038554,129.717914 C95.3854604,130.980627 97.4672198,130.98149 98.7499201,129.717914 L108.04183,120.56589 C109.324969,119.302315 109.324969,117.253454 108.04183,115.989879 C106.75913,114.726519 104.678904,114.726519 103.395985,115.990095 L103.395985,115.990095 Z" id="Path" fill="#ECA721"></path>
                            <path d="M108.041628,120.56565 L98.7484779,129.718216 C98.1088546,130.350306 97.2679261,130.665272 96.4267782,130.665272 L96.4267782,101.317992 C98.2402843,101.317992 99.7120742,102.767482 99.7120742,104.553512 L99.7120742,119.618594 L103.396039,115.990445 C104.677256,114.726482 106.758002,114.726482 108.041628,115.990445 C109.325036,117.252466 109.325036,119.301687 108.041628,120.56565 L108.041628,120.56565 Z" id="Path" fill="#CF9D38"></path>
                            <path d="M137.346247,101.127986 C135.61852,100.662254 133.840447,101.695495 133.376969,103.439211 L132.046818,108.44632 L124.502597,95.2667809 C123.607619,93.7032989 121.625573,93.1676091 120.075675,94.0703053 C118.525561,94.9727836 117.994451,96.9719222 118.889429,98.5354042 L126.433434,111.714943 L121.469351,110.373321 C119.743137,109.908025 117.963768,110.940612 117.50029,112.684763 C117.037243,114.42848 118.062946,116.220796 119.79197,116.688053 L132.313453,120.072184 C134.041612,120.538351 135.81882,119.505983 136.282515,117.760959 L139.63771,105.131712 C140.100973,103.38756 139.075054,101.595461 137.346247,101.127986 L137.346247,101.127986 Z" id="Path" fill="#CF9D38"></path>
                            <path d="M70.6851434,110.373238 L65.721246,111.714849 L73.2652984,98.5354148 C74.1602821,96.9719451 73.6291691,94.9728223 72.079045,94.0703512 C70.5291371,93.1674442 68.5468625,93.7035656 67.6520947,95.2668173 L60.1080425,108.446034 L58.777883,103.439401 C58.3146176,101.695916 56.5382627,100.661812 54.8085802,101.128194 C53.0797619,101.595448 52.0538364,103.38775 52.5171018,105.13167 L55.8723187,117.760817 C56.3345037,119.500379 58.1071853,120.539714 59.8416216,120.072024 L72.362968,116.68792 C74.0917863,116.220667 75.1177117,114.428147 74.6544463,112.684445 C74.1911809,110.94096 72.4141778,109.906856 70.6851434,110.373238 Z" id="Path" fill="#ECA721"></path>
                            <path d="M80.3556485,75.5526831 C80.3556485,79.6534368 77.031145,83.0051646 72.8908802,83.1462854 C72.8002401,83.1484565 72.7096,83.1506276 72.6189598,83.1506276 L39.9036169,83.1506276 L39.8284519,49.9885397 L62.1588665,38.5547144 C62.3180394,38.472213 62.4926875,38.4309623 62.6695463,38.4309623 C62.7756616,38.4309623 62.8817769,38.44616 62.9856814,38.4765552 L78.2227312,42.9485652 L78.2072561,42.9811315 C73.377242,46.8148412 69.7852395,52.0966674 68.1185663,58.1468423 L65.9345811,57.580188 C65.7533007,57.532424 65.5631775,57.508542 65.3708436,57.508542 C64.7297304,57.508542 64.1197886,57.7820993 63.6997489,58.2575679 L58.3150613,64.36202 C57.7513238,65.0024913 57.616469,65.9163029 57.9746081,66.6870396 C58.3349579,67.4577763 59.1239693,67.9547387 59.986156,67.9547387 L72.6191809,67.9547387 C76.8852365,67.9547387 80.3556485,71.3629148 80.3556485,75.5526831 L80.3556485,75.5526831 Z" id="Path" fill="#FFD4CA"></path>
                            <path d="M37.9627161,45.41841 L31.2132337,45.41841 C29.4109202,45.41841 27.9497908,46.8834161 27.9497908,48.6905115 L27.9497908,86.8659739 C27.9497908,88.6730692 29.4109202,90.1380753 31.2132337,90.1380753 L37.9624985,90.1380753 C39.764812,90.1380753 41.2259414,88.6730692 41.2259414,86.8659739 L41.2259414,48.6905115 C41.226159,46.8834161 39.7650295,45.41841 37.9627161,45.41841 Z" id="Path" fill="#197BBD"></path>
                        </g>
                        <g id="liability" transform="translate(27.949791, 38.033473)"></g>
                    </g>
                </g>
            </g>
        </g>
    </g>
</svg>