<?xml version="1.0" encoding="UTF-8"?>
<svg width="112px" height="77px" viewBox="0 0 112 77" version="1.1" xmlns="http://www.w3.org/2000/svg" xmlns:xlink="http://www.w3.org/1999/xlink">
    <title>icon_commercial-auto</title>
    <g id="icon_commercial-auto" stroke="none" stroke-width="1" fill="none" fill-rule="evenodd">
        <g id="shipping" transform="translate(10.000000, 11.000000)" fill-rule="nonzero">
            <path d="M89.3737939,44.2710813 L89.3737939,35.5219704 C89.3737939,33.1705715 87.4395097,31.3004189 85.0903401,31.3004189 C83.9705316,31.3004189 82.9948815,30.5178755 82.7702315,29.436296 L81.8748818,25.1891183 L80.8760975,20.4392133 C80.2992728,17.6972022 77.7893111,15.5839769 74.826608,15.5839769 L64.9844532,15.5839769 L64.9844532,6.99879877 C64.9844532,3.13978364 61.7988208,0 57.8830282,0 L9.71749797,0 C5.80686751,0 2.62544135,3.13959522 2.62544135,6.99879877 L2.62544135,26.8518111 C2.62544135,27.3733811 3.05447502,27.7962146 3.58369303,27.7962146 C4.11291104,27.7962146 4.54194471,27.3733811 4.54194471,26.8518111 L4.54194471,6.99861034 C4.54194471,4.18085096 6.86339161,1.88880701 9.71730678,1.88880701 L57.8830282,1.88880701 C60.7421056,1.88880701 63.0677587,4.18085096 63.0677587,6.99861034 C63.0631701,51.7965376 63.0673763,-2.93213547 63.0677587,44.220394 L28.6387624,44.220394 C27.3725013,40.9441882 24.1606757,38.6059792 20.3972626,38.6059792 C16.6395854,38.6059792 13.4329219,40.9439997 12.1683815,44.220394 L4.5421359,44.220394 L4.5421359,32.9621696 C4.5421359,32.4405996 4.11310223,32.0177661 3.58388422,32.0177661 C3.05466622,32.0177661 2.62563254,32.4405996 2.62563254,32.9621696 L2.62563254,44.2699507 C1.14064835,44.5071822 0,45.7696529 0,47.2995037 C0,49.0317266 1.40755165,50.3880348 3.12387753,50.3880348 L12.1691463,50.3880348 C13.4340691,53.6631101 16.6403501,56 20.3972626,56 C24.1599109,56 27.3711629,53.6629217 28.6379976,50.3880348 L67.982718,50.3880348 C69.2476408,53.6631101 72.4539218,56 76.2108343,56 C79.9734826,56 83.1847346,53.6629217 84.4515693,50.3880348 L88.8661805,50.3880348 C90.5943603,50.3880348 92,49.0027087 92,47.2995037 C92,45.7726678 90.8599252,44.5113276 89.3737939,44.2710813 Z M80.6692284,28.7619105 L64.9844532,28.7619105 L64.9844532,17.4733491 L74.8243137,17.4733491 C76.9293319,17.4733491 78.6211853,19.0212891 78.9964941,20.8196504 L80.0576068,25.8527633 L80.6692284,28.7619105 Z M64.9844532,30.650906 L81.1720619,30.650906 C81.8419969,32.158899 83.3675137,33.1892259 85.0905312,33.1892259 C86.3889126,33.1892259 87.4572905,34.2210602 87.4572905,35.521782 L87.4572905,44.220394 L84.4523341,44.220394 C83.1860729,40.9441882 79.9742473,38.6059792 76.2108343,38.6059792 C72.453157,38.6059792 69.2464936,40.9439997 67.9819532,44.220394 L64.9844532,44.220394 L64.9844532,30.650906 L64.9844532,30.650906 Z M3.12387753,48.4992278 C2.46598766,48.4992278 1.91669455,47.987456 1.91669455,47.2996921 C1.91669455,46.6433958 2.45814881,46.1093895 3.12387753,46.1093895 C3.36955858,46.1093895 11.9750869,46.1093895 11.6791225,46.1093895 C11.6242506,46.5007554 11.5862035,46.8973973 11.5862035,47.3034607 C11.5862035,47.7102778 11.6244418,48.1072966 11.6795049,48.4992278 L3.12387753,48.4992278 Z M20.3972626,54.1113814 C16.5958025,54.1113814 13.5027068,51.0575212 13.5027068,47.3034607 C13.5027068,43.5494002 16.5958025,40.4951631 20.3972626,40.4951631 C24.2061792,40.4951631 27.3053931,43.5495887 27.3053931,47.3034607 C27.3053931,51.0573327 24.2061792,54.1113814 20.3972626,54.1113814 Z M29.128595,48.4992278 C29.1836581,48.1072966 29.2220876,47.7100893 29.2220876,47.3034607 C29.2220876,46.8973973 29.1838493,46.5009438 29.128595,46.1093895 L67.4930766,46.1093895 C67.4378222,46.5007554 67.3997751,46.8973973 67.3997751,47.3034607 C67.3997751,47.7102778 67.4380134,48.1072966 67.4930766,48.4992278 L29.128595,48.4992278 Z M76.2108343,54.1113814 C72.4093742,54.1113814 69.3162785,51.0575212 69.3162785,47.3034607 C69.3162785,43.5494002 72.4093742,40.4951631 76.2108343,40.4951631 C80.0197509,40.4951631 83.1189647,43.5495887 83.1189647,47.3034607 C83.1189647,51.0573327 80.0197509,54.1113814 76.2108343,54.1113814 Z M88.8661805,48.4992278 L84.9421667,48.4992278 C84.9972298,48.1072966 85.0356593,47.7100893 85.0356593,47.3034607 C85.0356593,46.8973973 84.997421,46.5009438 84.942549,46.1093895 C85.0656764,46.1093895 89.0093829,46.1093895 88.8661805,46.1093895 C89.5372626,46.1093895 90.0833055,46.6433958 90.0833055,47.2996921 C90.0833055,47.9610761 89.5372626,48.4992278 88.8661805,48.4992278 L88.8661805,48.4992278 Z" id="Shape" stroke="#383D3B" stroke-width="0.6" fill="#383D3B"></path>
            <path d="M68,35.8225806 C68.5522746,35.8225806 69,35.3382031 69,34.7407178 L69,32.9044435 C69,32.3069582 68.5522746,31.8225806 68,31.8225806 C67.4477255,31.8225806 67,32.3069582 67,32.9044435 L67,34.7407178 C66.9998005,35.3382031 67.4477255,35.8225806 68,35.8225806 Z" id="Path" fill="#F16322"></path>
            <path d="M20.9932572,43.8225806 C18.7911156,43.8225806 17,45.6168775 17,47.8222962 C17,50.0282838 18.7911156,51.8225806 20.9932572,51.8225806 C23.2028063,51.8225806 25,50.0282838 25,47.8222962 C25,45.6168775 23.2028063,43.8225806 20.9932572,43.8225806 L20.9932572,43.8225806 Z M20.9932572,49.9215211 C19.841283,49.9215211 18.9041288,48.9798092 18.9041288,47.8222962 C18.9041288,46.6651625 19.841283,45.7236402 20.9932572,45.7236402 C22.152639,45.7236402 23.0958712,46.6653521 23.0958712,47.8222962 C23.0958712,48.9799988 22.152639,49.9215211 20.9932572,49.9215211 Z" id="Shape" fill="#F16322"></path>
            <path d="M76.9932572,43.8225806 C74.7911156,43.8225806 73,45.6168775 73,47.8222962 C73,50.0282838 74.7911156,51.8225806 76.9932572,51.8225806 C79.2028063,51.8225806 81,50.0282838 81,47.8222962 C81,45.6168775 79.2028063,43.8225806 76.9932572,43.8225806 L76.9932572,43.8225806 Z M76.9932572,49.9215211 C75.841283,49.9215211 74.9041288,48.9798092 74.9041288,47.8222962 C74.9041288,46.6651625 75.841283,45.7236402 76.9932572,45.7236402 C78.152639,45.7236402 79.0958712,46.6653521 79.0958712,47.8222962 C79.0958712,48.9799988 78.152639,49.9215211 76.9932572,49.9215211 Z" id="Shape" fill="#F16322"></path>
            <path d="M14,32.8717174 L14,8.77344386 C14,8.24830631 13.5522745,7.82258065 13,7.82258065 C12.4477255,7.82258065 12,8.24830631 12,8.77344386 L12,32.8717174 C12,33.396855 12.4477255,33.8225806 13,33.8225806 C13.5522745,33.8225806 14,33.396855 14,32.8717174 Z" id="Path" fill="#F16322"></path>
            <path d="M22,32.8717174 L22,8.77344386 C22,8.24830631 21.5522745,7.82258065 21,7.82258065 C20.4477255,7.82258065 20,8.24830631 20,8.77344386 L20,32.8717174 C20,33.396855 20.4477255,33.8225806 21,33.8225806 C21.552075,33.8225806 22,33.396855 22,32.8717174 Z" id="Path" fill="#F16322"></path>
            <path d="M31,32.8717174 L31,8.77344386 C31,8.24830631 30.5522745,7.82258065 30,7.82258065 C29.4477255,7.82258065 29,8.24830631 29,8.77344386 L29,32.8717174 C29,33.396855 29.4477255,33.8225806 30,33.8225806 C30.552075,33.8225806 31,33.396855 31,32.8717174 Z" id="Path" fill="#F16322"></path>
            <path d="M39,32.8717174 L39,8.77344386 C39,8.24830631 38.5522745,7.82258065 38,7.82258065 C37.4477255,7.82258065 37,8.24830631 37,8.77344386 L37,32.8717174 C37,33.396855 37.4477255,33.8225806 38,33.8225806 C38.5522745,33.8225806 39,33.396855 39,32.8717174 Z" id="Path" fill="#F16322"></path>
            <path d="M48,32.8717174 L48,8.77344386 C48,8.24830631 47.5522745,7.82258065 47,7.82258065 C46.4477255,7.82258065 46,8.24830631 46,8.77344386 L46,32.8717174 C46,33.396855 46.4477255,33.8225806 47,33.8225806 C47.5522745,33.8225806 48,33.396855 48,32.8717174 Z" id="Path" fill="#F16322"></path>
            <path d="M57,32.8717174 L57,8.77344386 C57,8.24830631 56.5522745,7.82258065 56,7.82258065 C55.4477255,7.82258065 55,8.24830631 55,8.77344386 L55,32.8717174 C55,33.396855 55.4477255,33.8225806 56,33.8225806 C56.5522745,33.8225806 57,33.396855 57,32.8717174 Z" id="Path" fill="#F16322"></path>
        </g>
    </g>
</svg>