<?xml version="1.0" encoding="UTF-8"?>
<svg width="112px" height="77px" viewBox="0 0 112 77" version="1.1" xmlns="http://www.w3.org/2000/svg" xmlns:xlink="http://www.w3.org/1999/xlink">
    <title>icon_specialtyline</title>
    <g id="icon_specialtyline" stroke="none" stroke-width="1" fill="none" fill-rule="evenodd">
        <g id="Group-5" transform="translate(34.000000, 33.000000)" fill-rule="nonzero">
            <path d="M5.5,12 C2.46766667,12 0,9.308 0,6 C0,2.692 2.46766667,0 5.5,0 C8.53233333,0 11,2.692 11,6 C11,9.308 8.53233333,12 5.5,12 Z M5.5,2 C3.47783333,2 1.83333333,3.794 1.83333333,6 C1.83333333,8.206 3.47783333,10 5.5,10 C7.52216667,10 9.16666667,8.206 9.16666667,6 C9.16666667,3.794 7.52216667,2 5.5,2 Z" id="Shape" fill="#383D3B"></path>
            <path d="M22.5,12 C19.4676667,12 17,9.308 17,6 C17,2.692 19.4676667,0 22.5,0 C25.5323333,0 28,2.692 28,6 C28,9.308 25.5323333,12 22.5,12 Z M22.5,2 C20.4778333,2 18.8333333,3.794 18.8333333,6 C18.8333333,8.206 20.4778333,10 22.5,10 C24.5221667,10 26.1666667,8.206 26.1666667,6 C26.1666667,3.794 24.5221667,2 22.5,2 Z" id="Shape" fill="#F16322"></path>
            <path d="M39.5,12 C36.4676667,12 34,9.308 34,6 C34,2.692 36.4676667,0 39.5,0 C42.5323333,0 45,2.692 45,6 C45,9.308 42.5323333,12 39.5,12 Z M39.5,2 C37.4778333,2 35.8333333,3.794 35.8333333,6 C35.8333333,8.206 37.4778333,10 39.5,10 C41.5221667,10 43.1666667,8.206 43.1666667,6 C43.1666667,3.794 41.5221667,2 39.5,2 Z" id="Shape" fill="#383D3B"></path>
        </g>
    </g>
</svg>